<svg xmlns="http://www.w3.org/2000/svg" width="33" height="30" viewBox="0 -3 34 34">
<g transform="translate(-140 -1087)">
<rect id="矩形_3112" data-name="矩形 3112" width="34" height="34" transform="translate(140 1087)" fill="none"></rect>
<path id="food" d="M276.909,1568.55v-.3a12.438,12.438,0,0,0-9.63-12.1,3.33,3.33,0,1,0-5.561,0,12.437,12.437,0,0,0-9.63,12.1v.3H249v2.12a3.331,3.331,0,0,0,3.33,3.33h24.336a3.331,3.331,0,0,0,3.329-3.33v-2.12h-3.087Zm-13.924-14.23a1.514,1.514,0,1,1,1.513,1.51,1.514,1.514,0,0,1-1.513-1.51Zm-9.081,13.93a10.594,10.594,0,0,1,21.188,0v.3H253.9v-.3Zm24.276,2.42a1.518,1.518,0,0,1-1.513,1.52H252.331a1.517,1.517,0,0,1-1.514-1.52v-.3H278.18Z" transform="translate(-107 -458.988)" fill="#5c5c68" fill-rule="evenodd"></path>
</g>
</svg>