<?xml version="1.0" encoding="UTF-8"?>
<svg width="22px" height="22px" viewBox="0 0 22 22" version="1.1" xmlns="http://www.w3.org/2000/svg" xmlns:xlink="http://www.w3.org/1999/xlink">
    <!-- Generator: Sketch 49.3 (51167) - http://www.bohemiancoding.com/sketch -->
    <title>Page 1</title>
    <desc>Created with Sketch.</desc>
    <defs>
        <polygon id="path-1" points="0 22 22 22 22 0 0 0"></polygon>
    </defs>
    <g id="desktop" stroke="none" stroke-width="1" fill="none" fill-rule="evenodd">
        <g id="quote-page" transform="translate(-1088.000000, -2855.000000)">
            <g id="Group-12" transform="translate(661.000000, 2806.000000)">
                <g id="Page-1" transform="translate(427.000000, 49.000000)">
                    <path d="M21.6333333,22 L0.366666667,22 C0.164266667,22 0,21.8361 0,21.6333333 L0,1.83333333 C0,1.63056667 0.164266667,1.46666667 0.366666667,1.46666667 L4.03333333,1.46666667 C4.23573333,1.46666667 4.4,1.63056667 4.4,1.83333333 C4.4,2.0361 4.23573333,2.2 4.03333333,2.2 L0.733333333,2.2 L0.733333333,21.2666667 L21.2666667,21.2666667 L21.2666667,2.2 L17.9666667,2.2 C17.7642667,2.2 17.6,2.0361 17.6,1.83333333 C17.6,1.63056667 17.7642667,1.46666667 17.9666667,1.46666667 L21.6333333,1.46666667 C21.8357333,1.46666667 22,1.63056667 22,1.83333333 L22,21.6333333 C22,21.8361 21.8357333,22 21.6333333,22" id="Fill-1" fill="#231F20"></path>
                    <mask id="mask-2" fill="white">
                        <use xlink:href="#path-1"></use>
                    </mask>
                    <g id="Clip-4"></g>
                    <path d="M4.4,3.66666667 L6.6,3.66666667 L6.6,0.733333333 L4.4,0.733333333 L4.4,3.66666667 Z M6.96666667,4.4 L4.03333333,4.4 C3.83093333,4.4 3.66666667,4.2361 3.66666667,4.03333333 L3.66666667,0.366666667 C3.66666667,0.1639 3.83093333,0 4.03333333,0 L6.96666667,0 C7.16906667,0 7.33333333,0.1639 7.33333333,0.366666667 L7.33333333,4.03333333 C7.33333333,4.2361 7.16906667,4.4 6.96666667,4.4 Z" id="Fill-3" fill="#231F20" mask="url(#mask-2)"></path>
                    <path d="M15.4,3.66666667 L17.6,3.66666667 L17.6,0.733333333 L15.4,0.733333333 L15.4,3.66666667 Z M17.9666667,4.4 L15.0333333,4.4 C14.8309333,4.4 14.6666667,4.2361 14.6666667,4.03333333 L14.6666667,0.366666667 C14.6666667,0.1639 14.8309333,0 15.0333333,0 L17.9666667,0 C18.1690667,0 18.3333333,0.1639 18.3333333,0.366666667 L18.3333333,4.03333333 C18.3333333,4.2361 18.1690667,4.4 17.9666667,4.4 Z" id="Fill-5" fill="#231F20" mask="url(#mask-2)"></path>
                    <path d="M15.0333333,2.2 L6.96666667,2.2 C6.76426667,2.2 6.6,2.0361 6.6,1.83333333 C6.6,1.63056667 6.76426667,1.46666667 6.96666667,1.46666667 L15.0333333,1.46666667 C15.2357333,1.46666667 15.4,1.63056667 15.4,1.83333333 C15.4,2.0361 15.2357333,2.2 15.0333333,2.2" id="Fill-6" fill="#231F20" mask="url(#mask-2)"></path>
                    <path d="M21.6333333,7.33333333 L0.366666667,7.33333333 C0.164266667,7.33333333 0,7.16943333 0,6.96666667 C0,6.7639 0.164266667,6.6 0.366666667,6.6 L21.6333333,6.6 C21.8357333,6.6 22,6.7639 22,6.96666667 C22,7.16943333 21.8357333,7.33333333 21.6333333,7.33333333" id="Fill-7" fill="#231F20" mask="url(#mask-2)"></path>
                    <path d="M5.5,19.8 C5.2976,19.8 5.13333333,19.637431 5.13333333,19.436311 L5.13333333,8.43035563 C5.13333333,8.22959932 5.2976,8.06666667 5.5,8.06666667 C5.7024,8.06666667 5.86666667,8.22959932 5.86666667,8.43035563 L5.86666667,19.436311 C5.86666667,19.637431 5.7024,19.8 5.5,19.8" id="Fill-8" fill="#231F20" mask="url(#mask-2)"></path>
                    <path d="M10.6333333,19.8 C10.4309333,19.8 10.2666667,19.637431 10.2666667,19.436311 L10.2666667,8.43035563 C10.2666667,8.22959932 10.4309333,8.06666667 10.6333333,8.06666667 C10.8357333,8.06666667 11,8.22959932 11,8.43035563 L11,19.436311 C11,19.637431 10.8357333,19.8 10.6333333,19.8" id="Fill-9" fill="#231F20" mask="url(#mask-2)"></path>
                    <path d="M15.7666667,19.8 C15.5642667,19.8 15.4,19.637431 15.4,19.436311 L15.4,8.43035563 C15.4,8.22959932 15.5642667,8.06666667 15.7666667,8.06666667 C15.9690667,8.06666667 16.1333333,8.22959932 16.1333333,8.43035563 L16.1333333,19.436311 C16.1333333,19.637431 15.9690667,19.8 15.7666667,19.8" id="Fill-10" fill="#231F20" mask="url(#mask-2)"></path>
                    <path d="M20.1660276,11 L2.56730578,11 C2.36455299,11 2.2,10.8361 2.2,10.6333333 C2.2,10.4305667 2.36455299,10.2666667 2.56730578,10.2666667 L20.1660276,10.2666667 C20.3687803,10.2666667 20.5333333,10.4305667 20.5333333,10.6333333 C20.5333333,10.8361 20.3687803,11 20.1660276,11" id="Fill-11" fill="#231F20" mask="url(#mask-2)"></path>
                    <path d="M20.1660276,14.6666667 L2.56730578,14.6666667 C2.36455299,14.6666667 2.2,14.5027667 2.2,14.3 C2.2,14.0972333 2.36455299,13.9333333 2.56730578,13.9333333 L20.1660276,13.9333333 C20.3687803,13.9333333 20.5333333,14.0972333 20.5333333,14.3 C20.5333333,14.5027667 20.3687803,14.6666667 20.1660276,14.6666667" id="Fill-12" fill="#231F20" mask="url(#mask-2)"></path>
                    <path d="M20.1660276,18.3333333 L2.56730578,18.3333333 C2.36455299,18.3333333 2.2,18.1694333 2.2,17.9666667 C2.2,17.7639 2.36455299,17.6 2.56730578,17.6 L20.1660276,17.6 C20.3687803,17.6 20.5333333,17.7639 20.5333333,17.9666667 C20.5333333,18.1694333 20.3687803,18.3333333 20.1660276,18.3333333" id="Fill-13" fill="#231F20" mask="url(#mask-2)"></path>
                </g>
            </g>
        </g>
    </g>
</svg>