<svg xmlns="http://www.w3.org/2000/svg" width="33" height="30" viewBox="0 -3 34 34">
<g id="ico_categ_construction" transform="translate(-140 -1087)">
<rect width="34" height="34" transform="translate(140 1087)" fill="none"></rect>
<path id="construction" d="M278.2,480a2.826,2.826,0,0,0-2.816-2.829H272.1V472.75a6.266,6.266,0,0,0,1.977-9,6.2,6.2,0,0,0-2.886-2.254l-1.3-.5v4.2l-.9.558-.9-.558V461l-1.3.5a6.262,6.262,0,0,0-.859,11.282v1.3h-4.08l-5.175,4.18h-.675v-1.546H248.8V494h7.194v-1.835L259.5,494h13.914v-.053a66,66,0,0,1,3.157-6.5A581.216,581.216,0,0,0,278.2,480Zm-13.5-12.661a4.346,4.346,0,0,1,1.466-3.242v2.179l2.827,1.754,2.826-1.754V464.1a4.318,4.318,0,0,1-1.071,7.177l-.568.257v5.64h-2.33v-5.625l-.577-.253a4.316,4.316,0,0,1-2.573-3.954Zm-10.628,24.72h-3.341v-13.41h3.341Zm18.807,0h-12.9L256,489.978V480.2h1.354l5.174-4.18H265.9v3.092h9.484a.893.893,0,1,1,0,1.786H269.77v1.936h4.816a.893.893,0,1,1,0,1.786h-5.642v1.936h4.816a.893.893,0,0,1,0,1.786h-5.7v1.936h4.815a.893.893,0,0,1,0,1.784Z" transform="translate(-106.8 626.004)" fill="#5c5c68" fill-rule="evenodd"></path>
</g>
</svg>