<?xml version="1.0" encoding="UTF-8"?>
<svg width="28px" height="36px" viewBox="0 0 28 36" version="1.1" xmlns="http://www.w3.org/2000/svg" xmlns:xlink="http://www.w3.org/1999/xlink">
    <!-- Generator: Sketch 51.2 (57519) - http://www.bohemiancoding.com/sketch -->
    <title>Group 17</title>
    <desc>Created with Sketch.</desc>
    <defs></defs>
    <g id="Page-1" stroke="none" stroke-width="1" fill="none" fill-rule="evenodd">
        <g id="1-tablet" transform="translate(-290.000000, -315.000000)" fill="#FFA602">
            <g id="Group-12-Copy" transform="translate(69.000000, 310.000000)">
                <g id="Group-17" transform="translate(221.000000, 5.000000)">
                    <path d="M1.2173913,34.8 L26.7826087,34.8 L26.7826087,10.4484 L17.4001739,1.2 L1.2173913,1.2 L1.2173913,34.8 Z M27.3913043,36 L0.608695652,36 C0.272695652,36 0,35.7318 0,35.4 L0,0.6 C0,0.2682 0.272695652,0 0.608695652,0 L17.6521739,0 C17.8134783,0 17.9686957,0.063 18.0825217,0.1758 L27.8216522,9.7758 C27.936087,9.888 28,10.0404 28,10.2 L28,35.4 C28,35.7318 27.7273043,36 27.3913043,36 Z" id="Fill-1"></path>
                    <path d="M27.3913043,10.8 L17.6521739,10.8 C17.3161739,10.8 17.0434783,10.5318 17.0434783,10.2 L17.0434783,0.6 L18.2608696,0.6 L18.2608696,9.6 L27.3913043,9.6 L27.3913043,10.8 Z" id="Fill-3"></path>
                    <path d="M21.2514522,15.6 L15.1115391,15.6 C14.7755391,15.6 14.5028435,15.3318 14.5028435,15 C14.5028435,14.6682 14.7755391,14.4 15.1115391,14.4 L21.2514522,14.4 C21.5874522,14.4 21.8601478,14.6682 21.8601478,15 C21.8601478,15.3318 21.5874522,15.6 21.2514522,15.6" id="Fill-5"></path>
                    <path d="M21.2514522,21.6 L15.1115391,21.6 C14.7755391,21.6 14.5028435,21.3318 14.5028435,21 C14.5028435,20.6682 14.7755391,20.4 15.1115391,20.4 L21.2514522,20.4 C21.5874522,20.4 21.8601478,20.6682 21.8601478,21 C21.8601478,21.3318 21.5874522,21.6 21.2514522,21.6" id="Fill-7"></path>
                    <path d="M21.2514522,28.8 L15.1115391,28.8 C14.7755391,28.8 14.5028435,28.5318 14.5028435,28.2 C14.5028435,27.8682 14.7755391,27.6 15.1115391,27.6 L21.2514522,27.6 C21.5874522,27.6 21.8601478,27.8682 21.8601478,28.2 C21.8601478,28.5318 21.5874522,28.8 21.2514522,28.8" id="Fill-9"></path>
                    <path d="M8.20430435,16.33008 C8.04847826,16.33008 7.89265217,16.27128 7.77395652,16.15428 L5.47126087,13.88508 C5.23326087,13.65048 5.23326087,13.27068 5.47126087,13.03668 C5.70865217,12.80208 6.09395652,12.80208 6.33195652,13.03668 L8.20430435,14.88168 L11.6111739,11.52348 C11.8485652,11.28948 12.2338696,11.28948 12.4718696,11.52348 C12.7092609,11.75808 12.7092609,12.13788 12.4718696,12.37188 L8.63465217,16.15428 C8.51595652,16.27128 8.36013043,16.33008 8.20430435,16.33008" id="Fill-11"></path>
                    <path d="M8.20430435,23.13924 C8.04847826,23.13924 7.89265217,23.08044 7.77395652,22.96344 L5.47126087,20.69424 C5.23326087,20.45964 5.23326087,20.07984 5.47126087,19.84584 C5.70865217,19.61124 6.09395652,19.61124 6.33195652,19.84584 L8.20430435,21.69084 L11.6111739,18.33204 C11.8485652,18.09804 12.2338696,18.09804 12.4718696,18.33204 C12.7092609,18.56664 12.7092609,18.94644 12.4718696,19.18044 L8.63465217,22.96344 C8.51595652,23.08044 8.36013043,23.13924 8.20430435,23.13924" id="Fill-13"></path>
                    <path d="M8.20430435,29.94786 C8.04847826,29.94786 7.89265217,29.88906 7.77395652,29.77206 L5.47126087,27.50286 C5.23326087,27.26826 5.23326087,26.88846 5.47126087,26.65446 C5.70865217,26.41986 6.09395652,26.41986 6.33195652,26.65446 L8.20430435,28.49946 L11.6111739,25.14066 C11.8485652,24.90666 12.2338696,24.90666 12.4718696,25.14066 C12.7092609,25.37526 12.7092609,25.75506 12.4718696,25.98906 L8.63465217,29.77206 C8.51595652,29.88906 8.36013043,29.94786 8.20430435,29.94786" id="Fill-15"></path>
                </g>
            </g>
        </g>
    </g>
</svg>