<svg xmlns="http://www.w3.org/2000/svg" xmlns:xlink="http://www.w3.org/1999/xlink" width="79px" height="42px" viewBox="0 0 79 42" version="1.1" class="svg-inject  replaced-svg">
    <!-- Generator: Sketch 49.3 (51167) - http://www.bohemiancoding.com/sketch -->
    <title>Page 1</title>
    <desc>Created with Sketch.</desc>
    <defs></defs>
    <g id="desktop" stroke="none" stroke-width="1" fill="none" fill-rule="evenodd">
        <g id="landing-page-other-partners" transform="translate(-367.000000, -2093.000000)" fill="#000000">
            <g id="Page-1" transform="translate(367.000000, 2093.000000)">
                <path d="M77.6666667,33 L68.3333333,33 C67.596,33 67,32.553 67,32 C67,31.447 67.596,31 68.3333333,31 L77.6666667,31 C78.404,31 79,31.447 79,32 C79,32.553 78.404,33 77.6666667,33" id="Fill-1"></path>
                <path d="M52.68,33 L22.32,33 C21.59004,33 21,32.553 21,32 C21,31.447 21.59004,31 22.32,31 L52.68,31 C53.40996,31 54,31.447 54,32 C54,32.553 53.40996,33 52.68,33" id="Fill-3"></path>
                <path d="M75.6724138,34 C74.9382586,34 74.3448276,33.4154615 74.3448276,32.6923077 L74.3448276,19.6153846 C74.3448276,17.5989231 72.4092069,15.6923077 70.362069,15.6923077 L65.0517241,15.6923077 C64.548569,15.6923077 64.0892241,15.4124615 63.8635345,14.9691538 L57.5933448,2.61538462 L28.6307241,2.61538462 L21.0515345,15.0580769 C20.812569,15.4503846 20.3811034,15.6923077 19.9137931,15.6923077 L6.63793103,15.6923077 C4.5907931,15.6923077 2.65517241,17.5989231 2.65517241,19.6153846 L2.65517241,31.3846154 L6.63793103,31.3846154 C7.37208621,31.3846154 7.96551724,31.9691538 7.96551724,32.6923077 C7.96551724,33.4154615 7.37208621,34 6.63793103,34 L1.32758621,34 C0.593431034,34 0,33.4154615 0,32.6923077 L0,19.6153846 C0,16.133 3.10256897,13.0769231 6.63793103,13.0769231 L19.1623793,13.0769231 L26.741569,0.634230769 C26.9805345,0.241923077 27.412,0 27.8793103,0 L58.4137931,0 C58.9169483,0 59.3762931,0.279846154 59.6019828,0.723153846 L65.8721724,13.0769231 L70.362069,13.0769231 C73.897431,13.0769231 77,16.133 77,19.6153846 L77,32.6923077 C77,33.4154615 76.406569,34 75.6724138,34" id="Fill-5"></path>
                <path d="M28.374395,16 C28.1681615,16 27.9578033,15.95325 27.7611941,15.855625 C27.0819984,15.514625 26.8056455,14.689625 27.1452433,14.010375 L31.2699134,5.760375 C31.5036447,5.29425 31.9793566,5 32.5004399,5 L36.62511,5 C37.3854242,5 38,5.614625 38,6.375 C38,7.135375 37.3854242,7.75 36.62511,7.75 L33.350122,7.75 L29.6062965,15.239625 C29.3643158,15.72225 28.8789796,16 28.374395,16" id="Fill-7"></path>
                <path d="M61,26.5714286 C57.4552857,26.5714286 54.5714286,29.4552857 54.5714286,33 C54.5714286,36.5447143 57.4552857,39.4285714 61,39.4285714 C64.5447143,39.4285714 67.4285714,36.5447143 67.4285714,33 C67.4285714,29.4552857 64.5447143,26.5714286 61,26.5714286 M61,42 C56.0384286,42 52,37.9615714 52,33 C52,28.0384286 56.0384286,24 61,24 C65.9615714,24 70,28.0384286 70,33 C70,37.9615714 65.9615714,42 61,42" id="Fill-9"></path>
                <path d="M14,26.5714286 C10.4552857,26.5714286 7.57142857,29.4552857 7.57142857,33 C7.57142857,36.5447143 10.4552857,39.4285714 14,39.4285714 C17.5447143,39.4285714 20.4285714,36.5447143 20.4285714,33 C20.4285714,29.4552857 17.5447143,26.5714286 14,26.5714286 M14,42 C9.03842857,42 5,37.9615714 5,33 C5,28.0384286 9.03842857,24 14,24 C18.9615714,24 23,28.0384286 23,33 C23,37.9615714 18.9615714,42 14,42" id="Fill-11"></path>
            </g>
        </g>
    </g>
</svg>