<svg xmlns="http://www.w3.org/2000/svg" width="30" height="30" viewBox="38 12 35 35">
<g xmlns="http://www.w3.org/2000/svg" id="ico_categ_sante" transform="translate(40 15)">
<rect width="34" height="34" fill="none"></rect>
<g id="针" transform="translate(1.306 0.442)">
<path id="Path_5178" data-name="Path 5178" d="M.345,5.016a.032.032,0,0,0-.032.032V5.3a.03.03,0,0,0,.032.032h.4A.032.032,0,0,0,.778,5.3V5.048a.03.03,0,0,0-.032-.032h-.4M.345,5h.4a.05.05,0,0,1,.048.048V5.3a.05.05,0,0,1-.048.048h-.4A.05.05,0,0,1,.3,5.3V5.048A.045.045,0,0,1,.345,5Z" transform="translate(30.463 -4.923)" fill="#5c5c68"></path>
<path id="Path_5179" data-name="Path 5179" d="M6.6,10.1H6.5v.016h.1Z" transform="translate(24.46 -9.858)" fill="#5c5c68"></path>
<path id="Path_5180" data-name="Path 5180" d="M5.781,2.8H5.765v.1h.016Zm-.048-.184a.015.015,0,0,0-.016.016v.045h.113V2.632a.015.015,0,0,0-.016-.016H5.732m0-.016h.081a.03.03,0,0,1,.032.032v.061H5.7V2.632A.032.032,0,0,1,5.732,2.6Z" transform="translate(25.237 -2.6)" fill="#5c5c68"></path>
<path id="Path_5181" data-name="Path 5181" d="M692.872,91.626l-3.249,3.249,1.629,1.629,3.249-3.249-1.629-1.629m.116-1.526,3.039,3.039-4.888,4.888L688.1,94.988Z" transform="translate(-686.959 -87.277)" fill="#5c5c68"></path>
<path id="Path_5182" data-name="Path 5182" d="M86.179,66.4l-.7-.7-8.153,8.153.7.7Zm-3.131-1.54-1.006-.98-6.561,6.561,1.006.98Zm21.255,27L99.47,85.769l-1.98,1.868,5.995,5.042Z" transform="translate(-75.482 -62.17)" fill="#5c5c68"></path>
<path id="Path_5183" data-name="Path 5183" d="M179.243,138.123l-4.385,4.562,15.524,15.524c.236.113,1.053-.087,2.608-1.69,1.481-1.526,1.878-2.687,1.774-2.875l-6.407-6.407-9.114-9.114m.116-1.523,9.817,9.817,6.407,6.407c1.674,1.674-4.891,8.23-6.559,6.559l-6.407-6.407-9.817-9.817Z" transform="translate(-170.163 -132.277)" fill="#5c5c68" stroke="#5c5c68" stroke-width="0.3"></path>
<path id="Path_5184" data-name="Path 5184" d="M336.751,331.478l-.7-.7-3.3,3.3.7.7Zm-2.11-2.111-.7-.7-3.3,3.3.7.7Zm-2.114-2.111-.7-.7-3.3,3.3.7.7Zm-2.112-2.114-.7-.7-3.3,3.3.7.7Z" transform="translate(-316.015 -314.054)" fill="#5c5c68"></path>
</g>
<path id="baojian" d="M22.786,11.179l-3.727,3.941-4.646,4.353L11.518,22.34a6.654,6.654,0,0,1-9.348,0,6.5,6.5,0,0,1,0-9.261L5.056,10.22l4.607-4.5,3.773-3.8a6.653,6.653,0,0,1,9.348,0,6.5,6.5,0,0,1,0,9.26ZM3.03,13.931a5.308,5.308,0,0,0,0,7.557,5.429,5.429,0,0,0,7.628,0L13.249,18.9l1.163.569,4.646-4.353-9.394-9.4-4.607,4.5.095,1.61ZM21.925,2.77a5.429,5.429,0,0,0-7.628,0l-3.78,3.778,7.712,7.382,3.7-3.6a5.307,5.307,0,0,0,0-7.556ZM8.509,20.8a.672.672,0,0,1,0-.956.688.688,0,0,1,.966,0,.671.671,0,0,1,0,.957A.686.686,0,0,1,8.509,20.8Zm-.938-2.852a.689.689,0,0,1-.966,0,.67.67,0,0,1,0-.956.687.687,0,0,1,.966,0A.674.674,0,0,1,7.571,17.947ZM5.639,19.862a.689.689,0,0,1-.966,0,.672.672,0,0,1,0-.957.688.688,0,0,1,.966,0A.673.673,0,0,1,5.639,19.862ZM3.75,16.076a.673.673,0,0,1,0-.957.687.687,0,0,1,.966,0,.671.671,0,0,1,0,.957A.687.687,0,0,1,3.75,16.076Z" transform="translate(5.007 4.758)" fill="#5c5c68" stroke="#5c5c68" stroke-width="0.6"></path>
<path id="Path_5185" data-name="Path 5185" d="M3.036,0,5.5,2.119,1.6,6.659,0,5.212Z" transform="translate(19.055 18.135) rotate(3)" fill="#fff"></path>
<path id="Path_5186" data-name="Path 5186" d="M2.888-1.166,3.962-.114-.4,4.048l-.746-.711Z" transform="translate(10.987 11.155)" fill="#fff"></path>
</g>
</svg>