<svg xmlns="http://www.w3.org/2000/svg" width="34" height="34" viewBox="0 0 34 34">
<g id="ico_categ_all" transform="translate(-140 -1087)">
<rect id="矩形_3112" data-name="矩形 3112" width="34" height="34" transform="translate(140 1087)" fill="none"></rect>
<g id="目录" transform="translate(-32.78 918.922)">
<path id="路径_5199" data-name="路径 5199" d="M329.928,312.873h-9.681a.222.222,0,0,1-.222-.222v-1.638a.222.222,0,0,1,.222-.222h9.684a.222.222,0,0,1,.222.222v1.638A.228.228,0,0,1,329.928,312.873Zm0,13.264h-9.681a.222.222,0,0,1-.222-.222v-1.634a.222.222,0,0,1,.222-.222h9.684a.222.222,0,0,1,.222.222v1.634A.23.23,0,0,1,329.928,326.138Zm0-6.611h-9.681a.222.222,0,0,1-.222-.222v-1.638a.222.222,0,0,1,.222-.222h9.684a.222.222,0,0,1,.222.222v1.638A.228.228,0,0,1,329.928,319.527Z" transform="translate(-132.534 -133.207)" fill="#5c5c68"></path>
<path id="路径_5200" data-name="路径 5200" d="M202.977,187.016V174.943a3.71,3.71,0,0,0-.545-1.805,2.757,2.757,0,0,0-2.5-1.237H189.779a.035.035,0,0,0-.019,0h-9.821a2.976,2.976,0,0,0-3.039,3.039l0,8.3v12.081a3.711,3.711,0,0,0,.541,1.8,2.757,2.757,0,0,0,2.5,1.237H190.1a.035.035,0,0,0,.019,0h9.817a2.976,2.976,0,0,0,3.039-3.039l0-8.3Zm-1.517,8.311a1.526,1.526,0,0,1-1.514,1.517h-20l-.148-.012a1.983,1.983,0,0,1-.93-.455,1.922,1.922,0,0,1-.455-1.016v-.027l0-20.4a1.526,1.526,0,0,1,1.514-1.517h20l.144.012a1.983,1.983,0,0,1,.93.455,1.913,1.913,0,0,1,.455,1.012.066.066,0,0,0,0,.027Z" transform="translate(0)" fill="#5c5c68"></path>
<circle id="椭圆_628" data-name="椭圆 628" cx="1.5" cy="1.5" r="1.5" transform="translate(182.38 177.078)" fill="#5c5c68"></circle>
<circle id="椭圆_629" data-name="椭圆 629" cx="1.5" cy="1.5" r="1.5" transform="translate(182.38 183.378)" fill="#5c5c68"></circle>
<circle id="椭圆_630" data-name="椭圆 630" cx="1.5" cy="1.5" r="1.5" transform="translate(182.38 190.078)" fill="#5c5c68"></circle>
</g>
</g>
</svg>