<svg xmlns="http://www.w3.org/2000/svg" width="30" height="30" viewBox="12 12 35 35">
<g xmlns="http://www.w3.org/2000/svg" id="ico_categ_communication" transform="translate(16 15)">
<rect id="Rectangle_3111-6" data-name="Rectangle 3111" width="34" height="34" fill="none"></rect>
<path id="communication-2" data-name="communication" d="M262.5,2419.37a13.431,13.431,0,0,0-13.475,13.36v5.32a4.469,4.469,0,0,0,4.492,4.43h4.492v-12.41h-4.492a4.515,4.515,0,0,0-2.54.78,11.693,11.693,0,0,1,23.047,0,4.517,4.517,0,0,0-2.54-.78h-4.492v12.41h4.492a4.5,4.5,0,0,0,2.7-.89v1.83a2.679,2.679,0,0,1-2.7,2.66H265.04a2.66,2.66,0,1,0,0,1.78h6.443a4.469,4.469,0,0,0,4.491-4.44v-10.69a13.431,13.431,0,0,0-13.474-13.36Zm-8.085,12.47h1.8v8.86h-1.8Zm-1.8.15v8.56a2.657,2.657,0,0,1-1.8-2.5v-3.55a2.67,2.67,0,0,1,1.8-2.51Zm17.967,8.71h-1.8v-8.86h1.8Zm-8.086,7.16a.89.89,0,1,1,.9-.89.9.9,0,0,1-.9.89Zm11.679-9.81a2.658,2.658,0,0,1-1.8,2.5v-8.56a2.671,2.671,0,0,1,1.8,2.51Z" transform="translate(-245.025 -2417.37)" fill="#5c5c68" fill-rule="evenodd"></path>
</g>
</svg>