<svg xmlns="http://www.w3.org/2000/svg" width="33" height="30" viewBox="0 -3 34 34">
<g transform="translate(-140 -644)">
<rect width="34" height="34" transform="translate(140 644)" fill="none"></rect>
<path id="jiqiren" d="M76.158,147.052H74.768v-2.2a.732.732,0,0,0-.732-.732H71.109a.732.732,0,0,0-.732.732v2.2H68.86a5.13,5.13,0,0,0-5.07-4.391H62.619s-.005-4.85-.015-4.9a3.834,3.834,0,0,0-1.11-3.028l-3.868-3.868,4.58-4.58a3.1,3.1,0,0,0,.553-.75H67.3a.732.732,0,0,0,.732-.732v-.732h1.708v.733a.732.732,0,0,0,.366.634l2.537,1.465a.731.731,0,0,0,.732,0l2.537-1.465a.732.732,0,0,0-.732-1.268l-2.171,1.253-1.805-1.042V122.3l1.805-1.042,2.171,1.253a.732.732,0,1,0,.732-1.268l-2.537-1.465a.732.732,0,0,0-.732,0l-2.537,1.465a.732.732,0,0,0-.366.634v.733H68.035v-.732a.732.732,0,0,0-.732-.732H61.014a3.114,3.114,0,0,0-3.207.742l-5.324,5.324a4.206,4.206,0,0,0-1.765,7.524,3.849,3.849,0,0,0,.446.535l4.008,4.008v3.382h-.895a5.13,5.13,0,0,0-5.07,4.391,19.8,19.8,0,0,1-2.605,0,.732.732,0,0,0,0,1.464H76.158a.732.732,0,0,0,0-1.464Zm-9.587-24.443v1.464H63.115a3.113,3.113,0,0,0-.372-1.464Zm-7.729.314a1.647,1.647,0,1,1,2.329,2.329l-4.2,4.2a4.227,4.227,0,0,0-2.532-2.125Zm-8.368,8.432a2.744,2.744,0,1,1,2.744,2.744A2.748,2.748,0,0,1,50.474,131.354Zm3.039,4.2a4.216,4.216,0,0,0,3.737-2.991l3.21,3.21a2.378,2.378,0,0,1-3.364,3.364Zm7.643,4.917v2.193H56.635v-2.021a3.847,3.847,0,0,0,4.521-.173Zm-10.465,6.584a3.666,3.666,0,0,1,3.586-2.927H63.79a3.666,3.666,0,0,1,3.586,2.927Zm22.613,0H71.84v-1.464H73.3Zm-20.086-16.43a.732.732,0,1,0,.732.732A.733.733,0,0,0,53.218,130.623Z" transform="translate(95.264 526.723)" fill="#5c5c68"></path>
</g>
</svg>