<?xml version="1.0" encoding="UTF-8"?>
<svg width="46px" height="21px" viewBox="0 0 46 21" version="1.1" xmlns="http://www.w3.org/2000/svg" xmlns:xlink="http://www.w3.org/1999/xlink">
    <!-- Generator: Sketch 51.2 (57519) - http://www.bohemiancoding.com/sketch -->
    <title>Group 16</title>
    <desc>Created with Sketch.</desc>
    <defs>
        <polygon id="path-1" points="0.400341094 0 36.2427213 0 36.2427213 21 0.400341094 21"></polygon>
    </defs>
    <g id="Page-1" stroke="none" stroke-width="1" fill="none" fill-rule="evenodd">
        <g id="1-tablet" transform="translate(-484.000000, -318.000000)">
            <g id="Group-12-Copy" transform="translate(69.000000, 310.000000)">
                <g id="Group-16" transform="translate(415.000000, 8.000000)">
                    <g id="Group-3" transform="translate(9.049180, 0.000000)">
                        <mask id="mask-2" fill="white">
                            <use xlink:href="#path-1"></use>
                        </mask>
                        <g id="Clip-2"></g>
                        <path d="M10.557377,1.5 C8.9217377,1.5 8.11108197,2.6805 7.39695082,4.4535 L2.07377049,17.69175 C1.85206557,18.243 1.85131148,18.74625 2.07377049,19.07175 C2.31432787,19.42575 2.75622951,19.5 3.0842623,19.5 L25.9040328,19.5 C27.1731803,19.5 28.681377,18.417 29.1979344,17.1345 L34.5218689,3.8955 C34.8106885,3.1785 34.806918,2.4645 34.5128197,2.0325 C34.2722623,1.67925 33.8243279,1.5 33.1803279,1.5 L10.557377,1.5 Z M25.9040328,21 L3.0842623,21 C2.10393443,21 1.30157377,20.61375 0.824229508,19.91325 C0.31747541,19.1685 0.26242623,18.15525 0.673409836,17.1345 L5.99659016,3.8955 C6.46639344,2.73 7.56586885,0 10.557377,0 L33.1803279,0 C34.6432787,0 35.3920984,0.648 35.7616066,1.191 C36.3407541,2.043 36.401082,3.2625 35.9222295,4.45275 L30.5982951,17.69175 C29.8509836,19.5465 27.7892787,21 25.9040328,21 Z" id="Fill-1" fill="#FFA602" mask="url(#mask-2)"></path>
                    </g>
                    <path d="M26.586718,13.434825 C26.3883902,13.434825 26.1923246,13.356825 26.0467836,13.208325 L18.6294721,5.643075 C18.3383902,5.346825 18.344423,4.872075 18.6422918,4.582575 C18.9401607,4.293825 19.418259,4.299825 19.7085869,4.596075 L26.7217016,11.748075 L39.7170787,4.466325 C40.0790459,4.263075 40.5398,4.390575 40.7434066,4.751325 C40.9477672,5.112075 40.8203246,5.570325 40.4568492,5.772825 L26.9562262,13.338075 C26.8400951,13.403325 26.7126525,13.434825 26.586718,13.434825" id="Fill-4" fill="#FFA602"></path>
                    <path d="M14.328623,18 C14.099377,18 13.8731475,17.8965 13.7245902,17.7 C13.4749836,17.3685 13.5420984,16.89825 13.8754098,16.65 L19.9081967,12.15 C20.2430164,11.901 20.7143279,11.96925 20.9639344,12.3 C21.213541,12.6315 21.1464262,13.10175 20.8131148,13.35 L14.7803279,17.85 C14.6445902,17.952 14.4854754,18 14.328623,18" id="Fill-6" fill="#FFA602"></path>
                    <path d="M35.443377,18 C35.1998033,18 34.9607541,17.883 34.8152131,17.66625 L31.7988197,13.16625 C31.5680656,12.82125 31.6615738,12.3555 32.0077049,12.126 C32.3545902,11.895 32.8221311,11.9895 33.0536393,12.33375 L36.0700328,16.83375 C36.3007869,17.17875 36.2072787,17.6445 35.8611475,17.874 C35.7321967,17.9595 35.5866557,18 35.443377,18" id="Fill-8" fill="#FFA602"></path>
                    <path d="M10.557377,1.5 L0.754098361,1.5 C0.337836066,1.5 0,1.164 0,0.75 C0,0.336 0.337836066,0 0.754098361,0 L10.557377,0 C10.9736393,0 11.3114754,0.336 11.3114754,0.75 C11.3114754,1.164 10.9736393,1.5 10.557377,1.5" id="Fill-10" fill="#FFA602"></path>
                    <path d="M4.52459016,19.5 L0.754098361,19.5 C0.337836066,19.5 0,19.164 0,18.75 C0,18.336 0.337836066,18 0.754098361,18 L4.52459016,18 C4.94085246,18 5.27868852,18.336 5.27868852,18.75 C5.27868852,19.164 4.94085246,19.5 4.52459016,19.5" id="Fill-12" fill="#FFA602"></path>
                    <path d="M6.4591541,10.5 L0.7544,10.5 C0.337383607,10.5 0.000301639344,10.164 0.000301639344,9.75 C0.000301639344,9.336 0.337383607,9 0.7544,9 L6.4591541,9 C6.87541639,9 7.21325246,9.336 7.21325246,9.75 C7.21325246,10.164 6.87541639,10.5 6.4591541,10.5" id="Fill-14" fill="#FFA602"></path>
                </g>
            </g>
        </g>
    </g>
</svg>