<?xml version="1.0" encoding="UTF-8"?>
<svg width="86px" height="40px" viewBox="0 0 86 40" version="1.1" xmlns="http://www.w3.org/2000/svg" xmlns:xlink="http://www.w3.org/1999/xlink">
    <!-- Generator: Sketch 51.2 (57519) - http://www.bohemiancoding.com/sketch -->
    <title>Group 16 Copy</title>
    <desc>Created with Sketch.</desc>
    <defs></defs>
    <g id="Page-1" stroke="none" stroke-width="1" fill="none" fill-rule="evenodd">
        <g id="3" transform="translate(-137.000000, -145.000000)" fill="#FFA602">
            <g id="Group-16-Copy" transform="translate(137.000000, 145.000000)">
                <path d="M37.1256831,2.85714286 C34.0285443,2.85714286 32.4935401,5.10571429 31.1413085,8.48285714 L21.0616856,33.6985714 C20.6418798,34.7485714 20.6404519,35.7071429 21.0616856,36.3271429 C21.5171892,37.0014286 22.3539449,37.1428571 22.9750862,37.1428571 L66.1850975,37.1428571 C68.5882715,37.1428571 71.4440933,35.08 72.4222123,32.6371429 L82.5032631,7.42 C83.050153,6.05428571 83.0430135,4.69428571 82.4861282,3.87142857 C82.0306246,3.19857143 81.1824456,2.85714286 79.9630097,2.85714286 L37.1256831,2.85714286 Z M66.1850975,40 L22.9750862,40 C21.118802,40 19.5995048,39.2642857 18.6956372,37.93 C17.7360811,36.5114286 17.6318436,34.5814286 18.4100551,32.6371429 L28.489678,7.42 C29.3792665,5.2 31.4611606,0 37.1256831,0 L79.9630097,0 C82.7331568,0 84.1510723,1.23428571 84.8507486,2.26857143 C85.9473842,3.89142857 86.0616171,6.21428571 85.1548937,8.48142857 L75.0738428,33.6985714 C73.6587831,37.2314286 69.7548747,40 66.1850975,40 Z" id="Fill-1"></path>
                <path d="M50.3428546,25.5901429 C49.967314,25.5901429 49.5960572,25.4415714 49.3204704,25.1587143 L35.2755389,10.7487143 C34.7243653,10.1844286 34.7357886,9.28014286 35.2998134,8.72871429 C35.8638382,8.17871429 36.7691337,8.19014286 37.3188794,8.75442857 L50.5984507,22.3772857 L75.205639,8.50728571 C75.8910362,8.12014286 76.7634897,8.363 77.1490257,9.05014286 C77.5359895,9.73728571 77.2946726,10.6101429 76.6064195,10.9958571 L51.0425309,25.4058571 C50.8226327,25.5301429 50.5813157,25.5901429 50.3428546,25.5901429" id="Fill-4"></path>
                <path d="M27.1317348,34.2857143 C26.6976499,34.2857143 26.2692766,34.0885714 25.9879781,33.7142857 C25.5153396,33.0828571 25.6424237,32.1871429 26.2735603,31.7142857 L37.6968474,23.1428571 C38.3308398,22.6685714 39.2232842,22.7985714 39.6959227,23.4285714 C40.1685612,24.06 40.0414771,24.9557143 39.4103405,25.4285714 L27.9870534,34 C27.7300294,34.1942857 27.4287402,34.2857143 27.1317348,34.2857143" id="Fill-6"></path>
                <path d="M67.1132396,34.2857143 C66.6520244,34.2857143 66.1993766,34.0628571 65.9237898,33.65 L60.2121463,25.0785714 C59.7752055,24.4214286 59.9522665,23.5342857 60.6076776,23.0971429 C61.2645166,22.6571429 62.1498214,22.8371429 62.58819,23.4928571 L68.2998335,32.0642857 C68.7367743,32.7214286 68.5597133,33.6085714 67.9043022,34.0457143 C67.6601295,34.2085714 67.3845427,34.2857143 67.1132396,34.2857143" id="Fill-8"></path>
                <path d="M19.9907524,2.85714286 L1.42791089,2.85714286 C0.639704077,2.85714286 0,2.21714286 0,1.42857143 C0,0.64 0.639704077,0 1.42791089,0 L19.9907524,0 C20.7789592,0 21.4186633,0.64 21.4186633,1.42857143 C21.4186633,2.21714286 20.7789592,2.85714286 19.9907524,2.85714286" id="Fill-10"></path>
                <path d="M8.56746532,37.1428571 L1.42791089,37.1428571 C0.639704077,37.1428571 0,36.5028571 0,35.7142857 C0,34.9257143 0.639704077,34.2857143 1.42791089,34.2857143 L8.56746532,34.2857143 C9.35567213,34.2857143 9.99537621,34.9257143 9.99537621,35.7142857 C9.99537621,36.5028571 9.35567213,37.1428571 8.56746532,37.1428571" id="Fill-12"></path>
                <path d="M12.2306279,20 L1.42848205,20 C0.638847331,20 0.000571164355,19.36 0.000571164355,18.5714286 C0.000571164355,17.7828571 0.638847331,17.1428571 1.42848205,17.1428571 L12.2306279,17.1428571 C13.0188347,17.1428571 13.6585388,17.7828571 13.6585388,18.5714286 C13.6585388,19.36 13.0188347,20 12.2306279,20" id="Fill-14"></path>
            </g>
        </g>
    </g>
</svg>