<svg xmlns="http://www.w3.org/2000/svg" xmlns:xlink="http://www.w3.org/1999/xlink" width="68px" height="68px" viewBox="0 0 68 68" version="1.1" class="svg  replaced-svg">
    <!-- Generator: Sketch 49.3 (51167) - http://www.bohemiancoding.com/sketch -->
    <title>Page 1</title>
    <desc>Created with Sketch.</desc>
    <defs>
        <polygon id="path-1" points="0 0.00164904863 47.9573322 0.00164904863 47.9573322 48 0 48"></polygon>
        <polygon id="path-3" points="0.428586667 0.000336 27.53184 0.000336 27.53184 27.659856 0.428586667 27.659856"></polygon>
    </defs>
    <g id="desktop" stroke="none" stroke-width="1" fill="none" fill-rule="evenodd">
        <g id="landing-page-other-partners" transform="translate(-822.000000, -2319.000000)">
            <g id="Page-1" transform="translate(822.000000, 2319.000000)">
                <path d="M23.5,36.2183304 C19.4848219,36.2183304 16.2183304,39.4848219 16.2183304,43.4988908 C16.2183304,47.5151781 19.4848219,50.7816696 23.5,50.7816696 C27.5151781,50.7816696 30.7816696,47.5151781 30.7816696,43.4988908 C30.7816696,39.4848219 27.5151781,36.2183304 23.5,36.2183304 M23.5,53 C18.2614127,53 14,48.7374781 14,43.4988908 C14,38.2614127 18.2614127,34 23.5,34 C28.7385873,34 33,38.2614127 33,43.4988908 C33,48.7374781 28.7385873,53 23.5,53" id="Fill-1" fill="#231F20"></path>
                <path d="M54.5,11.3002928 C52.7360443,11.3002928 51.2998118,12.7356754 51.2998118,14.4988499 C51.2998118,16.2631744 52.7360443,17.6997072 54.5,17.6997072 C56.2639557,17.6997072 57.7001882,16.2631744 57.7001882,14.4988499 C57.7001882,12.7356754 56.2639557,11.3002928 54.5,11.3002928 M54.5,20 C51.4676981,20 49,17.532936 49,14.4988499 C49,11.467064 51.4676981,9 54.5,9 C57.5323019,9 60,11.467064 60,14.4988499 C60,17.532936 57.5323019,20 54.5,20" id="Fill-3" fill="#231F20"></path>
                <g id="Group-7" transform="translate(0.000000, 20.000000)">
                    <mask id="mask-2" fill="white">
                        <use xlink:href="#path-1"></use>
                    </mask>
                    <g id="Clip-6"></g>
                    <path d="M19.5553066,45.7167019 L28.7878224,45.7167019 L28.7878224,41.6295983 C28.7878224,41.1204228 29.1257505,40.6728964 29.6166596,40.5324736 C32.2207611,39.7904017 33.9229598,38.5756871 35.8260888,36.8575053 C36.1971247,36.5264271 36.739408,36.4693446 37.1675264,36.7193658 L40.6655391,38.7640592 L45.2572516,30.7747992 L41.706723,28.7289641 C41.2786047,28.4823679 41.0582664,27.9880338 41.1598732,27.5039746 C41.4121776,26.315518 41.5389006,25.0779704 41.5389006,23.826723 C41.5389006,22.6142918 41.4064693,21.3778858 41.1461734,20.1506131 C41.0434249,19.6676956 41.2637632,19.1733615 41.6918816,18.924482 L45.229852,16.8809302 L40.6198732,8.89395349 L37.1698097,10.9329387 C36.7405497,11.1886681 36.1925581,11.1350106 35.8226638,10.7970825 C33.9252431,9.08004228 32.2264693,7.86761099 29.6166596,7.12553911 C29.1268922,6.98625793 28.7878224,6.5387315 28.7878224,6.02727273 L28.7878224,2.28494715 L19.5553066,2.28494715 L19.5553066,6.02727273 C19.5553066,6.5387315 19.2162368,6.98625793 18.7253277,7.12553911 C16.3244397,7.80824524 14.4064693,8.90651163 12.312685,10.7982241 C11.945074,11.1293023 11.4073573,11.1886681 10.9803805,10.9432135 L7.36820296,8.8779704 L2.72625793,16.8832135 L6.25281184,18.9256237 C6.68093023,19.1733615 6.90012685,19.6676956 6.79737844,20.1506131 C6.5359408,21.3858774 6.40236786,22.6222833 6.40236786,23.826723 C6.40236786,25.0608457 6.53251586,26.2983932 6.78824524,27.502833 C6.89213531,27.9868922 6.67179704,28.4812262 6.242537,28.7289641 L2.70114165,30.7736575 L7.322537,38.7800423 L10.9860888,36.7102326 C11.4142072,36.4670613 11.9484989,36.529852 12.312685,36.8575053 C14.404186,38.7480761 16.3221564,39.8463425 18.7264693,40.5324736 C19.2173784,40.6728964 19.5553066,41.1204228 19.5553066,41.6295983 L19.5553066,45.7167019 Z M29.9294715,48 L18.4136575,48 C17.7834672,48 17.2720085,47.4896829 17.2720085,46.858351 L17.2720085,42.469852 C15.142833,41.7551797 13.2830867,40.6854545 11.405074,39.0962791 L7.45953488,41.324778 C6.91382664,41.6295983 6.22312896,41.4435095 5.90917548,40.9012262 L0.152980973,30.9266385 C-0.162114165,30.3797886 0.0251162791,29.682241 0.570824524,29.3671459 L4.39877378,27.1569133 C4.21268499,26.0586469 4.11906977,24.9421142 4.11906977,23.826723 C4.11906977,22.73074 4.21610994,21.6142072 4.40676533,20.4953911 L0.593657505,18.2874419 C0.332219873,18.1356025 0.140422833,17.8855814 0.0627906977,17.5933192 C-0.0159830867,17.2999154 0.0262579281,16.9882452 0.178097252,16.725666 L5.96169133,6.75107822 C6.27678647,6.20879493 6.96862579,6.02042283 7.51547569,6.33323467 L11.4073573,8.55602537 C13.2876533,6.96799154 15.1473996,5.89940803 17.2720085,5.18587738 L17.2720085,1.1432981 C17.2720085,0.511966173 17.7834672,0.00164904863 18.4136575,0.00164904863 L29.9294715,0.00164904863 C30.5596617,0.00164904863 31.0711205,0.511966173 31.0711205,1.1432981 L31.0711205,5.18816068 C33.3578436,5.96562368 35.0520507,7.10498943 36.7222833,8.54460888 L40.4509091,6.34236786 C40.7123467,6.18710359 41.0251586,6.14029598 41.3208457,6.22021142 C41.6165328,6.29784355 41.8676956,6.48964059 42.0206765,6.75336152 L47.7780127,16.7279493 C48.0931078,17.2747992 47.9058774,17.9723467 47.3601691,18.2885835 L43.5367865,20.4965328 C43.7263002,21.6084989 43.8221987,22.7250317 43.8221987,23.826723 C43.8221987,24.952389 43.7308668,26.0677801 43.5493446,27.1557717 L47.3852854,29.3671459 C47.9309937,29.6810994 48.1193658,30.3775053 47.8054123,30.9243552 L42.0731924,40.8989429 C41.9213531,41.1638055 41.6701903,41.3556025 41.3767865,41.435518 C41.0810994,41.5131501 40.7705708,41.4697674 40.5068499,41.3167865 L36.7279915,39.1076956 C35.0520507,40.5495983 33.3555603,41.6901057 31.0711205,42.4687104 L31.0711205,46.858351 C31.0711205,47.4896829 30.5596617,48 29.9294715,48 Z" id="Fill-5" fill="#231F20" mask="url(#mask-2)"></path>
                </g>
                <g id="Group-10" transform="translate(40.000000, 0.000000)">
                    <mask id="mask-4" fill="white">
                        <use xlink:href="#path-3"></use>
                    </mask>
                    <g id="Clip-9"></g>
                    <path d="M12.46448,25.419856 L15.87264,25.419856 L15.87264,23.300816 C15.87264,22.812496 16.1896,22.380176 16.65552,22.233456 C17.90432,21.840336 19.0904,21.133616 20.08384,20.192816 C20.4456,19.851216 20.99104,19.789616 21.42224,20.041616 L23.20304,21.092176 L24.88528,18.152176 L23.0328,17.088176 C22.60272,16.840656 22.38656,16.341136 22.5008,15.858416 C22.65536,15.207696 22.73264,14.524496 22.73264,13.828976 C22.73264,13.170416 22.65088,12.489456 22.48736,11.801776 C22.37312,11.320176 22.58928,10.820656 23.01712,10.573136 L24.85616,9.512496 L23.1616,6.574736 L21.4256,7.614096 C20.9944,7.870576 20.44448,7.810096 20.08048,7.466256 C19.09376,6.532176 17.9088,5.825456 16.65328,5.425616 C16.18848,5.277776 15.87264,4.846576 15.87264,4.358256 L15.87264,2.240336 L12.46448,2.240336 L12.46448,4.361616 C12.46448,4.852176 12.14752,5.283376 11.6816,5.428976 C10.27376,5.874736 8.95328,6.617296 8.05616,7.466256 C7.7,7.804496 7.1624,7.870576 6.73344,7.627536 L4.8328,6.548976 L3.10576,9.515856 L4.93248,10.574256 C5.36032,10.822896 5.57536,11.321296 5.46112,11.804016 C5.292,12.514096 5.20912,13.176016 5.20912,13.828976 C5.20912,14.497616 5.29088,15.179696 5.45104,15.857296 C5.5664,16.340016 5.35024,16.839536 4.92128,17.087056 L3.07888,18.148816 L4.79024,21.115696 L6.73792,20.029296 C7.16464,19.789616 7.69888,19.856816 8.05392,20.193936 C8.95328,21.046256 10.27488,21.788816 11.6816,22.233456 C12.14752,22.380176 12.46448,22.812496 12.46448,23.300816 L12.46448,25.419856 Z M16.99264,27.659856 L11.34448,27.659856 C10.72624,27.659856 10.22448,27.160336 10.22448,26.539856 L10.22448,24.092656 C9.08992,23.651376 8.02144,23.052176 7.14784,22.364496 L4.91792,23.609936 C4.38256,23.905616 3.70832,23.720816 3.40256,23.192176 L0.57792,18.298896 C0.43008,18.041296 0.38976,17.735536 0.46704,17.448816 C0.5432,17.160976 0.73136,16.916816 0.98896,16.767856 L3.108,15.547056 C3.01504,14.973616 2.96912,14.397936 2.96912,13.828976 C2.96912,13.271216 3.01728,12.695536 3.11472,12.109776 L1.01136,10.891216 C0.75376,10.743376 0.5656,10.496976 0.48944,10.210256 C0.41328,9.922416 0.45472,9.616656 0.6048,9.359056 L3.45408,4.465776 C3.76096,3.934896 4.43744,3.750096 4.97392,4.054736 L7.15456,5.291216 C8.02704,4.608016 9.09216,4.012176 10.22448,3.569776 L10.22448,1.120336 C10.22448,0.500976 10.72624,0.000336 11.34448,0.000336 L16.99264,0.000336 C17.612,0.000336 18.11264,0.500976 18.11264,1.120336 L18.11264,3.573136 C19.13632,3.988656 20.10512,4.565456 20.97536,5.274416 L22.988,4.069296 C23.24448,3.911376 23.55248,3.868816 23.84368,3.944976 C24.13488,4.021136 24.3824,4.209296 24.53248,4.469136 L27.35712,9.362416 C27.50496,9.620016 27.54528,9.925776 27.468,10.212496 C27.39184,10.500336 27.20368,10.743376 26.9472,10.892336 L24.83152,12.112016 C24.9256,12.692176 24.97264,13.265616 24.97264,13.828976 C24.97264,14.409136 24.92896,14.983696 24.84272,15.544816 L26.97072,16.766736 C27.50608,17.075856 27.69088,17.757936 27.384,18.294416 L24.58512,23.187696 C24.43616,23.447536 24.18976,23.637936 23.89968,23.715216 C23.61072,23.791376 23.3016,23.749936 23.044,23.596496 L20.98208,22.382416 C20.10736,23.095856 19.1352,23.672656 18.11264,24.088176 L18.11264,26.539856 C18.11264,27.160336 17.612,27.659856 16.99264,27.659856 Z" id="Fill-8" fill="#231F20" mask="url(#mask-4)"></path>
                </g>
            </g>
        </g>
    </g>
</svg>