<svg xmlns="http://www.w3.org/2000/svg" width="30" height="30" viewBox="38 12 35 35">
<g xmlns="http://www.w3.org/2000/svg" id="ico_categ_services" transform="translate(40 15)">
<rect width="34" height="34" fill="none"></rect>
<g id="服务" transform="translate(2.479 3.386)">
<path id="Path_5187" data-name="Path 5187" d="M194.36,71.987h0a26.4,26.4,0,0,0,4.538-1.271c.182.182.363.545.545.545h2.9c.182,0,.545-.182.545-.363a17.133,17.133,0,0,0,4.175,1.089h.545a2.536,2.536,0,0,0,2.36-2V66c.182-1.089-1.271-2-2.178-2h-.363a16.048,16.048,0,0,0-4.356.908A1.177,1.177,0,0,0,201.984,64h-2.36c-.363,0-.726.545-.726.726v.182A17.419,17.419,0,0,0,194.541,64h0c-1.089,0-2.541.908-2.541,2v4.175C192,71.079,193.452,71.987,194.36,71.987Zm12.888-6.535a.466.466,0,0,1,.363,0,.647.647,0,0,1,.182.363V69.99s0,.272-.182.363a1.04,1.04,0,0,1-.545,0c-1.089-.182-2.36-.726-4.175-1.271V66.9C204.706,66.36,205.977,65.815,207.248,65.452Zm-5.446.726v3.086H200.35V66.178ZM193.815,66a.944.944,0,0,1,.306-.545.846.846,0,0,1,.6,0,45.323,45.323,0,0,0,4.538,1.452v2.36c-1.815.363-3.267.908-4.538,1.271a.846.846,0,0,1-.6,0,.944.944,0,0,1-.306-.545Z" transform="translate(-186.554 -64)" fill="#5c5c68"></path>
<path id="Path_5188" data-name="Path 5188" d="M28.317,278.958l-2-1.452a1.587,1.587,0,0,0-2.36.545L14.521,293.48H14.34l-9.62-15.066a1.526,1.526,0,0,0-2-.726l-1.634.726A1.38,1.38,0,0,0,0,279.866v12.706a5.814,5.814,0,0,0,5.627,5.809H23.234a5.973,5.973,0,0,0,5.809-5.809V280.411A2.241,2.241,0,0,0,28.317,278.958Zm-1.089,13.614a4.029,4.029,0,0,1-3.993,3.993H5.627a3.766,3.766,0,0,1-3.812-3.993V279.866a.3.3,0,0,1,.157-.272l1.476-.635h0l9.439,15.248a1.84,1.84,0,0,0,1.546.756,2.063,2.063,0,0,0,1.359-.756L25.231,278.6c0-.181.182,0,.182,0l1.815,1.634v12.343Z" transform="translate(0 -271.153)" fill="#5c5c68"></path>
<path id="Path_5189" data-name="Path 5189" d="M789.378,595.2h-1.452a.726.726,0,0,0,0,1.452h1.452a.726.726,0,1,0,0-1.452Z" transform="translate(-764.873 -580.134)" fill="#5c5c68"></path>
<g id="Ellipse_626" data-name="Ellipse 626" transform="translate(12.521 14.614)" fill="#fff" stroke="#5c5c68" stroke-width="1.2">
<circle cx="2.1" cy="2.1" r="2.1" stroke="none"></circle>
<circle cx="2.1" cy="2.1" r="1.5" fill="none"></circle>
</g>
<g id="Ellipse_627" data-name="Ellipse 627" transform="translate(12.521 9.614)" fill="#fff" stroke="#5c5c68" stroke-width="1.2">
<circle cx="2.1" cy="2.1" r="2.1" stroke="none"></circle>
<circle cx="2.1" cy="2.1" r="1.5" fill="none"></circle>
</g>
</g>
</g>
</svg>