<?xml version="1.0" encoding="UTF-8"?>
<svg width="39px" height="39px" viewBox="0 0 39 39" version="1.1" xmlns="http://www.w3.org/2000/svg" xmlns:xlink="http://www.w3.org/1999/xlink">
    <!-- Generator: Sketch 51.2 (57519) - http://www.bohemiancoding.com/sketch -->
    <title>Group 5</title>
    <desc>Created with Sketch.</desc>
    <defs></defs>
    <g id="Page-1" stroke="none" stroke-width="1" fill="none" fill-rule="evenodd">
        <g id="1-tablet" transform="translate(-69.000000, -314.000000)" fill="#FFA602">
            <g id="Group-12-Copy" transform="translate(69.000000, 310.000000)">
                <g id="Group-5" transform="translate(0.000000, 4.000000)">
                    <path d="M16.9,37.7 L22.1,37.7 L22.1,33.0291 C22.1,32.7912 22.22935,32.5728 22.43865,32.45905 C22.7266,32.3011 23.1985,32.13535 23.79585,31.9254 C24.65255,31.62445 25.71855,31.2494 26.4069,30.8295 C26.66365,30.6735 26.99385,30.7125 27.2051,30.9244 L30.511,34.2277 L34.2277,30.511 L30.92375,27.20575 C30.7112,26.99385 30.6722,26.66365 30.82885,26.40755 L30.8802,26.32305 C31.5666,25.20115 32.06255,24.3906 32.383,21.3811 C32.4181,21.0509 32.69695,20.8 33.0291,20.8 L37.7,20.8 L37.7,16.9 L33.0278,16.9 C32.72815,16.9 32.46685,16.69525 32.396,16.40405 C32.0697,15.067 31.51265,13.7124 30.82885,12.5905 C30.6722,12.33505 30.7112,12.00485 30.92375,11.79295 L34.22705,8.489 L30.5097,4.7723 L27.2051,8.0756 C26.9932,8.2875 26.66365,8.32715 26.40755,8.1705 C25.2395,7.45875 23.2557,6.73205 22.62585,6.60985 C22.32035,6.5507 22.1,6.2829 22.1,5.97155 L22.1,1.3 L16.9,1.3 L16.9,5.97155 C16.9,6.2777 16.6868,6.54225 16.3878,6.60725 C15.60715,6.77625 13.74035,7.4698 12.59245,8.1705 C12.337,8.3278 12.0068,8.2888 11.79425,8.0756 L8.489,4.7723 L4.771,8.489 L8.0756,11.79425 C8.2875,12.00615 8.32715,12.33635 8.1705,12.59245 C7.4594,13.7566 6.78145,15.66305 6.6014,16.4034 C6.53055,16.69525 6.2699,16.9 5.97025,16.9 L1.3,16.9 L1.3,20.8 L5.97025,20.8 C6.2959,20.8 6.5702,21.0405 6.6144,21.36355 C6.87115,23.2778 7.49645,25.3045 8.1705,26.40755 C8.32715,26.66365 8.2875,26.99385 8.0756,27.20575 L4.77035,30.511 L8.48835,34.2277 L11.7923,30.92245 C12.00485,30.7099 12.3357,30.6709 12.59115,30.82755 C13.2808,31.2494 14.34875,31.62445 15.2061,31.92605 C15.8028,32.136 16.2734,32.3011 16.56135,32.45905 C16.77,32.5728 16.9,32.7912 16.9,33.0291 L16.9,37.7 Z M22.75,39 L16.25,39 C15.8912,39 15.6,38.70945 15.6,38.35 L15.6,33.4516 C15.3725,33.3632 15.0787,33.25985 14.7745,33.1526 C14.01985,32.8874 13.1131,32.56825 12.3656,32.188 L8.94855,35.60635 C8.70545,35.8501 8.27385,35.8514 8.02945,35.60635 L3.3917,30.97055 C3.2695,30.849 3.20125,30.6839 3.20125,30.511 C3.20125,30.33875 3.2695,30.17365 3.3917,30.05145 L6.8094,26.6344 C6.21075,25.47155 5.69205,23.79195 5.40995,22.1 L0.65,22.1 C0.2912,22.1 0,21.80945 0,21.45 L0,16.25 C0,15.89055 0.2912,15.6 0.65,15.6 L5.4769,15.6 C5.74925,14.7082 6.2582,13.3822 6.8055,12.363 L3.39235,8.94855 C3.13885,8.69505 3.13885,8.28295 3.39235,8.02945 L8.02945,3.39365 C8.28295,3.1395 8.6944,3.1395 8.94855,3.39365 L12.3617,6.8055 C13.3978,6.24455 14.7199,5.733 15.6,5.4717 L15.6,0.65 C15.6,0.29055 15.8912,0 16.25,0 L22.75,0 C23.1088,0 23.4,0.29055 23.4,0.65 L23.4,5.46845 C24.26255,5.72585 25.6087,6.25235 26.637,6.8055 L30.05015,3.39365 C30.3043,3.1395 30.71575,3.1395 30.9699,3.39365 L35.60635,8.02945 C35.72855,8.151 35.7968,8.3161 35.7968,8.489 C35.7968,8.66125 35.72855,8.82635 35.60635,8.94855 L32.1971,12.3578 C32.7496,13.3497 33.21045,14.47225 33.5283,15.6 L38.35,15.6 C38.7088,15.6 39,15.89055 39,16.25 L39,21.45 C39,21.80945 38.7088,22.1 38.35,22.1 L33.60825,22.1 C33.28845,24.64215 32.8042,25.64445 32.20425,26.64805 L35.60635,30.05145 C35.8605,30.30625 35.8605,30.71705 35.60635,30.97055 L30.97055,35.60635 C30.71705,35.8605 30.3056,35.8605 30.05145,35.60635 L26.63245,32.1893 C25.88625,32.56825 24.9808,32.8874 24.2268,33.15195 C23.9226,33.2592 23.6275,33.36255 23.4,33.4516 L23.4,38.35 C23.4,38.70945 23.1088,39 22.75,39 Z" id="Fill-1"></path>
                    <path d="M19.5,13 C15.9159,13 13,15.9159 13,19.5 C13,23.0841 15.9159,26 19.5,26 C23.0841,26 26,23.0841 26,19.5 C26,15.9159 23.0841,13 19.5,13 M19.5,27.3 C15.19895,27.3 11.7,23.80105 11.7,19.5 C11.7,15.19895 15.19895,11.7 19.5,11.7 C23.80105,11.7 27.3,15.19895 27.3,19.5 C27.3,23.80105 23.80105,27.3 19.5,27.3" id="Fill-3"></path>
                </g>
            </g>
        </g>
    </g>
</svg>