<svg id="Layer_1" data-name="Layer 1" xmlns="http://www.w3.org/2000/svg" viewBox="0 0 72 68.8"><title>insta</title><path d="M286,258.18V284.8H270.57V260c0-6.24-2.23-10.5-7.82-10.5a8.44,8.44,0,0,0-7.92,5.64,10.57,10.57,0,0,0-.51,3.76V284.8H238.88s.21-42.07,0-46.42h15.44V245l-.1.15h.1V245c2.05-3.16,5.71-7.67,13.91-7.67,10.16,0,17.77,6.63,17.77,20.89ZM222.73,216c-5.28,0-8.73,3.46-8.73,8s3.35,8,8.53,8h.1c5.38,0,8.73-3.57,8.73-8s-3.35-8-8.63-8Zm-7.82,68.8h15.43V238.38H214.92Zm0,0" transform="translate(-214 -216)" style="fill:#535353"/></svg>