<svg id="Layer_1" data-name="Layer 1" xmlns="http://www.w3.org/2000/svg" viewBox="0 0 12.8 10.4"><title>twitter</title><path d="M255.8,246.23a5.25,5.25,0,0,1-1.51.42,2.65,2.65,0,0,0,1.16-1.45,5.23,5.23,0,0,1-1.67.64,2.63,2.63,0,0,0-4.54,1.8,2.73,2.73,0,0,0,.07.6,7.46,7.46,0,0,1-5.41-2.74,2.63,2.63,0,0,0,.81,3.5,2.59,2.59,0,0,1-1.19-.33v0a2.63,2.63,0,0,0,2.1,2.58,2.71,2.71,0,0,1-.69.09,2.65,2.65,0,0,1-.5,0,2.63,2.63,0,0,0,2.45,1.82,5.28,5.28,0,0,1-3.26,1.12,5.63,5.63,0,0,1-.62,0,7.47,7.47,0,0,0,11.5-6.29v-.34a5.29,5.29,0,0,0,1.31-1.36Zm0,0" transform="translate(-243 -245)" style="fill:#525453"/></svg>