<svg xmlns="http://www.w3.org/2000/svg" width="34" height="34" viewBox="0 0 34 34" class="svg  replaced-svg">
    <g id="ico_categ__artisanales" data-name="ico_categ_ artisanales" transform="translate(-140 -1087)">
        <rect id="矩形_3112" data-name="矩形 3112" width="34" height="34" transform="translate(140 1087)" fill="none"></rect>
        <g id="工具" transform="translate(142.849 1089.866)">
            <path id="路径_5176" data-name="路径 5176" d="M5.942,10.135A.814.814,0,0,1,5.366,9.9L.241,4.771a.814.814,0,0,1,0-1.151L3.62.241a.814.814,0,0,1,1.151,0L9.9,5.365a.814.814,0,0,1,0,1.151L6.517,9.9a.814.814,0,0,1-.576.239ZM1.968,4.2,5.941,8.169,8.17,5.94,4.2,1.967Z" transform="translate(0 0)" fill="#5c5c68"></path>
            <path id="路径_5177" data-name="路径 5177" d="M16.575,9.1l4.691,4.692L25.23,9.832a5.638,5.638,0,0,1,7.68-6.647l1.572.678L31.771,6.572l-.01.658.741-.01,2.672-2.67.678,1.575A5.64,5.64,0,0,1,29.209,13.8l-3.965,3.964L27.6,20.125l2-2,1.642,1.642-.67.667,4.512,4.513a3.047,3.047,0,1,1-4.309,4.309l-4.51-4.51-.667.668-1.642-1.642,2-2L23.6,19.413l-3.967,3.964a5.638,5.638,0,0,1-7.676,6.642l-1.574-.675,2.672-2.672.01-.741-.658.008L9.694,28.65l-.68-1.569A5.638,5.638,0,0,1,15.656,19.4l3.964-3.964-4.691-4.692M26.575,23.1l5.179,5.179a1.667,1.667,0,0,0,2.357-2.357l-5.177-5.18-1.022,1.022ZM12.809,28.87A4.257,4.257,0,0,0,18.2,23.416L18.053,23l5.236-5.237,5.546-5.547.412.146A4.256,4.256,0,0,0,34.7,6.973l-1.619,1.62-2.721.041L30.4,5.993l1.663-1.658a4.256,4.256,0,0,0-5.4,5.454l.149.412-5.546,5.544L16.031,20.98l-.412-.149a4.257,4.257,0,0,0-5.457,5.4l1.66-1.661,2.639-.037-.037,2.719Z" transform="translate(-8.313 -2.645)" fill="#5c5c68"></path>
        </g>
    </g>
</svg>
