<svg xmlns="http://www.w3.org/2000/svg" xmlns:xlink="http://www.w3.org/1999/xlink" width="34px" height="57px" viewBox="0 0 34 57" version="1.1" class="svg-inject  replaced-svg">
    <!-- Generator: Sketch 49.3 (51167) - http://www.bohemiancoding.com/sketch -->
    <title>Page 1</title>
    <desc>Created with Sketch.</desc>
    <defs></defs>
    <g id="desktop" stroke="none" stroke-width="1" fill="none" fill-rule="evenodd">
        <g id="landing-page-other-partners" transform="translate(-841.000000, -1842.000000)">
            <g id="Page-1" transform="translate(842.000000, 1843.000000)">
                <path d="M24.8,34.8333333 L30.1973,34.8333333 C30.0866,17.4368333 26.87,5.55041667 24.8,2.56758333 L24.8,34.8333333 Z M23.9,55 C23.4023,55 23,54.59025 23,54.0833333 L23,0.916666667 C23,0.40975 23.4023,0 23.9,0 C28.5359,0 32,18.8741667 32,35.75 C32,36.2569167 31.5977,36.6666667 31.1,36.6666667 L24.8,36.6666667 L24.8,54.0833333 C24.8,54.59025 24.3977,55 23.9,55 Z" id="Fill-1" fill="#000000"></path>
                <path d="M24.8,34.8333333 L30.1973,34.8333333 C30.0866,17.4368333 26.87,5.55041667 24.8,2.56758333 L24.8,34.8333333 Z M23.9,55 C23.4023,55 23,54.59025 23,54.0833333 L23,0.916666667 C23,0.40975 23.4023,0 23.9,0 C28.5359,0 32,18.8741667 32,35.75 C32,36.2569167 31.5977,36.6666667 31.1,36.6666667 L24.8,36.6666667 L24.8,54.0833333 C24.8,54.59025 24.3977,55 23.9,55 Z" id="Stroke-3" stroke="#000000"></path>
                <path d="M8,55 C7.447,55 7,54.59025 7,54.0833333 L7,0.916666667 C7,0.40975 7.447,0 8,0 C8.553,0 9,0.40975 9,0.916666667 L9,54.0833333 C9,54.59025 8.553,55 8,55" id="Fill-5" fill="#000000"></path>
                <path d="M8,55 C7.447,55 7,54.59025 7,54.0833333 L7,0.916666667 C7,0.40975 7.447,0 8,0 C8.553,0 9,0.40975 9,0.916666667 L9,54.0833333 C9,54.59025 8.553,55 8,55 Z" id="Stroke-7" stroke="#000000"></path>
                <path d="M8,22 C3.58844444,22 0,18.2994167 0,13.75 L0,0.916666667 C0,0.40975 0.397333333,0 0.888888889,0 C1.38044444,0 1.77777778,0.40975 1.77777778,0.916666667 L1.77777778,13.75 C1.77777778,17.2874167 4.56977778,20.1666667 8,20.1666667 C11.4302222,20.1666667 14.2222222,17.2874167 14.2222222,13.75 L14.2222222,0.916666667 C14.2222222,0.40975 14.6195556,0 15.1111111,0 C15.6026667,0 16,0.40975 16,0.916666667 L16,13.75 C16,18.2994167 12.4115556,22 8,22" id="Fill-9" fill="#000000"></path>
                <path d="M8,22 C3.58844444,22 0,18.2994167 0,13.75 L0,0.916666667 C0,0.40975 0.397333333,0 0.888888889,0 C1.38044444,0 1.77777778,0.40975 1.77777778,0.916666667 L1.77777778,13.75 C1.77777778,17.2874167 4.56977778,20.1666667 8,20.1666667 C11.4302222,20.1666667 14.2222222,17.2874167 14.2222222,13.75 L14.2222222,0.916666667 C14.2222222,0.40975 14.6195556,0 15.1111111,0 C15.6026667,0 16,0.40975 16,0.916666667 L16,13.75 C16,18.2994167 12.4115556,22 8,22 Z" id="Stroke-11" stroke="#000000"></path>
            </g>
        </g>
    </g>
</svg>
