<svg xmlns="http://www.w3.org/2000/svg" xmlns:xlink="http://www.w3.org/1999/xlink" width="66px" height="62px" viewBox="0 0 66 62" version="1.1" class="svg  replaced-svg">
    <!-- Generator: Sketch 49.3 (51167) - http://www.bohemiancoding.com/sketch -->
    <title>Page 1</title>
    <desc>Created with Sketch.</desc>
    <defs>
        <polygon id="path-1" points="0 0 66 0 66 34.0002742 0 34.0002742"></polygon>
    </defs>
    <g id="desktop" stroke="none" stroke-width="1" fill="none" fill-rule="evenodd">
        <g id="landing-page-other-partners" transform="translate(-376.000000, -1839.000000)">
            <g id="Page-1" transform="translate(376.000000, 1839.000000)">
                <path d="M57,62 L39.5454545,62 L39.5454545,42.6153846 L26.4545455,42.6153846 L26.4545455,62 L9,62 L9,35.0769231 C9,34.4824615 9.48763636,34 10.0909091,34 C10.6941818,34 11.1818182,34.4824615 11.1818182,35.0769231 L11.1818182,59.8461538 L24.2727273,59.8461538 L24.2727273,40.4615385 L41.7272727,40.4615385 L41.7272727,59.8461538 L54.8181818,59.8461538 L54.8181818,35.0769231 C54.8181818,34.4824615 55.3058182,34 55.9090909,34 C56.5123636,34 57,34.4824615 57,35.0769231 L57,62 Z" id="Fill-1" fill="#000000"></path>
                <g id="Group-5">
                    <mask id="mask-2" fill="white">
                        <use xlink:href="#path-1"></use>
                    </mask>
                    <g id="Clip-4"></g>
                    <path d="M64.9,34 C64.6184,34 64.3368,33.8925161 64.1223,33.6786452 L33,2.6476129 L1.8777,33.6786452 C1.4476,34.1074839 0.7524,34.1074839 0.3223,33.6786452 C-0.1078,33.2498065 -0.1078,32.5566452 0.3223,32.1278065 L32.2223,0.321354839 C32.6524,-0.107483871 33.3476,-0.107483871 33.7777,0.321354839 L65.6777,32.1278065 C66.1078,32.5566452 66.1078,33.2498065 65.6777,33.6786452 C65.4632,33.8925161 65.1816,34 64.9,34" id="Fill-3" fill="#000000" mask="url(#mask-2)"></path>
                </g>
                <path d="M53.9166667,16 C53.3175833,16 52.8333333,15.5146667 52.8333333,14.9166667 L52.8333333,5.16666667 L43.0833333,5.16666667 C42.48425,5.16666667 42,4.68133333 42,4.08333333 C42,3.48533333 42.48425,3 43.0833333,3 L55,3 L55,14.9166667 C55,15.5146667 54.51575,16 53.9166667,16" id="Fill-6" fill="#000000"></path>
            </g>
        </g>
    </g>
</svg>