<svg xmlns="http://www.w3.org/2000/svg" height="512pt" viewBox="0 0 512 512" width="512pt" class="svg-inject  replaced-svg"><path d="m92.808594 456.558594c-2.628906 0-5.207032 1.0625-7.066406 2.921875-1.859376 1.871093-2.933594 4.441406-2.933594 7.078125 0 2.632812 1.070312 5.203125 2.933594 7.070312 1.859374 1.859375 4.4375 2.929688 7.066406 2.929688 2.632812 0 5.210937-1.066406 7.070312-2.929688 1.859375-1.867187 2.929688-4.4375 2.929688-7.070312 0-2.636719-1.066406-5.207032-2.929688-7.078125-1.859375-1.859375-4.429687-2.921875-7.070312-2.921875zm0 0"></path><path d="m230.589844 368.5c2.628906 0 5.210937-1.070312 7.058594-2.929688 1.871093-1.859374 2.941406-4.441406 2.941406-7.070312s-1.070313-5.210938-2.941406-7.070312c-1.847657-1.859376-4.429688-2.929688-7.058594-2.929688-2.640625 0-5.210938 1.070312-7.078125 2.929688-1.863281 1.859374-2.933594 4.441406-2.933594 7.070312s1.070313 5.210938 2.933594 7.070312c1.859375 1.859376 4.4375 2.929688 7.078125 2.929688zm0 0"></path><path d="m230.578125 400.339844c2.640625 0 5.210937-1.070313 7.070313-2.929688 1.871093-1.871094 2.941406-4.441406 2.941406-7.070312 0-2.640625-1.070313-5.210938-2.941406-7.078125-1.859376-1.863281-4.429688-2.921875-7.070313-2.921875-2.628906 0-5.207031 1.058594-7.066406 2.921875-1.863281 1.867187-2.933594 4.4375-2.933594 7.078125 0 2.628906 1.070313 5.199218 2.933594 7.070312 1.859375 1.859375 4.4375 2.929688 7.066406 2.929688zm0 0"></path><path d="m240.589844 424c0-2.628906-1.070313-5.210938-2.941406-7.070312-1.859376-1.859376-4.429688-2.929688-7.066407-2.929688-2.632812 0-5.210937 1.070312-7.070312 2.929688-1.859375 1.859374-2.929688 4.441406-2.929688 7.070312s1.066407 5.210938 2.929688 7.070312c1.859375 1.859376 4.4375 2.929688 7.070312 2.929688 2.640625 0 5.21875-1.070312 7.066407-2.929688 1.871093-1.859374 2.941406-4.441406 2.941406-7.070312zm0 0"></path><path d="m502 229.394531h-104c-5.523438 0-10 4.480469-10 10v90.855469c-6.128906-3.007812-12.480469-5.554688-19.003906-7.570312l-75.015625-23.648438v-16.242188c0-3.597656-1.933594-6.921874-5.066407-8.695312-1.195312-.679688-2.496093-1.089844-3.816406-1.238281 20.269532-12.535157 35.933594-31.832031 43.8125-54.722657.292969.023438.585938.042969.886719.042969 25.363281 0 46-20.636719 46-46 0-23.761719-18.113281-43.371093-41.257813-45.753906v-15.109375c14.824219-17.34375 23.785157-39.835938 23.785157-64.386719v-36.925781c0-5.523438-4.476563-10-10-10h-131.113281c-49.945313 0-90.582032 40.636719-90.582032 90.585938v35.835937c-23.144531 2.382813-41.253906 21.992187-41.253906 45.753906 0 25.363281 20.636719 46 46 46 .296875 0 .589844-.019531.882812-.042969 7.878907 22.890626 23.542969 42.191407 43.816407 54.722657-1.324219.148437-2.625.558593-3.816407 1.234375-3.132812 1.777344-5.070312 5.101562-5.070312 8.699218v16.089844l-74.964844 23.78125c-26.902344 8.328125-49.960937 24.710938-66.675781 47.378906-16.710937 22.667969-25.546875 49.535157-25.546875 77.699219v54.261719c0 5.523438 4.476562 10 10 10h468.167969c5.519531 0 10-4.476562 10-10s-4.480469-10-10-10h-18.167969v-51.707031c29.445312-4.796875 52-30.402344 52-61.183594v-139.714844c0-5.519531-4.476562-10-10-10zm-396.625-57.21875c0-12.714843 9.175781-23.320312 21.253906-25.558593v37.761718c0 4.574219.300782 9.085938.875 13.507813-12.507812-1.875-22.128906-12.6875-22.128906-25.710938zm250.421875 0c0 13.023438-9.625 23.835938-22.132813 25.710938.574219-4.421875.875-8.933594.875-13.507813v-37.761718c12.078126 2.238281 21.257813 12.84375 21.257813 25.558593zm-209.167969-57.28125v-24.308593c0-38.921876 31.664063-70.585938 70.582032-70.585938h121.117187v26.925781c0 43.699219-35.554687 79.25-79.253906 79.25h-112.445313zm0 69.484375v-38.203125h112.445313c20.527343 0 39.621093-6.265625 55.464843-16.980469v55.183594c0 46.292969-37.660156 83.953125-83.953124 83.953125-46.296876 0-83.957032-37.660156-83.957032-83.953125zm49.441406 98.058594c10.804688 3.8125 22.421876 5.894531 34.515626 5.894531s23.710937-2.082031 34.515624-5.898437l-34.515624 20.652344zm15.039063 32.300781-23.921875 14.3125v-28.625zm62.871094-14.3125v28.625l-23.917969-14.3125zm-106.792969 19.4375v26.824219c0 3.597656 1.9375 6.921875 5.066406 8.699219 1.53125.867187 3.234375 1.300781 4.933594 1.300781 1.777344 0 3.554688-.476562 5.136719-1.421875l48.261719-28.875 48.261718 28.875c1.578125.945313 3.355469 1.421875 5.132813 1.421875 1.703125 0 3.402343-.433594 4.933593-1.300781 3.132813-1.777344 5.066407-5.101563 5.066407-8.699219v-26.6875l24.652343 7.773438-88.046874 131.273437-88.101563-131.347656zm191.167969 172.136719h-338.355469v-44.261719c0-43.335937 24.652344-81.683593 62.8125-99.949219v80.542969c0 5.523438 4.476562 10 10 10s10-4.476562 10-10v-88.046875l19.816406-6.285156 99.652344 148.570312c1.855469 2.769532 4.96875 4.429688 8.304688 4.429688 3.332031 0 6.445312-1.660156 8.304687-4.429688l99.621094-148.53125 19.847656 6.257813v151.703125zm81.644531 0h-61.644531v-144.199219c3.300781 1.589844 6.519531 3.335938 9.644531 5.242188v26.070312c0 30.78125 22.554688 56.382813 52 61.179688zm52-112.890625c0 23.160156-18.839844 42-42 42s-42-18.839844-42-42v-72.214844h84zm0-92.214844h-84v-37.496093h84zm0 0"></path><path d="m470.289062 345.589844c2.632813 0 5.210938-1.070313 7.070313-2.929688 1.871094-1.871094 2.929687-4.441406 2.929687-7.070312 0-2.640625-1.058593-5.210938-2.929687-7.070313-1.859375-1.871093-4.429687-2.929687-7.070313-2.929687-2.628906 0-5.210937 1.058594-7.070312 2.929687-1.859375 1.859375-2.929688 4.429688-2.929688 7.070313 0 2.628906 1.070313 5.199218 2.929688 7.070312 1.859375 1.859375 4.441406 2.929688 7.070312 2.929688zm0 0"></path><path d="m429.589844 372.710938c2.640625 0 5.210937-1.070313 7.070312-2.929688 1.871094-1.859375 2.929688-4.441406 2.929688-7.070312 0-2.632813-1.058594-5.210938-2.929688-7.070313-1.859375-1.859375-4.429687-2.929687-7.070312-2.929687-2.628906 0-5.199219 1.070312-7.070313 2.929687-1.859375 1.859375-2.929687 4.4375-2.929687 7.070313 0 2.628906 1.070312 5.210937 2.929687 7.070312 1.871094 1.859375 4.441407 2.929688 7.070313 2.929688zm0 0"></path><path d="m459.6875 404.890625c2.640625 0 5.210938-1.070313 7.070312-2.929687 1.871094-1.871094 2.929688-4.441407 2.929688-7.070313 0-2.640625-1.058594-5.210937-2.929688-7.082031-1.859374-1.859375-4.429687-2.929688-7.070312-2.929688-2.628906 0-5.199219 1.070313-7.066406 2.929688-1.859375 1.871094-2.933594 4.441406-2.933594 7.082031 0 2.628906 1.070312 5.199219 2.933594 7.070313 1.867187 1.859374 4.4375 2.929687 7.066406 2.929687zm0 0"></path><path d="m313.699219 46.925781c0-5.523437-4.476563-10-10-10-5.519531 0-10 4.476563-10 10 0 19.089844-15.53125 34.625-34.625 34.625-5.519531 0-10 4.476563-10 10 0 5.519531 4.480469 10 10 10 30.121093 0 54.625-24.503906 54.625-54.625zm0 0"></path><path d="m219 81.550781c-2.628906 0-5.210938 1.070313-7.070312 2.929688-1.859376 1.859375-2.929688 4.441406-2.929688 7.070312 0 2.628907 1.070312 5.210938 2.929688 7.070313 1.859374 1.859375 4.441406 2.929687 7.070312 2.929687s5.210938-1.070312 7.070312-2.929687c1.859376-1.859375 2.929688-4.441406 2.929688-7.070313 0-2.628906-1.070312-5.210937-2.929688-7.070312-1.859374-1.859375-4.441406-2.929688-7.070312-2.929688zm0 0"></path></svg>
