<svg xmlns="http://www.w3.org/2000/svg" xmlns:xlink="http://www.w3.org/1999/xlink" version="1.1" id="Capa_1" x="0px" y="0px" viewBox="0 0 76.136 76.136" style="enable-background:new 0 0 76.136 76.136;" xml:space="preserve" class="svg-inject  replaced-svg">
<path style="fill:#231F20;" d="M24.992,17.535c4.989,1.115,10.112,1.681,15.225,1.681s10.235-0.565,15.253-1.688  c0.482-0.121,0.802-0.579,0.75-1.073C55.505,9.6,50.624,3.976,44.404,2.19V1c0-0.552-0.447-1-1-1s-1,0.448-1,1v0.767  c-0.72-0.106-1.448-0.178-2.19-0.178c-0.74,0-1.466,0.072-2.185,0.177V1c0-0.552-0.447-1-1-1s-1,0.448-1,1v1.189  c-6.218,1.785-11.101,7.41-11.815,14.266C24.161,16.959,24.496,17.424,24.992,17.535z M36.029,4.285v3.097c0,0.552,0.447,1,1,1  s1-0.448,1-1V3.784c0.717-0.121,1.447-0.195,2.19-0.195c0.741,0,1.469,0.074,2.185,0.194v3.599c0,0.552,0.447,1,1,1s1-0.448,1-1  V4.285c4.926,1.64,8.805,6.059,9.707,11.492c-9.134,1.911-18.696,1.905-27.789,0C27.223,10.344,31.1,5.926,36.029,4.285z   M40.216,15.371c-2.079,0-4.163-0.23-6.191-0.683c-0.539-0.121-0.879-0.655-0.759-1.194c0.121-0.539,0.657-0.874,1.193-0.758  c3.775,0.843,7.738,0.843,11.512,0c0.538-0.116,1.073,0.219,1.193,0.758c0.121,0.539-0.219,1.074-0.758,1.194  C44.378,15.141,42.295,15.371,40.216,15.371z M27.609,22.261c0.379,0.404,1.012,0.424,1.413,0.047  c0.403-0.377,0.425-1.01,0.048-1.414c-0.251-0.269-1.572-1.587-2.891-1.088c-1.335,0.504-1.389,2.325-1.406,2.923  c-0.091,3.103,1.707,4.848,3.04,5.549c0.924,8.321,7.513,12.07,11.992,12.07S50.874,36.6,51.798,28.278  c1.333-0.701,3.13-2.447,3.04-5.548c-0.019-0.599-0.072-2.419-1.407-2.924c-1.316-0.495-2.64,0.82-2.891,1.088  c-0.376,0.402-0.354,1.032,0.046,1.41c0.402,0.378,1.033,0.357,1.413-0.041c0.201-0.213,0.495-0.432,0.688-0.524  c0.057,0.15,0.135,0.461,0.151,1.049c0.085,2.893-2.03,3.76-2.239,3.839l-3.893,0.853c-4.581-0.493-9.222-0.493-13.801,0  l-3.893-0.853c-0.238-0.09-2.325-0.963-2.239-3.839c0.017-0.587,0.095-0.898,0.15-1.049C27.116,21.832,27.41,22.05,27.609,22.261z   M29.923,28.875l1.999,0.438l0.594,5.345C31.302,33.236,30.335,31.339,29.923,28.875z M47.097,34.655l0.593-5.342l1.999-0.438  C49.277,31.338,48.31,33.234,47.097,34.655z M45.669,29.381l-0.805,7.255c-1.831,1.218-3.765,1.713-5.059,1.713  c-1.294,0-3.227-0.495-5.056-1.711l-0.807-7.257C37.836,29.014,41.773,29.014,45.669,29.381z M60.839,53.377  c0.142,0.416,0.53,0.677,0.946,0.677c0.107,0,0.216-0.018,0.323-0.054c0.522-0.179,0.802-0.747,0.623-1.27  c-1.965-5.75-6.791-10.534-12.6-12.496l0.009-0.163c0.03-0.551-0.392-1.023-0.943-1.053c-0.546-0.03-1.023,0.392-1.053,0.944  l-0.255,4.656l-2.903-1.362c-0.503-0.235-1.097-0.019-1.33,0.48c-0.234,0.5-0.02,1.095,0.48,1.33l4.245,1.992  c0.135,0.063,0.28,0.095,0.425,0.095c0.178,0,0.355-0.047,0.513-0.142c0.286-0.17,0.468-0.472,0.485-0.804l0.213-3.884  c1.462,0.547,2.85,1.288,4.122,2.195l-2.225,8.893H31.255l-0.001-3.675c0.005-0.084,0.064-1.23-0.272-2.648  c0.045-0.014,0.093-0.01,0.136-0.03l4.244-1.992c0.5-0.235,0.715-0.83,0.48-1.33c-0.234-0.5-0.827-0.716-1.33-0.48l-2.902,1.362  l-0.255-4.656c-0.029-0.552-0.505-0.975-1.053-0.944c-0.552,0.03-0.974,0.502-0.943,1.053l0.015,0.269  c-1.078,0.382-2.138,0.854-3.149,1.43l0,0c-0.52-0.153-1.073-0.258-1.663-0.307c-0.631-3.822-3.544-3.831-5.198-3.831l-7.32,0.003  c-2.443,0-4.515,1.616-5.206,3.834c-5.323,0.43-6.769,5.477-6.769,8.208v13.083c0,0.552,0.447,1,1,1s1-0.448,1-1V49.68  c0.001-0.239,0.082-5.523,4.545-6.185c0.211,2.814,2.563,5.04,5.429,5.04l7.32,0.003c1.811,0,5.13-0.015,5.309-5.036  c1.26,0.159,2.282,0.619,3.025,1.404c1.699,1.795,1.562,4.686,1.559,4.772v13.083c0,0.552,0.447,1,1,1s1-0.448,1-1l-0.001-7.349  h21.441c0.459,0,0.858-0.312,0.97-0.757l2.189-8.752c0.501,0.454,0.978,0.935,1.426,1.44l-2.6,10.99  c-0.019,0.076-0.027,0.153-0.027,0.23v16.491c0,0.552,0.447,1,1,1s1-0.448,1-1V58.68l2.199-9.296  C59.681,50.63,60.358,51.969,60.839,53.377z M20.151,46.527v-2.333c0-0.552-0.447-1-1-1s-1,0.448-1,1v2.344l-1.821-0.001v-2.343  c0-0.552-0.447-1-1-1s-1,0.448-1,1v2.342l-1.688-0.001v-2.342c0-0.552-0.447-1-1-1s-1,0.448-1,1v2.037  c-1.204-0.539-2.048-1.743-2.048-3.146c0-1.902,1.548-3.45,3.45-3.45l7.32-0.003c1.931,0,3.326,0,3.326,3.453  C22.69,46.047,21.661,46.467,20.151,46.527z M29.163,43.543c-0.226-0.24-0.474-0.453-0.73-0.653c0.348-0.165,0.701-0.309,1.057-0.45  l0.087,1.589C29.448,43.864,29.311,43.701,29.163,43.543z M75.067,37.82h-2.746c-0.417-1.719-1.956-3-3.803-3H58.159  c-2.167,0-3.925,1.757-3.925,3.925s1.757,3.925,3.925,3.925h10.359c1.792,0,3.287-1.208,3.757-2.849h1.793v5.753l-8.08,1.492  c-0.475,0.087-0.818,0.501-0.818,0.983v9.942c-1.676,0.08-2.913,0.494-3.715,1.301c-1.194,1.201-1.186,2.886-1.177,4.372l0.001,6.94  c0,3.005,2.445,5.45,5.45,5.45s5.45-2.445,5.45-5.45l0.001-6.94c0.009-1.486,0.018-3.171-1.177-4.372  c-0.658-0.662-1.595-1.069-2.834-1.239v-9.172l8.08-1.492c0.475-0.087,0.818-0.501,0.818-0.983V38.82  C76.067,38.268,75.62,37.82,75.067,37.82z M69.179,63.653l-0.001,6.951c0,1.902-1.548,3.45-3.45,3.45  c-1.402,0-2.606-0.844-3.145-2.047h2.037c0.553,0,1-0.448,1-1s-0.447-1-1-1h-2.342l0-1.688h2.342c0.553,0,1-0.448,1-1s-0.447-1-1-1  h-2.342l0-1.821h2.343c0.553,0,1-0.448,1-1s-0.447-1-1-1h-2.325c0.041-0.741,0.171-1.386,0.577-1.795  c0.491-0.494,1.452-0.745,2.856-0.745s2.365,0.25,2.856,0.745C69.192,61.313,69.186,62.45,69.179,63.653z M15.72,54.82  c-4.821,0-12.981,0.849-12.981,4.031v16.284c0,0.552,0.447,1,1,1s1-0.448,1-1V61.175c1.209,0.577,2.85,0.977,4.594,1.244v8.414  c0,0.552,0.447,1,1,1s1-0.448,1-1v-8.166c1.555,0.151,3.092,0.216,4.388,0.216c0.091,0,0.191-0.003,0.284-0.003v4.38  c0,0.552,0.447,1,1,1s1-0.448,1-1v-4.438c0.857-0.043,1.749-0.111,2.643-0.21v8.941c0,0.552,0.447,1,1,1s1-0.448,1-1V62.33  c0.585-0.101,1.152-0.218,1.692-0.352v5.282c0,0.552,0.447,1,1,1s1-0.448,1-1v-5.93c0.121-0.051,0.248-0.1,0.361-0.154v13.836  c0,0.552,0.447,1,1,1s1-0.448,1-1V58.852C28.701,55.669,20.542,54.82,15.72,54.82z M25.621,59.503  c-0.976-0.889-5.036-1.555-9.901-1.555c-4.865,0-8.925,0.667-9.901,1.555c-0.562-0.23-0.919-0.457-1.054-0.651  C5.292,58.09,9.222,56.82,15.72,56.82s10.427,1.27,10.954,2.031C26.54,59.045,26.183,59.272,25.621,59.503z M49.83,66.25  c0,0.552-0.447,1-1,1H30.781c-0.553,0-1-0.448-1-1s0.447-1,1-1H48.83C49.382,65.25,49.83,65.698,49.83,66.25z"></path>
    <g>
</g>
    <g>
</g>
    <g>
</g>
    <g>
</g>
    <g>
</g>
    <g>
</g>
    <g>
</g>
    <g>
</g>
    <g>
</g>
    <g>
</g>
    <g>
</g>
    <g>
</g>
    <g>
</g>
    <g>
</g>
    <g>
</g>
</svg>
