<svg xmlns="http://www.w3.org/2000/svg" height="512pt" viewBox="-9 0 512 512.00101" width="512pt" class="svg-inject  replaced-svg"><path d="m421.445312 159.386719c0-.074219.007813-.144531.007813-.21875v-24.453125c10.3125-3.21875 17.816406-12.855469 17.816406-24.210938 0-13.984375-11.378906-25.359375-25.359375-25.359375-13.984375 0-25.359375 11.375-25.359375 25.359375 0 11.355469 7.503907 20.992188 17.8125 24.210938v24.453125c0 .035156.003907.066406.003907.101562h-11.660157c-4.167969 0-7.546875 3.378907-7.546875 7.546875v36.816406h-15.765625v-18.882812c0-14.050781-11.433593-25.480469-25.484375-25.480469-14.050781 0-25.480468 11.429688-25.480468 25.480469v18.882812h-10.726563v-18.882812c0-14.050781-11.429687-25.480469-25.484375-25.480469-14.046875 0-25.480469 11.429688-25.480469 25.480469v18.882812h-10.726562v-18.882812c0-14.050781-11.429688-25.480469-25.480469-25.480469-14.054688 0-25.484375 11.429688-25.484375 25.480469v18.882812h-10.726563v-18.882812c0-14.050781-11.429687-25.480469-25.480468-25.480469-14.054688 0-25.484375 11.429688-25.484375 25.480469v18.882812h-15.878907v-12.671874c0-17.472657-14.214843-31.691407-31.691406-31.691407h-27.382812c-17.476563 0-31.695313 14.21875-31.695313 31.691407v5.476562h-21.160156c-4.167969 0-7.546875 3.375-7.546875 7.542969v87.707031c0 4.167969 3.378906 7.546875 7.546875 7.546875h21.164063v17.914063h-21.164063c-4.167969 0-7.546875 3.378906-7.546875 7.546874v43.855469c0 4.164063 3.378906 7.542969 7.546875 7.542969h21.164063v104.214844c0 17.476562 14.214843 31.691406 31.691406 31.691406h27.382812c17.476563 0 31.691406-14.214844 31.691406-31.691406v-.335938h15.882813v6.546875c0 14.050781 11.429687 25.480469 25.480469 25.480469 14.050781 0 25.484375-11.429688 25.484375-25.480469v-6.546875h10.726562v6.546875c0 14.050781 11.429688 25.480469 25.480469 25.480469s25.484375-11.429688 25.484375-25.480469v-6.546875h10.726563v6.546875c0 14.050781 11.429687 25.480469 25.480468 25.480469 14.050782 0 25.484375-11.429688 25.484375-25.480469v-6.546875h10.722657v6.546875c0 14.050781 11.433593 25.480469 25.484374 25.480469 14.050782 0 25.480469-11.429688 25.480469-25.480469v-6.546875h15.765625v24.484375c0 4.164063 3.378906 7.542969 7.546875 7.542969h24.128907c17.476562 0 31.691406-14.214844 31.691406-31.691406v-289.347656c0-16.597657-12.824219-30.242188-29.082032-31.574219zm-7.535156-59.152344c5.660156 0 10.265625 4.605469 10.265625 10.269531 0 5.660156-4.605469 10.265625-10.265625 10.265625-5.664062 0-10.269531-4.605469-10.269531-10.265625 0-5.664062 4.609375-10.269531 10.269531-10.269531zm-398.816406 183.90625v-72.613281h13.617188v72.613281zm0 76.863281v-28.761718h13.617188v28.761718zm89.292969 119.304688c0 9.152344-7.449219 16.601562-16.601563 16.601562h-27.382812c-9.15625 0-16.601563-7.449218-16.601563-16.601562v-289.347656c0-9.152344 7.445313-16.601563 16.601563-16.601563h27.382812c9.152344 0 16.601563 7.449219 16.601563 16.601563zm15.089843-15.425782v-246.160156h15.882813v246.160156zm66.84375 0v-164.84375c0-4.167968-3.375-7.546874-7.542968-7.546874-4.167969 0-7.546875 3.378906-7.546875 7.546874v186.480469c0 5.730469-4.660157 10.390625-10.390625 10.390625-5.730469 0-10.390625-4.660156-10.390625-10.390625v-301.769531c0-5.730469 4.660156-10.390625 10.390625-10.390625 5.730468 0 10.390625 4.660156 10.390625 10.390625v85.105469c0 4.167969 3.378906 7.546875 7.546875 7.546875 4.167968 0 7.542968-3.378906 7.542968-7.546875v-51.132813h10.726563v246.160156zm46.601563 21.636719c0 5.730469-4.664063 10.390625-10.390625 10.390625-5.730469 0-10.394531-4.660156-10.394531-10.390625v-301.769531c0-5.730469 4.664062-10.390625 10.394531-10.390625 5.726562 0 10.390625 4.660156 10.390625 10.390625zm15.089844-21.636719v-246.160156h10.726562v246.160156zm46.601562 21.636719c0 5.730469-4.664062 10.390625-10.394531 10.390625-5.726562 0-10.386719-4.660156-10.386719-10.390625v-301.769531c0-5.730469 4.660157-10.390625 10.386719-10.390625 5.730469 0 10.394531 4.660156 10.394531 10.390625zm15.089844-21.636719v-246.160156h10.726563v246.160156zm46.597656 21.636719c0 5.730469-4.660156 10.390625-10.390625 10.390625-5.730468 0-10.390625-4.660156-10.390625-10.390625v-301.769531c0-5.730469 4.660157-10.390625 10.390625-10.390625 5.730469 0 10.390625 4.660156 10.390625 10.390625zm79.136719-6.210937c0 9.152344-7.449219 16.601562-16.601562 16.601562h-16.585938v-175.039062c0-4.167969-3.378906-7.546875-7.542969-7.546875-4.167969 0-7.546875 3.378906-7.546875 7.546875v143.011718h-15.765625v-246.160156h15.765625v72.964844c0 4.167969 3.378906 7.546875 7.546875 7.546875 4.164063 0 7.542969-3.378906 7.542969-7.546875v-117.328125h16.585938c9.152343 0 16.601562 7.449219 16.601562 16.601563zm0 0"></path><path d="m44.964844 95.164062h150.863281c4.167969 0 7.546875-3.378906 7.546875-7.546874v-80.070313c0-4.167969-3.378906-7.546875-7.546875-7.546875h-150.863281c-4.167969 0-7.546875 3.378906-7.546875 7.546875v80.070313c0 4.167968 3.378906 7.546874 7.546875 7.546874zm7.542968-80.074218h135.773438v64.980468h-135.773438zm0 0"></path><path d="m89.628906 24.148438c-13.519531 0-24.515625 11-24.515625 24.519531 0 13.515625 10.996094 24.515625 24.515625 24.515625 13.519532 0 24.519532-10.996094 24.519532-24.515625s-11-24.519531-24.519532-24.519531zm0 33.941406c-5.195312 0-9.425781-4.226563-9.425781-9.421875 0-5.199219 4.230469-9.425781 9.425781-9.425781 5.199219 0 9.425782 4.226562 9.425782 9.425781 0 5.195312-4.226563 9.421875-9.425782 9.421875zm0 0"></path><path d="m152.644531 24.148438c-13.519531 0-24.515625 11-24.515625 24.519531 0 13.515625 10.996094 24.515625 24.515625 24.515625s24.515625-10.996094 24.515625-24.515625-10.996094-24.519531-24.515625-24.519531zm0 33.941406c-5.195312 0-9.425781-4.226563-9.425781-9.421875 0-5.199219 4.226562-9.425781 9.425781-9.425781s9.425781 4.226562 9.425781 9.425781c0 5.195312-4.226562 9.421875-9.425781 9.421875zm0 0"></path><path d="m413.910156 58.195312c-27.179687 0-49.292968 22.109376-49.292968 49.289063 0 4.167969 3.378906 7.546875 7.546874 7.546875 4.167969 0 7.546876-3.378906 7.546876-7.546875 0-18.855469 15.339843-34.199219 34.199218-34.199219 18.855469 0 34.199219 15.34375 34.199219 34.199219 0 4.167969 3.375 7.546875 7.542969 7.546875 4.167968 0 7.546875-3.378906 7.546875-7.546875 0-27.179687-22.109375-49.289063-49.289063-49.289063zm0 0"></path><path d="m413.910156 27.277344c-44.226562 0-80.207031 35.980468-80.207031 80.207031 0 4.167969 3.378906 7.546875 7.542969 7.546875 4.167968 0 7.546875-3.378906 7.546875-7.546875 0-35.90625 29.210937-65.117187 65.117187-65.117187 35.902344 0 65.113282 29.210937 65.113282 65.117187 0 4.167969 3.378906 7.546875 7.546874 7.546875 4.167969 0 7.546876-3.378906 7.546876-7.546875 0-44.226563-35.980469-80.207031-80.207032-80.207031zm0 0"></path></svg>
