<?xml version="1.0" encoding="UTF-8"?>
<svg width="10px" height="21px" viewBox="0 0 10 21" version="1.1" xmlns="http://www.w3.org/2000/svg" xmlns:xlink="http://www.w3.org/1999/xlink">
    <!-- Generator: Sketch 49.1 (51147) - http://www.bohemiancoding.com/sketch -->
    <title>Page 1</title>
    <desc>Created with Sketch.</desc>
    <defs>
        <polygon id="path-1" points="0 0 10 0 10 21 0 21"></polygon>
    </defs>
    <g id="desktop" stroke="none" stroke-width="1" fill="none" fill-rule="evenodd">
        <g id="results-item-detail" transform="translate(-208.000000, -3257.000000)">
            <g id="Page-1" transform="translate(208.000000, 3257.000000)">
                <mask id="mask-2" fill="white">
                    <use xlink:href="#path-1"></use>
                </mask>
                <g id="Clip-2"></g>
                <path d="M8.94010544,19.1961682 L5.3728499,15.6323893 C5.27304687,15.5326836 5.14091328,15.4779156 4.99999421,15.4779156 C4.85907514,15.4779156 4.72659013,15.5326836 4.62713852,15.6323893 L1.05988298,19.1961682 L1.13860086,1.05322991 L8.86138756,1.05322991 L8.94010544,19.1961682 Z M9.91353642,0.524508493 C9.91248216,0.235221345 9.67597709,0 9.38675915,0 L9.38640773,0 L0.61358069,0 C0.324011331,0 0.0875062597,0.235572422 0.0864520023,0.524508493 L2.89750027e-06,20.4709275 C-0.00069994075,20.6850843 0.126513783,20.8767721 0.32436275,20.958924 C0.390429546,20.9866591 0.459307694,21 0.527834424,21 C0.664536463,21 0.798778569,20.9462853 0.899987277,20.8451752 L4.99999421,16.7491641 L9.10000114,20.8451752 C9.25146279,20.9968403 9.47742529,21.041427 9.67562567,20.958924 C9.73958395,20.9322422 9.79686527,20.8943259 9.84571253,20.8451752 C9.9444613,20.7461716 10.0010398,20.6096028 9.99998552,20.4705764 L9.91353642,0.524508493 Z" id="Fill-1" fill="#5C5C68" mask="url(#mask-2)"></path>
            </g>
        </g>
    </g>
</svg>