<?xml version="1.0" encoding="UTF-8"?>
<svg width="16px" height="11px" viewBox="0 0 16 11" version="1.1" xmlns="http://www.w3.org/2000/svg" xmlns:xlink="http://www.w3.org/1999/xlink">
    <!-- Generator: Sketch 49.1 (51147) - http://www.bohemiancoding.com/sketch -->
    <title>Page 1</title>
    <desc>Created with Sketch.</desc>
    <defs></defs>
    <g id="desktop" stroke="none" stroke-width="1" fill="none" fill-rule="evenodd">
        <g id="results" transform="translate(-784.000000, -347.000000)" fill="#525353">
            <g id="Group-12" transform="translate(784.000000, 262.000000)">
                <g id="Group-8" transform="translate(0.000000, 75.000000)">
                    <g id="Page-1" transform="translate(0.000000, 10.000000)">
                        <path d="M1.71428571,0.578947368 C1.02,0.578947368 0.571428571,1.03342105 0.571428571,1.73684211 L0.571428571,9.26315789 C0.571428571,9.93415789 1.03114286,10.4210526 1.66457143,10.4210526 L14.2857143,10.4210526 C14.9265714,10.4210526 15.4285714,9.91244737 15.4285714,9.26315789 L15.4285714,1.73684211 C15.4285714,1.03342105 14.98,0.578947368 14.2857143,0.578947368 L1.71428571,0.578947368 Z M14.2857143,11 L1.66457143,11 C0.715714286,11 0,10.2531579 0,9.26315789 L0,1.73684211 C0,0.714131579 0.704857143,0 1.71428571,0 L14.2857143,0 C15.2951429,0 16,0.714131579 16,1.73684211 L16,9.26315789 C16,10.2210263 15.2311429,11 14.2857143,11 Z" id="Fill-1"></path>
                        <path d="M8.29981357,7 C8.23650268,7 8.17349618,6.98203677 8.11992543,6.94554895 L0,1.45244889 L0.360080661,1 L8.29281284,6.36623474 L15.6216566,1.00617486 L16,1.44599336 L8.48913747,6.93937409 C8.43374044,6.97979136 8.366777,7 8.29981357,7" id="Fill-3"></path>
                    </g>
                </g>
            </g>
        </g>
    </g>
</svg>