<?xml version="1.0" encoding="UTF-8"?>
<svg width="21px" height="21px" viewBox="0 0 21 21" version="1.1" xmlns="http://www.w3.org/2000/svg" xmlns:xlink="http://www.w3.org/1999/xlink">
    <!-- Generator: Sketch 49.3 (51167) - http://www.bohemiancoding.com/sketch -->
    <title>Fax-icon@1x</title>
    <desc>Created with Sketch.</desc>
    <defs>
        <polygon id="path-1" points="0 18 18 18 18 0 0 0"></polygon>
    </defs>
    <g id="Fax-icon" stroke="none" stroke-width="1" fill="none" fill-rule="evenodd">
        <g id="Group-6" transform="translate(2.000000, 2.000000)">
            <g id="Page-1">
                <polyline id="Stroke-1" stroke="#5C5C68" stroke-width="0.760000002" points="8.625 4.875 8.625 0.375 14.25 0.375 16.125 1.875 16.125 4.875"></polyline>
                <g id="Group-23">
                    <path d="M7.125,16.125 C7.125,16.953375 6.453375,17.625 5.625,17.625 L3.375,17.625 C2.546625,17.625 1.875,16.953375 1.875,16.125 L1.875,4.5 C1.875,3.671625 2.546625,3 3.375,3 L5.625,3 C6.453375,3 7.125,3.671625 7.125,4.5 L7.125,16.125 Z" id="Stroke-5" stroke="#5C5C68" stroke-width="0.760000002"></path>
                    <path d="M7.125,4.875 L16.875,4.875 C17.2875,4.875 17.625,5.2125 17.625,5.625 L17.625,15.375 C17.625,15.7875 17.2875,16.125 16.875,16.125 L7.125,16.125" id="Stroke-7" stroke="#5C5C68" stroke-width="0.760000002"></path>
                    <path d="M1.875,16.125 L1.125,16.125 C0.7125,16.125 0.375,15.7875 0.375,15.375 L0.375,5.625 C0.375,5.2125 0.7125,4.875 1.125,4.875 L1.875,4.875" id="Stroke-9" stroke="#5C5C68" stroke-width="0.760000002"></path>
                    <mask id="mask-2" fill="white">
                        <use xlink:href="#path-1"></use>
                    </mask>
                    <g id="Clip-12"></g>
                    <polygon id="Stroke-11" stroke="#5C5C68" stroke-width="0.760000002" mask="url(#mask-2)" points="10.125 7.875 14.625 7.875 14.625 6.375 10.125 6.375"></polygon>
                    <polygon id="Fill-14" fill="#5C5C68" mask="url(#mask-2)" points="9.75 10.5 10.5 10.5 10.5 9.75 9.75 9.75"></polygon>
                    <polygon id="Fill-15" fill="#5C5C68" mask="url(#mask-2)" points="12 10.5 12.75 10.5 12.75 9.75 12 9.75"></polygon>
                    <polygon id="Fill-16" fill="#5C5C68" mask="url(#mask-2)" points="14.25 10.5 15 10.5 15 9.75 14.25 9.75"></polygon>
                    <polygon id="Fill-17" fill="#5C5C68" mask="url(#mask-2)" points="9.75 12 10.5 12 10.5 11.25 9.75 11.25"></polygon>
                    <polygon id="Fill-18" fill="#5C5C68" mask="url(#mask-2)" points="12 12 12.75 12 12.75 11.25 12 11.25"></polygon>
                    <polygon id="Fill-19" fill="#5C5C68" mask="url(#mask-2)" points="14.25 12 15 12 15 11.25 14.25 11.25"></polygon>
                    <polygon id="Fill-20" fill="#5C5C68" mask="url(#mask-2)" points="9.75 13.5 10.5 13.5 10.5 12.75 9.75 12.75"></polygon>
                    <polygon id="Fill-21" fill="#5C5C68" mask="url(#mask-2)" points="12 13.5 12.75 13.5 12.75 12.75 12 12.75"></polygon>
                    <polygon id="Fill-22" fill="#5C5C68" mask="url(#mask-2)" points="14.25 13.5 15 13.5 15 12.75 14.25 12.75"></polygon>
                </g>
            </g>
            <path d="M9.94736842,2.36842105 L13.7368421,2.36842105" id="Line-2" stroke="#5C5C68" stroke-width="0.949999988" stroke-linecap="square"></path>
            <path d="M3.31578947,2.36842105 L3.31578947,0.473684211" id="Line" stroke="#5C5C68" stroke-width="0.949999988" stroke-linecap="square"></path>
        </g>
    </g>
</svg>