<?xml version="1.0" encoding="UTF-8"?>
<svg width="10px" height="13px" viewBox="0 0 10 13" version="1.1" xmlns="http://www.w3.org/2000/svg" xmlns:xlink="http://www.w3.org/1999/xlink">
    <!-- Generator: Sketch 49.1 (51147) - http://www.bohemiancoding.com/sketch -->
    <title>Page 1</title>
    <desc>Created with Sketch.</desc>
    <defs>
        <polygon id="path-1" points="0 0 10 0 10 13 0 13"></polygon>
    </defs>
    <g id="desktop" stroke="none" stroke-width="1" fill="none" fill-rule="evenodd">
        <g id="results-item-detail" transform="translate(-431.000000, -438.000000)">
            <g id="Group-14" transform="translate(154.000000, 190.000000)">
                <g id="Group-6" transform="translate(38.000000, 234.000000)">
                    <g id="Group-10" transform="translate(224.000000, 0.000000)">
                        <g id="Page-1" transform="translate(15.000000, 14.000000)">
                            <mask id="mask-2" fill="white">
                                <use xlink:href="#path-1"></use>
                            </mask>
                            <g id="Clip-2"></g>
                            <path d="M8.92112362,4.66037736 L8.32174786,4.66037736 L8.32174786,5.80683019 L8.08199755,5.80683019 L8.08199755,4.66037736 L8.08199755,4.53773585 C8.08199755,4.2625283 7.75162163,3.9245283 7.48262179,3.9245283 L6.40374542,3.9245283 L6.40374542,5.27358491 L6.16399511,5.27358491 L6.16399511,3.9245283 L6.16399511,3.80188679 C6.16399511,3.53183019 5.8055684,3.43396226 5.56461935,3.43396226 L4.48574297,3.43396226 L4.48574297,5.27358491 L4.24599266,5.27358491 L4.24599266,3.43396226 L4.24599266,3.06603774 L4.24599266,0.858490566 C4.24599266,0.417226415 3.83817739,0 3.40686659,0 C2.97555579,0 2.56774053,0.417226415 2.56774053,0.858490566 L2.56774053,8.26775472 L0.92449193,6.58683019 C0.704161399,6.39403774 0.349330947,6.396 0.135233924,6.6155283 C-0.0805413511,6.83579245 -0.00933551031,7.18213208 0.148420191,7.41049057 C0.178628729,7.46837736 2.31576295,11.7215849 3.22753337,13 L8.59506321,13 L9.7664832,9.40464151 C9.91872465,8.85839623 10,8.27658491 10,7.72641509 L10,5.51886792 C10,5.0930566 9.3723337,4.66037736 8.92112362,4.66037736" id="Fill-1" fill="#FFFFFF" mask="url(#mask-2)"></path>
                        </g>
                    </g>
                </g>
            </g>
        </g>
    </g>
</svg>