<?xml version="1.0" encoding="UTF-8"?>
<svg width="12px" height="18px" viewBox="0 0 12 18" version="1.1" xmlns="http://www.w3.org/2000/svg" xmlns:xlink="http://www.w3.org/1999/xlink">
    <!-- Generator: Sketch 49.1 (51147) - http://www.bohemiancoding.com/sketch -->
    <title>Page 1</title>
    <desc>Created with Sketch.</desc>
    <defs></defs>
    <g id="desktop" stroke="none" stroke-width="1" fill="none" fill-rule="evenodd">
        <g id="results" transform="translate(-786.000000, -268.000000)" fill="#5C5C68">
            <g id="Group-12" transform="translate(784.000000, 262.000000)">
                <g id="Group-6" transform="translate(2.000000, 0.000000)">
                    <g id="Page-1" transform="translate(0.000000, 6.000000)">
                        <path d="M6,0.6 C3.00657143,0.6 0.571428571,3.1569 0.571428571,6.3 C0.571428571,9.1059 4.93942857,15.6438 6,17.1903 C7.06057143,15.6438 11.4285714,9.1059 11.4285714,6.3 C11.4285714,3.1569 8.99342857,0.6 6,0.6 M6,18 C5.90971429,18 5.82457143,17.955 5.77057143,17.8788 C5.53485714,17.5452 0,9.6744 0,6.3 C0,2.8263 2.69171429,0 6,0 C9.30828571,0 12,2.8263 12,6.3 C12,9.6744 6.46514286,17.5452 6.22942857,17.8788 C6.17542857,17.955 6.09028571,18 6,18" id="Fill-1"></path>
                        <path d="M6,3.90909091 C4.79942222,3.90909091 3.82222222,4.90818182 3.82222222,6.13636364 C3.82222222,7.36454545 4.79942222,8.36363636 6,8.36363636 C7.20057778,8.36363636 8.17777778,7.36454545 8.17777778,6.13636364 C8.17777778,4.90818182 7.20057778,3.90909091 6,3.90909091 M6,9 C4.45595556,9 3.2,7.7155 3.2,6.13636364 C3.2,4.55722727 4.45595556,3.27272727 6,3.27272727 C7.54404444,3.27272727 8.8,4.55722727 8.8,6.13636364 C8.8,7.7155 7.54404444,9 6,9" id="Fill-3"></path>
                    </g>
                </g>
            </g>
        </g>
    </g>
</svg>