<svg xmlns="http://www.w3.org/2000/svg" 
    xmlns:xlink="http://www.w3.org/1999/xlink" width="47px" height="60px" viewBox="0 0 47 60" version="1.1" class="svg  replaced-svg">
    <!-- Generator: Sketch 49.3 (51167) - http://www.bohemiancoding.com/sketch -->
    <title>Page 1</title>
    <desc>Created with Sketch.</desc>
    <defs>
        <polygon id="path-1" points="0 60 47 60 47 0 0 0"></polygon>
    </defs>
    <g id="desktop" stroke="none" stroke-width="1" fill="none" fill-rule="evenodd">
        <g id="dashboard-pro" transform="translate(-611.000000, -863.000000)">
            <g id="Page-1" transform="translate(611.000000, 863.000000)">
                <path d="M2.04347826,58 L44.9565217,58 L44.9565217,15.454 L29.2462609,2 L2.04347826,2 L2.04347826,58 Z M45.9782609,60 L1.02173913,60 C0.45773913,60 0,59.553 0,59 L0,1 C0,0.447 0.45773913,0 1.02173913,0 L29.6304348,0 C29.8776957,0 30.1167826,0.088 30.3037609,0.247 L46.651587,14.247 C46.8722826,14.437 47,14.712 47,15 L47,59 C47,59.553 46.5422609,60 45.9782609,60 Z" id="Fill-1" fill="#FF9502"></path>
                <path d="M45.9782609,16 L29.6304348,16 C29.0664348,16 28.6086957,15.553 28.6086957,15 L28.6086957,1 L30.6521739,1 L30.6521739,14 L45.9782609,14 L45.9782609,16 Z" id="Fill-3" fill="#FF9502"></path>
                <mask id="mask-2" fill="white">
                    <use xlink:href="#path-1"></use>
                </mask>
                <g id="Clip-6"></g>
                <path d="M10.2173913,52 L36.7826087,52 L36.7826087,22 L10.2173913,22 L10.2173913,52 Z M8.17391304,54 L38.826087,54 L38.826087,20 L8.17391304,20 L8.17391304,54 Z" id="Fill-5" fill="#FF9502" mask="url(#mask-2)"></path>
                <path d="M37.8043478,30 L9.19565217,30 C8.63165217,30 8.17391304,29.553 8.17391304,29 C8.17391304,28.447 8.63165217,28 9.19565217,28 L37.8043478,28 C38.3683478,28 38.826087,28.447 38.826087,29 C38.826087,29.553 38.3683478,30 37.8043478,30" id="Fill-7" fill="#FF9502" mask="url(#mask-2)"></path>
                <path d="M37.8043478,38 L9.19565217,38 C8.63165217,38 8.17391304,37.553 8.17391304,37 C8.17391304,36.447 8.63165217,36 9.19565217,36 L37.8043478,36 C38.3683478,36 38.826087,36.447 38.826087,37 C38.826087,37.553 38.3683478,38 37.8043478,38" id="Fill-8" fill="#FF9502" mask="url(#mask-2)"></path>
                <path d="M37.8043478,46 L9.19565217,46 C8.63165217,46 8.17391304,45.553 8.17391304,45 C8.17391304,44.447 8.63165217,44 9.19565217,44 L37.8043478,44 C38.3683478,44 38.826087,44.447 38.826087,45 C38.826087,45.553 38.3683478,46 37.8043478,46" id="Fill-9" fill="#FF9502" mask="url(#mask-2)"></path>
                <path d="M19.4130435,54 C18.8490435,54 18.3913043,53.553 18.3913043,53 L18.3913043,21 C18.3913043,20.447 18.8490435,20 19.4130435,20 C19.9770435,20 20.4347826,20.447 20.4347826,21 L20.4347826,53 C20.4347826,53.553 19.9770435,54 19.4130435,54" id="Fill-10" fill="#FF9502" mask="url(#mask-2)"></path>
            </g>
        </g>
    </g>
</svg>