<svg xmlns="http://www.w3.org/2000/svg" xmlns:xlink="http://www.w3.org/1999/xlink" width="52px" height="54px" viewBox="0 0 52 54" version="1.1" class="svg  replaced-svg">
    <!-- Generator: Sketch 49.3 (51167) - http://www.bohemiancoding.com/sketch -->
    <title>Page 1</title>
    <desc>Created with Sketch.</desc>
    <defs></defs>
    <g id="desktop" stroke="none" stroke-width="1" fill="none" fill-rule="evenodd">
        <g id="dashboard-pro" transform="translate(-940.000000, -1074.000000)" fill="#FF9502">
            <g id="Page-1" transform="translate(940.000000, 1074.000000)">
                <path d="M6,52 L42,52 L42,2 L6,2 L6,52 Z M43,54 L5,54 C4.447,54 4,53.552 4,53 L4,1 C4,0.448 4.447,0 5,0 L43,0 C43.553,0 44,0.448 44,1 L44,53 C44,53.552 43.553,54 43,54 Z" id="Fill-1"></path>
                <path d="M18,22 L32,22 L32,12 L18,12 L18,22 Z M33,24 L17,24 C16.447,24 16,23.552 16,23 L16,11 C16,10.448 16.447,10 17,10 L33,10 C33.553,10 34,10.448 34,11 L34,23 C34,23.552 33.553,24 33,24 Z" id="Fill-3"></path>
                <path d="M9,48 L1,48 C0.447,48 0,47.552 0,47 C0,46.448 0.447,46 1,46 L9,46 C9.553,46 10,46.448 10,47 C10,47.552 9.553,48 9,48" id="Fill-4"></path>
                <path d="M9,40 L1,40 C0.447,40 0,39.552 0,39 C0,38.448 0.447,38 1,38 L9,38 C9.553,38 10,38.448 10,39 C10,39.552 9.553,40 9,40" id="Fill-5"></path>
                <path d="M9,32 L1,32 C0.447,32 0,31.552 0,31 C0,30.448 0.447,30 1,30 L9,30 C9.553,30 10,30.448 10,31 C10,31.552 9.553,32 9,32" id="Fill-6"></path>
                <path d="M9,24 L1,24 C0.447,24 0,23.552 0,23 C0,22.448 0.447,22 1,22 L9,22 C9.553,22 10,22.448 10,23 C10,23.552 9.553,24 9,24" id="Fill-7"></path>
                <path d="M9,16 L1,16 C0.447,16 0,15.552 0,15 C0,14.448 0.447,14 1,14 L9,14 C9.553,14 10,14.448 10,15 C10,15.552 9.553,16 9,16" id="Fill-8"></path>
                <path d="M9,8 L1,8 C0.447,8 0,7.552 0,7 C0,6.448 0.447,6 1,6 L9,6 C9.553,6 10,6.448 10,7 C10,7.552 9.553,8 9,8" id="Fill-9"></path>
                <path d="M44,14 L50,14 L50,6 L44,6 L44,14 Z M51,16 L43,16 C42.447,16 42,15.552 42,15 L42,5 C42,4.448 42.447,4 43,4 L51,4 C51.553,4 52,4.448 52,5 L52,15 C52,15.552 51.553,16 51,16 Z" id="Fill-10"></path>
                <path d="M44,24 L50,24 L50,16 L44,16 L44,24 Z M51,26 L43,26 C42.447,26 42,25.552 42,25 L42,15 C42,14.448 42.447,14 43,14 L51,14 C51.553,14 52,14.448 52,15 L52,25 C52,25.552 51.553,26 51,26 Z" id="Fill-11"></path>
                <path d="M44,34 L50,34 L50,26 L44,26 L44,34 Z M51,36 L43,36 C42.447,36 42,35.552 42,35 L42,25 C42,24.448 42.447,24 43,24 L51,24 C51.553,24 52,24.448 52,25 L52,35 C52,35.552 51.553,36 51,36 Z" id="Fill-12"></path>
                <path d="M44,44 L50,44 L50,36 L44,36 L44,44 Z M51,46 L43,46 C42.447,46 42,45.552 42,45 L42,35 C42,34.448 42.447,34 43,34 L51,34 C51.553,34 52,34.448 52,35 L52,45 C52,45.552 51.553,46 51,46 Z" id="Fill-13"></path>
            </g>
        </g>
    </g>
</svg>