<svg xmlns="http://www.w3.org/2000/svg" xmlns:xlink="http://www.w3.org/1999/xlink" width="58px" height="58px" viewBox="0 0 58 58" version="1.1" class="svg  replaced-svg">
    <!-- Generator: Sketch 49.3 (51167) - http://www.bohemiancoding.com/sketch -->
    <title>Page 1</title>
    <desc>Created with Sketch.</desc>
    <defs></defs>
    <g id="desktop" stroke="none" stroke-width="1" fill="none" fill-rule="evenodd">
        <g id="dashboard-pro" transform="translate(-275.000000, -1269.000000)" fill="#FF9502">
            <g id="Page-1" transform="translate(275.000000, 1269.000000)">
                <path d="M53,44 C52.448,44 52,43.552 52,43 L52,15 C52,14.448 52.448,14 53,14 C53.552,14 54,14.448 54,15 L54,43 C54,43.552 53.552,44 53,44" id="Fill-1"></path>
                <path d="M43,6 L15,6 C14.448,6 14,5.552 14,5 C14,4.448 14.448,4 15,4 L43,4 C43.552,4 44,4.448 44,5 C44,5.552 43.552,6 43,6" id="Fill-3"></path>
                <path d="M5,44 C4.448,44 4,43.552 4,43 L4,16 C4,15.448 4.448,15 5,15 C5.552,15 6,15.448 6,16 L6,43 C6,43.552 5.552,44 5,44" id="Fill-5"></path>
                <path d="M43,54 L15,54 C14.448,54 14,53.552 14,53 C14,52.448 14.448,52 15,52 L43,52 C43.552,52 44,52.448 44,53 C44,53.552 43.552,54 43,54" id="Fill-7"></path>
                <path d="M53,2 C51.346,2 50,3.346 50,5 C50,6.654 51.346,8 53,8 C54.654,8 56,6.654 56,5 C56,3.346 54.654,2 53,2 M53,10 C50.243,10 48,7.757 48,5 C48,2.243 50.243,0 53,0 C55.757,0 58,2.243 58,5 C58,7.757 55.757,10 53,10" id="Fill-9"></path>
                <path d="M5,3 C3.346,3 2,4.346 2,6 C2,7.654 3.346,9 5,9 C6.654,9 8,7.654 8,6 C8,4.346 6.654,3 5,3 M5,11 C2.243,11 0,8.757 0,6 C0,3.243 2.243,1 5,1 C7.757,1 10,3.243 10,6 C10,8.757 7.757,11 5,11" id="Fill-11"></path>
                <path d="M53,50 C51.346,50 50,51.346 50,53 C50,54.654 51.346,56 53,56 C54.654,56 56,54.654 56,53 C56,51.346 54.654,50 53,50 M53,58 C50.243,58 48,55.757 48,53 C48,50.243 50.243,48 53,48 C55.757,48 58,50.243 58,53 C58,55.757 55.757,58 53,58" id="Fill-13"></path>
                <path d="M5,50 C3.346,50 2,51.346 2,53 C2,54.654 3.346,56 5,56 C6.654,56 8,54.654 8,53 C8,51.346 6.654,50 5,50 M5,58 C2.243,58 0,55.757 0,53 C0,50.243 2.243,48 5,48 C7.757,48 10,50.243 10,53 C10,55.757 7.757,58 5,58" id="Fill-15"></path>
            </g>
        </g>
    </g>
</svg>