<svg xmlns="http://www.w3.org/2000/svg" xmlns:xlink="http://www.w3.org/1999/xlink" width="60px" height="60px" viewBox="0 0 60 60" version="1.1" class="svg  replaced-svg">
    <!-- Generator: Sketch 49.3 (51167) - http://www.bohemiancoding.com/sketch -->
    <title>Page 1</title>
    <desc>Created with Sketch.</desc>
    <defs>
        <polygon id="path-1" points="0 0.000276637861 60 0.000276637861 60 59.9996 0 59.9996"></polygon>
    </defs>
    <g id="desktop" stroke="none" stroke-width="1" fill="none" fill-rule="evenodd">
        <g id="dashboard-pro" transform="translate(-604.000000, -1269.000000)">
            <g id="Page-1" transform="translate(604.000000, 1269.000000)">
                <path d="M22.4346,38.5654 C22.1786,38.5654 21.9226,38.4674 21.7276,38.2724 C21.3366,37.8814 21.3366,37.2494 21.7276,36.8584 L58.2926,0.2934 C58.6836,-0.0976 59.3166,-0.0976 59.7066,0.2934 C60.0976,0.6834 60.0976,1.3164 59.7066,1.7074 L23.1416,38.2724 C22.9466,38.4674 22.6906,38.5654 22.4346,38.5654" id="Fill-1" fill="#FF9502"></path>
                <g id="Group-5">
                    <mask id="mask-2" fill="white">
                        <use xlink:href="#path-1"></use>
                    </mask>
                    <g id="Clip-4"></g>
                    <path d="M3.2925,26.1006 L22.9095,36.6856 C23.0815,36.7776 23.2225,36.9186 23.3145,37.0906 L33.8995,56.7076 L57.0855,2.9136 L3.2925,26.1006 Z M34.0005,59.9996 C33.6335,59.9996 33.2945,59.7996 33.1205,59.4756 L21.6965,38.3036 L0.5245,26.8796 C0.1885,26.6986 -0.0165,26.3386 0.0005,25.9556 C0.0175,25.5736 0.2515,25.2336 0.6045,25.0816 L58.6045,0.0816 C58.9805,-0.0794 59.4175,0.0026 59.7075,0.2926 C59.9965,0.5826 60.0805,1.0196 59.9185,1.3956 L34.9185,59.3956 C34.7665,59.7476 34.4265,59.9826 34.0435,59.9986 C34.0295,59.9996 34.0145,59.9996 34.0005,59.9996 Z" id="Fill-3" fill="#FF9502" mask="url(#mask-2)"></path>
                </g>
            </g>
        </g>
    </g>
</svg>