<svg xmlns="http://www.w3.org/2000/svg" xmlns:xlink="http://www.w3.org/1999/xlink" width="62px" height="60px" viewBox="0 0 62 60" version="1.1" class="svg  replaced-svg">
    <!-- Generator: Sketch 49.3 (51167) - http://www.bohemiancoding.com/sketch -->
    <title>Page 1</title>
    <desc>Created with Sketch.</desc>
    <defs></defs>
    <g id="desktop" stroke="none" stroke-width="1" fill="none" fill-rule="evenodd">
        <g id="dashboard-pro" transform="translate(-603.000000, -1480.000000)" fill="#ff9502">
            <g id="Page-1" transform="translate(603.000000, 1480.000000)">
                <path d="M2.06666667,58 L24.8,58 L24.8,36 L2.06666667,36 L2.06666667,58 Z M25.8333333,60 L1.03333333,60 C0.4619,60 0,59.552 0,59 L0,35 C0,34.448 0.4619,34 1.03333333,34 L25.8333333,34 C26.4047667,34 26.8666667,34.448 26.8666667,35 L26.8666667,59 C26.8666667,59.552 26.4047667,60 25.8333333,60 Z" id="Fill-1"></path>
                <path d="M37.2,58 L59.9333333,58 L59.9333333,36 L37.2,36 L37.2,58 Z M60.9666667,60 L36.1666667,60 C35.5952333,60 35.1333333,59.552 35.1333333,59 L35.1333333,35 C35.1333333,34.448 35.5952333,34 36.1666667,34 L60.9666667,34 C61.5381,34 62,34.448 62,35 L62,59 C62,59.552 61.5381,60 60.9666667,60 Z" id="Fill-3"></path>
                <path d="M52.7,36 C52.1285667,36 51.6666667,35.552 51.6666667,35 L51.6666667,30 L10.3333333,30 L10.3333333,35 C10.3333333,35.552 9.87143333,36 9.3,36 C8.72856667,36 8.26666667,35.552 8.26666667,35 L8.26666667,29 C8.26666667,28.448 8.72856667,28 9.3,28 L52.7,28 C53.2714333,28 53.7333333,28.448 53.7333333,29 L53.7333333,35 C53.7333333,35.552 53.2714333,36 52.7,36" id="Fill-4"></path>
                <path d="M34.1,30 C33.5285667,30 33.0666667,29.552 33.0666667,29 L33.0666667,25 C33.0666667,24.448 33.5285667,24 34.1,24 C34.6714333,24 35.1333333,24.448 35.1333333,25 L35.1333333,29 C35.1333333,29.552 34.6714333,30 34.1,30" id="Fill-5"></path>
                <path d="M54.7666667,42 L42.3666667,42 C41.7952333,42 41.3333333,41.552 41.3333333,41 C41.3333333,40.448 41.7952333,40 42.3666667,40 L54.7666667,40 C55.3381,40 55.8,40.448 55.8,41 C55.8,41.552 55.3381,42 54.7666667,42" id="Fill-6"></path>
                <path d="M22.7333333,24 L45.4666667,24 L45.4666667,2 L22.7333333,2 L22.7333333,24 Z M46.5,26 L21.7,26 C21.1285667,26 20.6666667,25.552 20.6666667,25 L20.6666667,1 C20.6666667,0.448 21.1285667,0 21.7,0 L46.5,0 C47.0714333,0 47.5333333,0.448 47.5333333,1 L47.5333333,25 C47.5333333,25.552 47.0714333,26 46.5,26 Z" id="Fill-7"></path>
                <path d="M40.3,8 L27.9,8 C27.3285667,8 26.8666667,7.552 26.8666667,7 C26.8666667,6.448 27.3285667,6 27.9,6 L40.3,6 C40.8714333,6 41.3333333,6.448 41.3333333,7 C41.3333333,7.552 40.8714333,8 40.3,8" id="Fill-8"></path>
                <path d="M19.6333333,42 L7.23333333,42 C6.6619,42 6.2,41.552 6.2,41 C6.2,40.448 6.6619,40 7.23333333,40 L19.6333333,40 C20.2047667,40 20.6666667,40.448 20.6666667,41 C20.6666667,41.552 20.2047667,42 19.6333333,42" id="Fill-9"></path>
            </g>
        </g>
    </g>
</svg>