<svg xmlns="http://www.w3.org/2000/svg" 
    xmlns:xlink="http://www.w3.org/1999/xlink" width="62px" height="38px" viewBox="0 0 62 38" version="1.1" class="svg  replaced-svg">
    <!-- Generator: Sketch 49.3 (51167) - http://www.bohemiancoding.com/sketch -->
    <title>Page 1</title>
    <desc>Created with Sketch.</desc>
    <defs></defs>
    <g id="desktop" stroke="none" stroke-width="1" fill="none" fill-rule="evenodd">
        <g id="dashboard-pro" transform="translate(-272.000000, -674.000000)" fill="#FF9502">
            <g id="Page-1" transform="translate(272.000000, 674.000000)">
                <path d="M6.2,2 C3.88223333,2 2.06666667,3.757 2.06666667,6 L2.06666667,32 C2.06666667,34.243 3.88223333,36 6.2,36 L55.8,36 C58.1177667,36 59.9333333,34.243 59.9333333,32 L59.9333333,6 C59.9333333,3.757 58.1177667,2 55.8,2 L6.2,2 Z M55.8,38 L6.2,38 C2.72283333,38 0,35.364 0,32 L0,6 C0,2.636 2.72283333,0 6.2,0 L55.8,0 C59.2761333,0 62,2.636 62,6 L62,32 C62,35.364 59.2761333,38 55.8,38 Z" id="Fill-1"></path>
                <path d="M60.9666667,12 L1.03333333,12 C0.4619,12 0,11.552 0,11 C0,10.448 0.4619,10 1.03333333,10 L60.9666667,10 C61.5381,10 62,10.448 62,11 C62,11.552 61.5381,12 60.9666667,12" id="Fill-3"></path>
                <path d="M52.7,20 L42.3666667,20 C41.7952333,20 41.3333333,19.552 41.3333333,19 C41.3333333,18.448 41.7952333,18 42.3666667,18 L52.7,18 C53.2714333,18 53.7333333,18.448 53.7333333,19 C53.7333333,19.552 53.2714333,20 52.7,20" id="Fill-5"></path>
                <path d="M29.9666667,20 L9.3,20 C8.72856667,20 8.26666667,19.552 8.26666667,19 C8.26666667,18.448 8.72856667,18 9.3,18 L29.9666667,18 C30.5381,18 31,18.448 31,19 C31,19.552 30.5381,20 29.9666667,20" id="Fill-7"></path>
                <path d="M17.5666667,26 L9.3,26 C8.72856667,26 8.26666667,25.552 8.26666667,25 C8.26666667,24.448 8.72856667,24 9.3,24 L17.5666667,24 C18.1381,24 18.6,24.448 18.6,25 C18.6,25.552 18.1381,26 17.5666667,26" id="Fill-9"></path>
            </g>
        </g>
    </g>
</svg>