<svg xmlns="http://www.w3.org/2000/svg" 
    xmlns:xlink="http://www.w3.org/1999/xlink" width="60px" height="58px" viewBox="0 0 60 58" version="1.1" class="svg  replaced-svg">
    <!-- Generator: Sketch 49.3 (51167) - http://www.bohemiancoding.com/sketch -->
    <title>Page 1</title>
    <desc>Created with Sketch.</desc>
    <defs>
        <polygon id="path-1" points="0 58 60 58 60 0 0 0"></polygon>
    </defs>
    <g id="desktop" stroke="none" stroke-width="1" fill="none" fill-rule="evenodd">
        <g id="dashboard-pro" transform="translate(-936.000000, -662.000000)">
            <g id="Page-1" transform="translate(936.000000, 662.000000)">
                <path d="M59,58 L1,58 C0.448,58 0,57.5679 0,57.0333333 L0,4.83333333 C0,4.29876667 0.448,3.86666667 1,3.86666667 L11,3.86666667 C11.552,3.86666667 12,4.29876667 12,4.83333333 C12,5.3679 11.552,5.8 11,5.8 L2,5.8 L2,56.0666667 L58,56.0666667 L58,5.8 L49,5.8 C48.448,5.8 48,5.3679 48,4.83333333 C48,4.29876667 48.448,3.86666667 49,3.86666667 L59,3.86666667 C59.552,3.86666667 60,4.29876667 60,4.83333333 L60,57.0333333 C60,57.5679 59.552,58 59,58" id="Fill-1" fill="#ff9502"></path>
                <mask id="mask-2" fill="white">
                    <use xlink:href="#path-1"></use>
                </mask>
                <g id="Clip-4"></g>
                <path d="M12,9.66666667 L18,9.66666667 L18,1.93333333 L12,1.93333333 L12,9.66666667 Z M19,11.6 L11,11.6 C10.448,11.6 10,11.1679 10,10.6333333 L10,0.966666667 C10,0.4321 10.448,0 11,0 L19,0 C19.552,0 20,0.4321 20,0.966666667 L20,10.6333333 C20,11.1679 19.552,11.6 19,11.6 Z" id="Fill-3" fill="#ff9502" mask="url(#mask-2)"></path>
                <path d="M42,9.66666667 L48,9.66666667 L48,1.93333333 L42,1.93333333 L42,9.66666667 Z M49,11.6 L41,11.6 C40.448,11.6 40,11.1679 40,10.6333333 L40,0.966666667 C40,0.4321 40.448,0 41,0 L49,0 C49.552,0 50,0.4321 50,0.966666667 L50,10.6333333 C50,11.1679 49.552,11.6 49,11.6 Z" id="Fill-5" fill="#ff9502" mask="url(#mask-2)"></path>
                <path d="M41,5.8 L19,5.8 C18.448,5.8 18,5.3679 18,4.83333333 C18,4.29876667 18.448,3.86666667 19,3.86666667 L41,3.86666667 C41.552,3.86666667 42,4.29876667 42,4.83333333 C42,5.3679 41.552,5.8 41,5.8" id="Fill-6" fill="#ff9502" mask="url(#mask-2)"></path>
                <path d="M59,19.3333333 L1,19.3333333 C0.448,19.3333333 0,18.9012333 0,18.3666667 C0,17.8321 0.448,17.4 1,17.4 L59,17.4 C59.552,17.4 60,17.8321 60,18.3666667 C60,18.9012333 59.552,19.3333333 59,19.3333333" id="Fill-7" fill="#ff9502" mask="url(#mask-2)"></path>
                <path d="M15,53.1251 C14.448,53.1251 14,52.693 14,52.1584333 L14,22.9051667 C14,22.3715667 14.448,21.9385 15,21.9385 C15.552,21.9385 16,22.3715667 16,22.9051667 L16,52.1584333 C16,52.693 15.552,53.1251 15,53.1251" id="Fill-8" fill="#ff9502" mask="url(#mask-2)"></path>
                <path d="M29,53.1251 C28.448,53.1251 28,52.693 28,52.1584333 L28,22.9051667 C28,22.3715667 28.448,21.9385 29,21.9385 C29.552,21.9385 30,22.3715667 30,22.9051667 L30,52.1584333 C30,52.693 29.552,53.1251 29,53.1251" id="Fill-9" fill="#ff9502" mask="url(#mask-2)"></path>
                <path d="M43,53.1251 C42.448,53.1251 42,52.693 42,52.1584333 L42,22.9051667 C42,22.3715667 42.448,21.9385 43,21.9385 C43.552,21.9385 44,22.3715667 44,22.9051667 L44,52.1584333 C44,52.693 43.552,53.1251 43,53.1251" id="Fill-10" fill="#ff9502" mask="url(#mask-2)"></path>
                <path d="M53.9561,29 L6.0431,29 C5.4911,29 5.0431,28.5679 5.0431,28.0333333 C5.0431,27.4987667 5.4911,27.0666667 6.0431,27.0666667 L53.9561,27.0666667 C54.5081,27.0666667 54.9561,27.4987667 54.9561,28.0333333 C54.9561,28.5679 54.5081,29 53.9561,29" id="Fill-11" fill="#ff9502" mask="url(#mask-2)"></path>
                <path d="M53.9561,38.6666667 L6.0431,38.6666667 C5.4911,38.6666667 5.0431,38.2345667 5.0431,37.7 C5.0431,37.1654333 5.4911,36.7333333 6.0431,36.7333333 L53.9561,36.7333333 C54.5081,36.7333333 54.9561,37.1654333 54.9561,37.7 C54.9561,38.2345667 54.5081,38.6666667 53.9561,38.6666667" id="Fill-12" fill="#ff9502" mask="url(#mask-2)"></path>
                <path d="M53.9561,48.3333333 L6.0431,48.3333333 C5.4911,48.3333333 5.0431,47.9012333 5.0431,47.3666667 C5.0431,46.8321 5.4911,46.4 6.0431,46.4 L53.9561,46.4 C54.5081,46.4 54.9561,46.8321 54.9561,47.3666667 C54.9561,47.9012333 54.5081,48.3333333 53.9561,48.3333333" id="Fill-13" fill="#ff9502" mask="url(#mask-2)"></path>
            </g>
        </g>
    </g>
</svg>