<svg xmlns="http://www.w3.org/2000/svg" 
    xmlns:xlink="http://www.w3.org/1999/xlink" width="45px" height="60px" viewBox="0 0 45 60" version="1.1" class="svg  replaced-svg">
    <!-- Generator: Sketch 49.3 (51167) - http://www.bohemiancoding.com/sketch -->
    <title>Page 1 Copy</title>
    <desc>Created with Sketch.</desc>
    <defs></defs>
    <g id="desktop" stroke="none" stroke-width="1" fill="none" fill-rule="evenodd">
        <g id="dashboard-pro" transform="translate(-282.000000, -860.000000)" fill="#FF9502">
            <g id="Page-1-Copy" transform="translate(282.000000, 860.000000)">
                <path d="M2.04545455,58 L42.9545455,58 L42.9545455,15.417 L29.1047727,2 L2.04545455,2 L2.04545455,58 Z M43.9772727,60 L1.02272727,60 C0.458181818,60 0,59.553 0,59 L0,1 C0,0.447 0.458181818,0 1.02272727,0 L29.5261364,0 C29.7951136,0 30.0538636,0.104 30.2451136,0.29 L44.6972727,14.29 C44.8915909,14.478 45,14.733 45,15 L45,59 C45,59.553 44.5418182,60 43.9772727,60 Z" id="Fill-1"></path>
                <path d="M25.5681818,34 C25.2807955,34 24.9995455,33.882 24.8021591,33.662 L19.4318182,27.727 L14.0614773,33.662 C13.7802273,33.976 13.3281818,34.079 12.9334091,33.936 C12.5355682,33.788 12.2727273,33.416 12.2727273,33 L12.2727273,1 C12.2727273,0.447 12.7309091,0 13.2954545,0 C13.86,0 14.3181818,0.447 14.3181818,1 L14.3181818,30.36 L18.6657955,25.555 C19.0544318,25.125 19.8092045,25.125 20.1978409,25.555 L24.5454545,30.36 L24.5454545,1 C24.5454545,0.447 25.0036364,0 25.5681818,0 C26.1327273,0 26.5909091,0.447 26.5909091,1 L26.5909091,33 C26.5909091,33.416 26.3280682,33.788 25.9302273,33.936 C25.8126136,33.979 25.6898864,34 25.5681818,34" id="Fill-3"></path>
            </g>
        </g>
    </g>
</svg>