<svg xmlns="http://www.w3.org/2000/svg" 
    xmlns:xlink="http://www.w3.org/1999/xlink" width="43px" height="60px" viewBox="0 0 43 60" version="1.1" class="svg  replaced-svg">
    <!-- Generator: Sketch 49.3 (51167) - http://www.bohemiancoding.com/sketch -->
    <title>Page 1 Copy 3</title>
    <desc>Created with Sketch.</desc>
    <defs></defs>
    <g id="desktop" stroke="none" stroke-width="1" fill="none" fill-rule="evenodd">
        <g id="dashboard-pro" transform="translate(-943.000000, -859.000000)" fill="#FF9502">
            <g id="Page-1-Copy-3" transform="translate(943.000000, 859.000000)">
                <path d="M21.5,2 C10.7735476,2 2.04761905,10.523 2.04761905,21 C2.04761905,30.353 17.699619,52.146 21.5,57.301 C25.300381,52.146 40.952381,30.353 40.952381,21 C40.952381,10.523 32.2264524,2 21.5,2 M21.5,60 C21.1764762,60 20.871381,59.85 20.677881,59.596 C19.8332381,58.484 0,32.248 0,21 C0,9.421 9.64530952,0 21.5,0 C33.3546905,0 43,9.421 43,21 C43,32.248 23.1667619,58.484 22.322119,59.596 C22.128619,59.85 21.8235238,60 21.5,60" id="Fill-1"></path>
                <path d="M21.5,14 C17.549119,14 14.3333333,17.14 14.3333333,21 C14.3333333,24.86 17.549119,28 21.5,28 C25.450881,28 28.6666667,24.86 28.6666667,21 C28.6666667,17.14 25.450881,14 21.5,14 M21.5,30 C16.4188333,30 12.2857143,25.963 12.2857143,21 C12.2857143,16.037 16.4188333,12 21.5,12 C26.5811667,12 30.7142857,16.037 30.7142857,21 C30.7142857,25.963 26.5811667,30 21.5,30" id="Fill-3"></path>
            </g>
        </g>
    </g>
</svg>