<svg xmlns="http://www.w3.org/2000/svg" 
    xmlns:xlink="http://www.w3.org/1999/xlink" width="63px" height="63px" viewBox="0 0 63 63" version="1.1" class="svg  replaced-svg">
    <!-- Generator: Sketch 49.3 (51167) - http://www.bohemiancoding.com/sketch -->
    <title>Page 1</title>
    <desc>Created with Sketch.</desc>
    <defs></defs>
    <g id="desktop" stroke="none" stroke-width="1" fill="none" fill-rule="evenodd">
        <g id="dashboard-pro" transform="translate(-934.000000, -1266.000000)" fill="#FF9502">
            <g id="Page-1" transform="translate(934.000000, 1266.000000)">
                <path d="M31.5,2.1 C15.28905,2.1 2.1,15.28905 2.1,31.5 C2.1,39.0054 4.90245,46.09605 10.0107,51.56025 C12.936,49.77525 17.46465,48.1341 21.8547,46.5423 C22.96665,46.14015 24.0744,45.738 25.1538,45.33585 L25.1538,40.0974 C23.9022,39.3729 21.44205,37.3191 21.2016,32.3085 C20.1894,31.7982 19.54155,30.5172 19.54155,28.8519 C19.54155,27.3063 20.10015,26.09145 20.99055,25.5171 C20.98005,25.48035 20.96955,25.44255 20.95905,25.4037 C20.35005,23.23755 19.21815,19.20345 20.8383,17.0667 C21.3297,16.41675 22.35765,15.63765 24.1941,15.7815 C25.61265,12.94755 29.9481,11.9154 33.48555,11.9154 C37.3758,11.9154 42.22995,13.16385 43.10985,16.6824 C43.8795,19.76625 42.70875,23.4276 42.07875,25.39425 C42.0651,25.44045 42.04935,25.48665 42.03465,25.53285 C42.91035,26.11455 43.45845,27.321 43.45845,28.8519 C43.45845,30.5172 42.8106,31.7982 41.7984,32.3085 C41.55795,37.3191 39.0978,39.3729 37.84515,40.0974 L37.84515,45.33375 C39.04215,45.7779 40.2318,46.2084 41.3973,46.62945 C46.1265,48.3399 50.2677,49.8372 53.0187,51.52665 C58.10805,46.0677 60.9,38.9886 60.9,31.5 C60.9,15.28905 47.71095,2.1 31.5,2.1 M9.8553,53.96265 C9.5823,53.96265 9.3114,53.8566 9.1077,53.6508 C3.23505,47.71305 0,39.84645 0,31.5 C0,14.1309 14.1309,0 31.5,0 C48.8691,0 63,14.1309 63,31.5 C63,39.8307 59.77545,47.68575 53.9217,53.61825 C53.5626,53.98365 52.9935,54.0372 52.57245,53.74215 C50.085,52.0044 45.51855,50.35275 40.6833,48.6045 C39.2889,48.1005 37.85985,47.58285 36.4266,47.0463 C36.0171,46.893 35.74515,46.50135 35.74515,46.0635 L35.74515,39.44325 C35.74515,38.99175 36.03495,38.59065 36.46335,38.44785 C36.5841,38.40375 39.7173,37.20255 39.7173,31.5 C39.7173,30.9204 40.1877,30.45 40.7673,30.45 C41.03505,30.45 41.35845,29.73705 41.35845,28.8519 C41.35845,27.96675 41.03505,27.25485 40.7673,27.25485 C40.1877,27.25485 39.7173,26.78445 39.7173,26.20485 C39.7173,25.8846 39.8307,25.5297 40.07955,24.75375 C40.60455,23.11155 41.6976,19.69485 41.07285,17.19165 C40.61295,15.351 37.422,14.0154 33.48555,14.0154 C29.55015,14.0154 26.3592,15.351 25.8993,17.19165 C25.7628,17.7345 25.22625,18.07365 24.67395,17.96655 C24.3306,17.89725 24.01665,17.8626 23.7405,17.8626 C22.96035,17.8626 22.6653,18.13245 22.512,18.3351 C21.5229,19.64025 22.5813,23.41605 22.9803,24.8367 C23.19555,25.60215 23.2827,25.92345 23.2827,26.20485 C23.2827,26.78445 22.8123,27.25485 22.2327,27.25485 C21.96495,27.25485 21.64155,27.96675 21.64155,28.8519 C21.64155,29.73705 21.96495,30.45 22.2327,30.45 C22.8123,30.45 23.2827,30.9204 23.2827,31.5 C23.2827,37.20255 26.41485,38.40375 26.5482,38.45205 C26.964,38.6022 27.2538,39.00225 27.2538,39.44325 L27.2538,46.0635 C27.2538,46.5003 26.98395,46.8909 26.5755,47.04525 C25.2756,47.53665 23.9253,48.02595 22.57185,48.51735 C17.9088,50.2068 13.0872,51.954 10.4517,53.7768 C10.27005,53.90175 10.06215,53.96265 9.8553,53.96265" id="Fill-1"></path>
                <path d="M31.5,63 C23.0265,63 15.0738,59.6799 9.1077,53.65185 L10.6008,52.17345 C16.16895,57.80145 23.5914,60.9 31.5,60.9 C39.4233,60.9 46.8552,57.79095 52.4265,52.14405 L53.9217,53.61825 C47.95245,59.66835 39.98925,63 31.5,63" id="Fill-3"></path>
            </g>
        </g>
    </g>
</svg>