<svg xmlns="http://www.w3.org/2000/svg" 
    xmlns:xlink="http://www.w3.org/1999/xlink" width="76px" height="74px" viewBox="0 0 76 74" version="1.1" class="svg  replaced-svg">
    <!-- Generator: Sketch 50.2 (55047) - http://www.bohemiancoding.com/sketch -->
    <title>icon-edit-password</title>
    <desc>Created with Sketch.</desc>
    <defs></defs>
    <g id="icon-edit-password" stroke="none" stroke-width="1" fill="none" fill-rule="evenodd">
        <g id="Group" transform="translate(1.000000, 0.000000)" fill="#FF9502">
            <path d="M12.1987,43.58 L8.6707,57.694 L22.7847,54.166 L61.5887,15.362 C63.2247,13.725 64.0937,11.282 62.5887,9.775 L56.5887,3.775 C56.0737,3.261 55.4367,3 54.6957,3 C53.5127,3 52.0987,3.681 51.0027,4.775 L12.1987,43.58 Z M7.2957,60.069 C7.0337,60.069 6.7787,59.966 6.5887,59.775 C6.3407,59.527 6.2407,59.167 6.3257,58.827 L10.3257,42.827 C10.3697,42.65 10.4607,42.49 10.5887,42.362 L49.5887,3.362 C51.0677,1.883 52.9767,1 54.6957,1 C55.9687,1 57.1127,1.471 58.0027,2.362 L64.0027,8.362 C66.4367,10.795 65.3417,14.437 63.0027,16.775 L24.0027,55.775 C23.8747,55.904 23.7147,55.996 23.5387,56.039 L7.5387,60.039 C7.4577,60.059 7.3767,60.069 7.2957,60.069 Z" id="Fill-1"></path>
            <polygon id="Fill-4" points="60.5889 17.7753 48.5889 5.7753 50.0029 4.3613 62.0029 16.3613"></polygon>
            <polygon id="Fill-6" points="57.5889 20.7753 45.5889 8.7753 47.0029 7.3613 59.0029 19.3613"></polygon>
            <polygon id="Fill-8" points="22.5889 55.7753 10.5889 43.7753 12.0029 42.3613 24.0029 54.3613"></polygon>
            <path d="M0,71.4522 L73.836,71.4522" id="Fill-10"></path>
            <polygon id="Fill-12" points="0 72.4522 73.836 72.4522 73.836 70.4522 0 70.4522"></polygon>
        </g>
    </g>
</svg>