<svg xmlns="http://www.w3.org/2000/svg" xmlns:xlink="http://www.w3.org/1999/xlink" width="60px" height="55px" viewBox="0 0 60 55" version="1.1" class="svg  replaced-svg">
    <!-- Generator: Sketch 49.3 (51167) - http://www.bohemiancoding.com/sketch -->
    <title>Page 1</title>
    <desc>Created with Sketch.</desc>
    <defs></defs>
    <g id="desktop" stroke="none" stroke-width="1" fill="none" fill-rule="evenodd">
        <g id="dashboard-pro" transform="translate(-604.000000, -1071.000000)" fill="#FF9502">
            <g id="Page-1" transform="translate(604.000000, 1071.000000)">
                <path d="M59,54.7827 L1,54.7827 C0.448,54.7827 0,54.3347 0,53.7827 L0,13.7827 C0,13.2307 0.448,12.7827 1,12.7827 L19,12.7827 C19.552,12.7827 20,13.2307 20,13.7827 C20,14.3347 19.552,14.7827 19,14.7827 L2,14.7827 L2,52.7827 L58,52.7827 L58,14.7827 L41,14.7827 C40.448,14.7827 40,14.3347 40,13.7827 C40,13.2307 40.448,12.7827 41,12.7827 L59,12.7827 C59.552,12.7827 60,13.2307 60,13.7827 L60,53.7827 C60,54.3347 59.552,54.7827 59,54.7827" id="Fill-1"></path>
                <path d="M59,24.7827 L1,24.7827 C0.448,24.7827 0,24.3347 0,23.7827 C0,23.2307 0.448,22.7827 1,22.7827 L59,22.7827 C59.552,22.7827 60,23.2307 60,23.7827 C60,24.3347 59.552,24.7827 59,24.7827" id="Fill-3"></path>
                <path d="M42,32.7827 L31,32.7827 C30.448,32.7827 30,32.3347 30,31.7827 C30,31.2307 30.448,30.7827 31,30.7827 L42,30.7827 C42.552,30.7827 43,31.2307 43,31.7827 C43,32.3347 42.552,32.7827 42,32.7827" id="Fill-5"></path>
                <path d="M46,38.7827 L31,38.7827 C30.448,38.7827 30,38.3347 30,37.7827 C30,37.2307 30.448,36.7827 31,36.7827 L46,36.7827 C46.552,36.7827 47,37.2307 47,37.7827 C47,38.3347 46.552,38.7827 46,38.7827" id="Fill-7"></path>
                <path d="M44,44.7827 L31,44.7827 C30.448,44.7827 30,44.3347 30,43.7827 C30,43.2307 30.448,42.7827 31,42.7827 L44,42.7827 C44.552,42.7827 45,43.2307 45,43.7827 C45,44.3347 44.552,44.7827 44,44.7827" id="Fill-9"></path>
                <path d="M24,16.7827 L36,16.7827 L36,7.4067 C35.333,4.2677 32.823,1.9997 30,1.9997 C27.177,1.9997 24.667,4.2677 24,7.4067 L24,16.7827 Z M37,18.7827 L23,18.7827 C22.448,18.7827 22,18.3347 22,17.7827 L22,7.3037 C22,7.2387 22.006,7.1727 22.02,7.1087 C22.842,2.9897 26.198,-0.0003 30,-0.0003 C33.802,-0.0003 37.158,2.9897 37.98,7.1087 C37.994,7.1727 38,7.2387 38,7.3037 L38,17.7827 C38,18.3347 37.552,18.7827 37,18.7827 Z" id="Fill-11"></path>
                <path d="M17.3911,32.2612 C15.8561,32.2612 14.6081,33.5092 14.6081,35.0432 C14.6081,36.5772 15.8561,37.8262 17.3911,37.8262 C18.9251,37.8262 20.1741,36.5772 20.1741,35.0432 C20.1741,33.5092 18.9251,32.2612 17.3911,32.2612 M17.3911,39.8262 C14.7541,39.8262 12.6081,37.6802 12.6081,35.0432 C12.6081,32.4072 14.7541,30.2612 17.3911,30.2612 C20.0281,30.2612 22.1741,32.4072 22.1741,35.0432 C22.1741,37.6802 20.0281,39.8262 17.3911,39.8262" id="Fill-13"></path>
                <path d="M12.1211,46.7827 L22.6611,46.7827 C22.3721,42.6387 20.2871,39.8257 17.3911,39.8257 C14.4961,39.8257 12.4091,42.6387 12.1211,46.7827 M23.7151,48.7827 C23.7081,48.7827 23.7021,48.7827 23.6951,48.7827 L11.0871,48.7827 C10.5351,48.7827 10.0871,48.3347 10.0871,47.7827 C10.0871,41.9207 13.0901,37.8257 17.3911,37.8257 C21.6411,37.8257 24.6241,41.8247 24.6941,47.5767 C24.7081,47.6427 24.7151,47.7117 24.7151,47.7827 C24.7151,48.3347 24.2671,48.7827 23.7151,48.7827" id="Fill-15"></path>
            </g>
        </g>
    </g>
</svg>