<svg xmlns="http://www.w3.org/2000/svg" width="40" height="40" viewBox="0 0 40 40">
  <g id="ico_popup_quotes" transform="translate(-45.08)">
    <rect id="矩形_3106" data-name="矩形 3106" width="40" height="40" transform="translate(45.08)" fill="none"/>
    <path id="路径_5155" data-name="路径 5155" d="M47.29,35.8c-.726,0-1.21-.409-1.21-1.023V1.023C46.08.409,46.564,0,47.29,0H74.87c.726,0,1.21.409,1.21,1.023V16.006a11.335,11.335,0,0,0-2.419-.412V12.068H66.886v4.909a12.625,12.625,0,0,0-2.661,1.841l-.726.614H57.451v5.932h2.661c-.242.614-.242,1.023-.484,1.636H57.451v5.932h2.661c.242.614.422,1.162.794,2.1s.177.555.419.964H47.29Zm.968-2.864h7.016V27H48.257Zm0-7.568h7.016V19.636H48.257ZM57.451,17.8h7.016V12.068H57.451Zm-9.194,0h7.016V12.068H48.257Zm0-8.386h25.4V2.25h-25.4Z" fill="#333"/>
    <path id="欧元" d="M197.867,197.613a.792.792,0,0,1-.185,1.106,6.039,6.039,0,0,1-3.526,1.131,6.19,6.19,0,0,1-5.851-4.322H187.2a.793.793,0,1,1,0-1.586h.808c-.008-.132-.02-.263-.02-.4s.012-.265.02-.4H187.2a.793.793,0,1,1,0-1.586h1.106a6.19,6.19,0,0,1,5.851-4.322,6.038,6.038,0,0,1,3.526,1.131.793.793,0,1,1-.921,1.291,4.464,4.464,0,0,0-2.6-.836A4.579,4.579,0,0,0,190,191.562h3.54a.793.793,0,0,1,0,1.586h-3.951c-.011.131-.019.263-.019.4s.009.265.019.4h3.951a.793.793,0,0,1,0,1.586H190a4.579,4.579,0,0,0,4.152,2.736,4.463,4.463,0,0,0,2.6-.836A.791.791,0,0,1,197.867,197.613Zm7.178-4.068a11.5,11.5,0,1,1-11.5-11.5A11.5,11.5,0,0,1,205.044,193.544Zm-1.889,0a9.611,9.611,0,1,0-9.611,9.611A9.611,9.611,0,0,0,203.155,193.544Z" transform="translate(-120.964 -165.044)" fill="#333"/>
  </g>
</svg>
