<svg xmlns="http://www.w3.org/2000/svg" width="40" height="40" viewBox="0 0 40 40">
  <g id="ico_popup_catefory" transform="translate(-159 -68)">
    <rect id="矩形_3105" data-name="矩形 3105" width="40" height="40" transform="translate(159 68)" fill="none"/>
    <path id="路径_5158" data-name="路径 5158" d="M600.277,94.454h-8.95A2.328,2.328,0,0,1,589,92.127V84h2.059v8.127a.269.269,0,0,0,.268.269h8.95Z" transform="translate(-406.993 -15.284)" fill="#333"/>
    <path id="路径_5159" data-name="路径 5159" d="M189.712,108H164.288A2.326,2.326,0,0,1,162,105.644V70.356A2.326,2.326,0,0,1,164.288,68h1.77a1.023,1.023,0,0,1,0,2.044l-1.5.082a.3.3,0,0,0-.3.311v35.289a.3.3,0,0,0,.3.311l24.854-.085a.3.3,0,0,0,.3-.311V77.886l-8.4-7.842H173.4a1.023,1.023,0,0,1,0-2.044h8.288a.956.956,0,0,1,.652.253l9.324,8.4a1.04,1.04,0,0,1,.341.769v28.222A2.326,2.326,0,0,1,189.712,108ZM170.758,70.044h-1.683a1.023,1.023,0,0,1,0-2.044h1.683a1.023,1.023,0,0,1,0,2.044Z" transform="translate(2)" fill="#333"/>
    <path id="路径_5160" data-name="路径 5160" d="M294.591,266h1.521a.611.611,0,0,1,.591.626v1.611a.611.611,0,0,1-.591.626h-1.521a.611.611,0,0,1-.591-.626v-1.611A.611.611,0,0,1,294.591,266Zm4.857.4h4.266a1.031,1.031,0,0,1,0,2.059h-4.266a1.031,1.031,0,0,1,0-2.059Zm-4.857,6.041h1.521a.611.611,0,0,1,.591.626v1.611a.611.611,0,0,1-.591.627h-1.521a.611.611,0,0,1-.591-.627v-1.611A.611.611,0,0,1,294.591,272.444Zm4.857.4h12.079a1.031,1.031,0,0,1,0,2.059H299.448a1.031,1.031,0,0,1,0-2.059Z" transform="translate(-124.872 -189.218)" fill="#333"/>
    <path id="路径_5161" data-name="路径 5161" d="M294.591,554h1.521a.611.611,0,0,1,.591.627v1.611a.611.611,0,0,1-.591.627h-1.521a.611.611,0,0,1-.591-.627v-1.611A.611.611,0,0,1,294.591,554Zm4.857.4h12.079a1.031,1.031,0,0,1,0,2.059H299.448a1.031,1.031,0,0,1,0-2.059Z" transform="translate(-124.872 -464.411)" fill="#333"/>
    <path id="路径_5162" data-name="路径 5162" d="M294.591,698h1.521a.611.611,0,0,1,.591.627v1.611a.611.611,0,0,1-.591.627h-1.521a.611.611,0,0,1-.591-.627v-1.611A.611.611,0,0,1,294.591,698Zm4.857.4h12.079a1.031,1.031,0,0,1,0,2.059H299.448a1.031,1.031,0,0,1,0-2.059Z" transform="translate(-124.872 -602.015)" fill="#333"/>
  </g>
</svg>
