<svg xmlns="http://www.w3.org/2000/svg" width="40" height="40" viewBox="0 0 40 40">
  <path id="ico_popup_details" d="M25,15.794H22.5v2.5H25Zm2.5,2.5H30v-2.5H27.5Zm5,0H35v-2.5H32.5Zm2.5-7.5H22.5v2.5H35v-2.5ZM6.25,22.044h12.5A1.249,1.249,0,0,0,20,20.794a9.811,9.811,0,0,0-1.518-5.773,1.25,1.25,0,1,0-1.965,1.545,6.244,6.244,0,0,1,.92,2.978H7.562a6.244,6.244,0,0,1,.92-2.978,1.25,1.25,0,0,0-1.965-1.545A9.811,9.811,0,0,0,5,20.794a1.249,1.249,0,0,0,1.25,1.25Zm6.25-6.25c2.254,0,3.75-3.01,3.75-5a3.75,3.75,0,1,0-7.5,0C8.75,12.785,10.246,15.794,12.5,15.794Zm0-6.874a2.027,2.027,0,0,1,1.809,1.874A5.432,5.432,0,0,1,12.5,14.033c-.4-.054-1.737-2.146-1.738-3.239A1.964,1.964,0,0,1,12.5,8.92ZM36.588,2.044H3.412A3.416,3.416,0,0,0,0,5.456V31.132a3.416,3.416,0,0,0,3.412,3.412H36.588A3.416,3.416,0,0,0,40,31.132V5.456a3.416,3.416,0,0,0-3.412-3.412ZM3.412,4.544H36.588a.913.913,0,0,1,.912.912V25.237H2.5V5.456a.913.913,0,0,1,.912-.912Zm33.176,27.5H3.412a.913.913,0,0,1-.912-.912V27.044h35v4.088a.913.913,0,0,1-.912.912ZM18.75,30.794h2.5v-2.5h-2.5v2.5ZM30,39.544H27.839c-.4-.313-1.59-1.539-1.59-5h-2.5a11.038,11.038,0,0,0,1,5h-9.5a11.038,11.038,0,0,0,1-5h-2.5c0,3.765-1.171,4.663-1.6,5H10a1.25,1.25,0,0,0,0,2.5H30a1.25,1.25,0,0,0,0-2.5Z" transform="translate(0 -2.044)" fill="#333"/>
</svg>
