<svg xmlns="http://www.w3.org/2000/svg" xmlns:xlink="http://www.w3.org/1999/xlink" version="1.1" id="Capa_1" x="0px" y="0px" viewBox="0 0 512 512" style="enable-background:new 0 0 512 512;" xml:space="preserve" class="svg  replaced-svg">
<g>
	<g>
		<path d="M351.117,288.678l-69.513-42.712c-0.847-0.521-1.821-0.874-2.804-1.028l-21.763-3.84c-4.026-0.712-7.98,2.058-8.69,6.084    s2.057,7.98,6.083,8.69l20.537,3.624l68.297,41.965c3.334,2.049,7.907,1.054,10.12-2.166    C355.758,295.839,354.686,290.873,351.117,288.678z"></path>
	</g>
</g>
    <g>
	<g>
		<path d="M509.513,291.083c-2.83-3.027-7.576-3.187-10.603-0.359l-30.409,28.42L329.163,181.662L509.161,12.974    c3.022-2.833,3.176-7.58,0.344-10.602c-2.832-3.022-7.58-3.176-10.602-0.344l-185.69,174.022    c-3.062,2.869-3.126,7.865-0.139,10.813l12.325,12.159l-3.934,3.474l-82.381-7.094c-1.271-0.108-2.592,0.111-3.752,0.647    l-65.273,29.728c-0.19-0.049-0.38-0.097-0.577-0.132l-37.546-6.626l3.036-7.761c1.501-3.838-0.374-8.168-4.2-9.697L10.756,153.555    c-3.848-1.541-8.212,0.332-9.75,4.179c-1.539,3.846,0.332,8.212,4.179,9.75l113.103,45.242L51.636,383.055l-41.162-14.579    c-3.906-1.382-8.192,0.661-9.575,4.567c-1.383,3.905,0.662,8.192,4.567,9.575l48.006,17.002c3.768,1.335,8.034-0.618,9.489-4.338    L74.1,366.816l29.187,16.356l-3.219,5.218c-9.121,14.783-4.516,34.231,10.268,43.353c7.818,4.824,17.523,5.968,26.259,3.14    c1.401,9.104,6.751,17.228,14.596,22.068c7.818,4.824,17.522,5.968,26.259,3.14c1.402,9.104,6.75,17.227,14.595,22.068    c7.842,4.839,17.496,5.978,26.261,3.149c1.404,9.1,6.751,17.22,14.594,22.059c11.399,7.033,26.487,5.982,36.762-2.63    c2.59-2.171,4.819-4.762,6.593-7.638l5.117-8.292l4.213,2.588c11.414,7.013,26.498,5.933,36.757-2.698    c2.586-2.176,4.81-4.771,6.579-7.65c3.516-5.723,4.971-12.137,4.587-18.381c2.382,0.573,4.82,0.881,7.28,0.881    c10.894,0,21.199-5.745,26.9-15.023c3.434-5.59,5.003-11.963,4.605-18.378c2.376,0.57,4.809,0.876,7.261,0.876    c10.894,0,21.2-5.745,26.9-15.023c3.437-5.594,5.005-11.971,4.604-18.391c2.402,0.572,4.841,0.871,7.269,0.871    c10.594,0,20.953-5.334,26.894-15.003c9.094-14.801,4.452-34.24-10.349-43.334l-5.14-3.158l17.239-18.012l16.125,15.91    c2.828,2.789,7.489,2.851,10.39,0.141l35.671-33.337C512.182,298.857,512.342,294.11,509.513,291.083z M140.923,413.597    c-4.779,7.743-14.966,10.155-22.71,5.379c-7.744-4.778-10.156-14.965-5.379-22.709l42.014-68.091    c4.689-7.6,14.751-10.085,22.434-5.546c7.95,4.7,10.144,15.599,5.371,23.336L140.923,413.597z M181.776,438.805    c-4.777,7.743-14.965,10.156-22.708,5.379c-7.65-4.721-10.107-15.047-5.379-22.709l33.61-54.473    c4.689-7.599,14.751-10.085,22.434-5.546c7.95,4.7,10.144,15.599,5.37,23.336L181.776,438.805z M222.634,464.013    c-2.316,3.751-5.954,6.377-10.242,7.393c-4.291,1.017-8.718,0.3-12.469-2.014c-7.649-4.721-10.106-15.048-5.378-22.709    l25.208-40.855c4.689-7.6,14.752-10.085,22.434-5.546c7.95,4.7,10.144,15.599,5.371,23.336L222.634,464.013z M280.01,462.446    l-16.522,26.776c-4.721,7.65-15.047,10.105-22.71,5.378c-7.649-4.72-10.105-15.048-5.378-22.709l16.805-27.236    c4.689-7.598,14.752-10.087,22.434-5.545C282.589,443.809,284.783,454.709,280.01,462.446z M416.654,328.948l-37.182-22.847    c-3.448-2.119-8.199-0.984-10.317,2.464c-2.119,3.448-0.984,8.199,2.464,10.317l55.397,34.039    c7.752,4.764,10.184,14.946,5.421,22.699c-4.764,7.752-14.947,10.184-22.7,5.421l-59.413-36.508    c-3.529-2.17-8.149-1.065-10.317,2.464c-2.168,3.529-1.065,8.149,2.464,10.317l45.78,28.13    c7.659,4.706,10.134,15.029,5.421,22.699c-4.706,7.659-15.029,10.133-22.699,5.421l-41.488-25.493    c-3.53-2.169-8.149-1.065-10.317,2.464c-2.168,3.529-1.065,8.149,2.464,10.317l27.854,17.115    c7.658,4.707,10.134,15.028,5.421,22.699c-4.706,7.658-15.029,10.134-22.699,5.421c0,0-24.496-15.037-24.725-15.147    c-3.425-1.654-7.613-0.477-9.645,2.831c-2.168,3.529-1.065,8.149,2.464,10.317l10.419,6.402    c7.752,4.764,10.183,14.946,5.42,22.699c-4.706,7.659-15.029,10.133-22.699,5.421l-4.188-2.574l3.527-5.717    c4.509-7.308,5.908-16.308,3.838-24.692c-2.042-8.274-7.136-15.176-14.341-19.435c-5.622-3.322-11.911-4.668-18.035-4.255    c1.15-4.94,1.156-10.146-0.076-15.137c-2.042-8.274-7.136-15.176-14.341-19.435c-5.622-3.323-11.911-4.669-18.035-4.256    c3.093-13.288-2.601-27.585-14.417-34.571c-5.622-3.322-11.911-4.668-18.035-4.256c3.093-13.288-2.601-27.585-14.417-34.571    c-14.669-8.671-33.884-3.922-42.834,10.582l-30.91,50.096L79.62,352.711l46.738-119.442l25.448,4.491    c-7.238,8.99-9.273,21.647-4.173,32.848c5.278,11.588,16.744,18.445,28.718,18.444c4.361,0,8.79-0.91,13.011-2.832l43.928-20.008    c3.72-1.694,5.412-6.215,3.717-9.935c-1.694-3.719-6.215-5.413-9.935-3.717l-43.929,20.007    c-8.279,3.772-18.086,0.103-21.858-8.178c-3.771-8.281-0.103-18.086,8.178-21.858l70.294-32.015l83.618,7.201    c0.215,0.019,0.43,0.028,0.644,0.028c1.82,0,3.587-0.663,4.964-1.877l7.118-6.285l100.186,98.849L416.654,328.948z"></path>
	</g>
</g>
    <g>
</g>
    <g>
</g>
    <g>
</g>
    <g>
</g>
    <g>
</g>
    <g>
</g>
    <g>
</g>
    <g>
</g>
    <g>
</g>
    <g>
</g>
    <g>
</g>
    <g>
</g>
    <g>
</g>
    <g>
</g>
    <g>
</g>
</svg>