<?xml version="1.0" encoding="UTF-8"?>
<svg width="62px" height="63px" viewBox="0 0 62 63" version="1.1" xmlns="http://www.w3.org/2000/svg" xmlns:xlink="http://www.w3.org/1999/xlink">
    <!-- Generator: Sketch 49.3 (51167) - http://www.bohemiancoding.com/sketch -->
    <title>Page 1</title>
    <desc>Created with Sketch.</desc>
    <defs></defs>
    <g id="desktop" stroke="none" stroke-width="1" fill="none" fill-rule="evenodd">
        <g id="quote-page" transform="translate(-856.000000, -2336.000000)" fill="#B2B2B2">
            <g id="Page-1" transform="translate(856.000000, 2336.000000)">
                <path d="M53.1428571,63 L8.85714286,63 C3.80746429,63 0,59.2684462 0,54.3194444 L0,49.0850694 C0,48.485026 0.496,48 1.10714286,48 C1.71828571,48 2.21428571,48.485026 2.21428571,49.0850694 L2.21428571,54.3194444 C2.21428571,58.031467 5.07071429,60.8298611 8.85714286,60.8298611 L53.1428571,60.8298611 C56.9292857,60.8298611 59.7857143,58.031467 59.7857143,54.3194444 L59.7857143,49.0850694 C59.7857143,48.485026 60.2817143,48 60.8928571,48 C61.504,48 62,48.485026 62,49.0850694 L62,54.3194444 C62,59.2684462 58.1925357,63 53.1428571,63" id="Fill-1"></path>
                <path d="M31.5,50 C31.224,50 31,49.5033333 31,48.8888889 L31,1.11111111 C31,0.496666667 31.224,0 31.5,0 C31.776,0 32,0.496666667 32,1.11111111 L32,48.8888889 C32,49.5033333 31.776,50 31.5,50" id="Fill-3"></path>
                <path d="M31.5000756,50 C31.2021585,50 30.9172414,49.8700469 30.7114078,49.6400413 L12.2947146,28.9395403 C11.885214,28.4772291 11.904714,27.7492615 12.3391313,27.3134009 C12.7746319,26.8786904 13.4592996,26.8982409 13.8709669,27.359402 L31.5000756,47.1755316 L49.128101,27.359402 C49.5408516,26.8982409 50.2255193,26.8786904 50.6610199,27.3134009 C51.0954372,27.7492615 51.1149372,28.4772291 50.7043533,28.9395403 L32.2876601,49.6400413 C32.0829098,49.8700469 31.7979927,50 31.5000756,50" id="Fill-5"></path>
            </g>
        </g>
    </g>
</svg>