<svg xmlns="http://www.w3.org/2000/svg" xmlns:xlink="http://www.w3.org/1999/xlink" version="1.1" id="Capa_1" x="0px" y="0px" viewBox="0 0 508 508" style="enable-background:new 0 0 508 508;" xml:space="preserve" class="svg  replaced-svg">
<g>
	<g>
		<path d="M139.3,393.3c-18.1,0-32.8,18.4-32.8,41c0,22.6,14.7,41,32.8,41c18.1,0,32.8-18.4,32.8-41S157.4,393.3,139.3,393.3z     M139.3,458.8c-8.9,0-16.4-11.3-16.4-24.6c0-13.3,7.5-24.6,16.4-24.6c8.9,0,16.4,11.3,16.4,24.6    C155.7,447.6,148.2,458.8,139.3,458.8z"></path>
	</g>
</g>
    <g>
	<g>
		<rect x="65.5" y="426.1" width="16.4" height="16.4"></rect>
	</g>
</g>
    <g>
	<g>
		<rect x="196.6" y="426.1" width="16.4" height="16.4"></rect>
	</g>
</g>
    <g>
	<g>
		<path d="M426.1,245.8V0H81.9v360.5H41H0v41V467v41h41h196.6h41v-41v-24.6h24.6V508H508V245.8H426.1z M16.4,376.9h23.4    c-3,11.5-12,20.4-23.4,23.4V376.9z M16.4,491.6v-23.4c11.5,3,20.4,12,23.4,23.4H16.4z M262.2,491.6h-23.4    c3-11.5,12-20.4,23.4-23.4V491.6z M262.2,451.3c-20.6,3.5-36.8,19.7-40.3,40.3H56.7C53.2,471,37,454.8,16.4,451.3v-34.1    c20.6-3.5,36.8-19.7,40.3-40.3h165.2c3.5,20.6,19.7,36.8,40.3,40.3V451.3z M262.2,400.3c-11.5-3-20.4-12-23.4-23.4h23.4V400.3z     M303.2,426.1h-24.6v-24.6v-41h-41H98.3V16.4h311.4v229.4H303.2V426.1z M491.6,491.6H319.5V262.2h172.1V491.6z"></path>
	</g>
</g>
    <g>
	<g>
		<path d="M335.9,278.6v65.5h139.3v-65.5H335.9z M458.8,327.7H352.3V295h106.5V327.7z"></path>
	</g>
</g>
    <g>
	<g>
		<rect x="335.9" y="360.5" width="16.4" height="16.4"></rect>
	</g>
</g>
    <g>
	<g>
		<rect x="376.9" y="360.5" width="16.4" height="16.4"></rect>
	</g>
</g>
    <g>
	<g>
		<rect x="417.9" y="360.5" width="16.4" height="16.4"></rect>
	</g>
</g>
    <g>
	<g>
		<rect x="458.8" y="360.5" width="16.4" height="16.4"></rect>
	</g>
</g>
    <g>
	<g>
		<rect x="335.9" y="393.3" width="16.4" height="16.4"></rect>
	</g>
</g>
    <g>
	<g>
		<rect x="376.9" y="393.3" width="16.4" height="16.4"></rect>
	</g>
</g>
    <g>
	<g>
		<rect x="417.9" y="393.3" width="16.4" height="16.4"></rect>
	</g>
</g>
    <g>
	<g>
		<rect x="458.8" y="393.3" width="16.4" height="16.4"></rect>
	</g>
</g>
    <g>
	<g>
		<rect x="335.9" y="426.1" width="16.4" height="16.4"></rect>
	</g>
</g>
    <g>
	<g>
		<rect x="376.9" y="426.1" width="16.4" height="16.4"></rect>
	</g>
</g>
    <g>
	<g>
		<rect x="417.9" y="426.1" width="16.4" height="16.4"></rect>
	</g>
</g>
    <g>
	<g>
		<rect x="458.8" y="426.1" width="16.4" height="16.4"></rect>
	</g>
</g>
    <g>
	<g>
		<rect x="335.9" y="458.8" width="16.4" height="16.4"></rect>
	</g>
</g>
    <g>
	<g>
		<rect x="376.9" y="458.8" width="16.4" height="16.4"></rect>
	</g>
</g>
    <g>
	<g>
		<rect x="417.9" y="458.8" width="16.4" height="16.4"></rect>
	</g>
</g>
    <g>
	<g>
		<rect x="458.8" y="458.8" width="16.4" height="16.4"></rect>
	</g>
</g>
    <g>
	<g>
		<path d="M122.9,41v131.1h114.7V41H122.9z M221.2,155.7h-81.9V57.4h81.9V155.7z"></path>
	</g>
</g>
    <g>
	<g>
		<rect x="262.2" y="98.3" width="122.9" height="16.4"></rect>
	</g>
</g>
    <g>
	<g>
		<rect x="262.2" y="155.7" width="122.9" height="16.4"></rect>
	</g>
</g>
    <g>
	<g>
		<rect x="122.9" y="213" width="262.2" height="16.4"></rect>
	</g>
</g>
    <g>
	<g>
		<rect x="122.9" y="278.6" width="155.7" height="16.4"></rect>
	</g>
</g>
    <g>
</g>
    <g>
</g>
    <g>
</g>
    <g>
</g>
    <g>
</g>
    <g>
</g>
    <g>
</g>
    <g>
</g>
    <g>
</g>
    <g>
</g>
    <g>
</g>
    <g>
</g>
    <g>
</g>
    <g>
</g>
    <g>
</g>
</svg>