<?xml version="1.0" encoding="UTF-8"?>
<svg width="75px" height="75px" viewBox="0 0 75 75" version="1.1" xmlns="http://www.w3.org/2000/svg" xmlns:xlink="http://www.w3.org/1999/xlink">
    <!-- Generator: Sketch 49.3 (51167) - http://www.bohemiancoding.com/sketch -->
    <title>Page 1</title>
    <desc>Created with Sketch.</desc>
    <defs></defs>
    <g id="desktop" stroke="none" stroke-width="1" fill="none" fill-rule="evenodd">
        <g id="Inscription-as-craftsman" transform="translate(-340.000000, -2493.000000)" fill="#231F20">
            <g id="Group-11" transform="translate(340.000000, 2351.000000)">
                <g id="Group-10" transform="translate(0.000000, 142.000000)">
                    <g id="Page-1">
                        <path d="M37.5,2.52952737 C18.20125,2.52952737 2.5,18.416224 2.5,37.9429105 C2.5,46.9834413 5.83625,55.5243905 11.9175,62.1062207 C15.4,59.9561224 20.79125,57.9792968 26.0175,56.061915 C27.34125,55.5775106 28.66,55.0931061 29.945,54.6087016 L29.945,48.2987956 C28.455,47.4261086 25.52625,44.9522308 25.24,38.9167785 C24.035,38.3021034 23.26375,36.7590917 23.26375,34.7531765 C23.26375,32.8914444 23.92875,31.4281128 24.98875,30.736287 C24.97625,30.6920203 24.96375,30.6464888 24.95125,30.5996926 C24.22625,27.9904851 22.87875,23.131263 24.8075,20.5574689 C25.3925,19.7745802 26.61625,18.8361255 28.8025,19.0093982 C30.49125,15.595801 35.6525,14.3525383 39.86375,14.3525383 C44.495,14.3525383 50.27375,15.8563423 51.32125,20.0945654 C52.2375,23.8091763 50.84375,28.2194073 50.09375,30.5883097 C50.0775,30.6439593 50.05875,30.6996089 50.04125,30.7552585 C51.08375,31.4559376 51.73625,32.9091511 51.73625,34.7531765 C51.73625,36.7590917 50.965,38.3021034 49.76,38.9167785 C49.47375,44.9522308 46.545,47.4261086 45.05375,48.2987956 L45.05375,54.606172 C46.47875,55.1411671 47.895,55.6597202 49.2825,56.1668904 C54.9125,58.2271905 59.8425,60.0307435 63.1175,62.0657483 C69.17625,55.4902419 72.5,46.9632051 72.5,37.9429105 C72.5,18.416224 56.79875,2.52952737 37.5,2.52952737 M11.7325,65 C11.4075,65 11.085,64.8722589 10.8425,64.6243652 C3.85125,57.4721266 0,47.996517 0,37.9429105 C0,17.0211897 16.8225,0 37.5,0 C58.1775,0 75,17.0211897 75,37.9429105 C75,47.9775456 71.16125,57.4392427 64.1925,64.5851575 C63.765,65.0252953 63.0875,65.0897982 62.58625,64.7343996 C59.625,62.6412157 54.18875,60.6517425 48.4325,58.5459109 C46.7725,57.9388244 45.07125,57.3152959 43.365,56.6690016 C42.8775,56.4843461 42.55375,56.0125893 42.55375,55.4851828 L42.55375,47.5108478 C42.55375,46.9669994 42.89875,46.4838597 43.40875,46.3118518 C43.5525,46.2587317 47.2825,44.8118421 47.2825,37.9429105 C47.2825,37.244761 47.8425,36.6781468 48.5325,36.6781468 C48.85125,36.6781468 49.23625,35.8193723 49.23625,34.7531765 C49.23625,33.6869807 48.85125,32.8294709 48.5325,32.8294709 C47.8425,32.8294709 47.2825,32.2628568 47.2825,31.5647073 C47.2825,31.1789543 47.4175,30.7514642 47.71375,29.8168038 C48.33875,27.8387134 49.64,23.7231724 48.89625,20.7079758 C48.34875,18.4908451 44.55,16.8820657 39.86375,16.8820657 C35.17875,16.8820657 31.38,18.4908451 30.8325,20.7079758 C30.67,21.3618586 30.03125,21.7703773 29.37375,21.6413714 C28.965,21.557897 28.59125,21.5161598 28.2625,21.5161598 C27.33375,21.5161598 26.9825,21.8412041 26.8,22.0853034 C25.6225,23.6574047 26.8825,28.2054949 27.3575,29.9167202 C27.61375,30.8387329 27.7175,31.2257506 27.7175,31.5647073 C27.7175,32.2628568 27.1575,32.8294709 26.4675,32.8294709 C26.14875,32.8294709 25.76375,33.6869807 25.76375,34.7531765 C25.76375,35.8193723 26.14875,36.6781468 26.4675,36.6781468 C27.1575,36.6781468 27.7175,37.244761 27.7175,37.9429105 C27.7175,44.8118421 31.44625,46.2587317 31.605,46.3169109 C32.1,46.4977721 32.445,46.979647 32.445,47.5108478 L32.445,55.4851828 C32.445,56.0113245 32.12375,56.4818166 31.6375,56.6677369 C30.09,57.2596463 28.4825,57.8490261 26.87125,58.4409355 C21.32,60.4759403 15.58,62.5805071 12.4425,64.7761368 C12.22625,64.9266437 11.97875,65 11.7325,65" id="Fill-1"></path>
                        <path d="M36.4826148,75 C26.4612933,75 17.0559044,71.6358449 10,65.5278073 L11.7658388,64.0297901 C18.3511012,69.7324693 27.1293814,72.8721346 36.4826148,72.8721346 C45.8532334,72.8721346 54.6426898,69.72183 61.2316776,64 L63,65.4937615 C55.9403702,71.6241416 46.5225633,75 36.4826148,75" id="Fill-3"></path>
                    </g>
                </g>
            </g>
        </g>
    </g>
</svg>