<svg id="Слой_1" xmlns="http://www.w3.org/2000/svg" viewBox="0 0 240 239.98"><title>instagram</title><path d="M236.82,264.78H415.2A30.89,30.89,0,0,1,446,295.58V474a30.88,30.88,0,0,1-30.8,30.79H236.82A30.89,30.89,0,0,1,206,474V295.58a30.9,30.9,0,0,1,30.82-30.81Zm144,26.65A10.84,10.84,0,0,0,370,302.25V328.1a10.83,10.83,0,0,0,10.8,10.81H408a10.84,10.84,0,0,0,10.8-10.81V302.25A10.85,10.85,0,0,0,408,291.43Zm38,74.83H397.75a70.12,70.12,0,0,1,3.09,20.61c0,39.9-33.41,72.27-74.61,72.27s-74.61-32.37-74.61-72.27a70.52,70.52,0,0,1,3.09-20.61h-22V467.65a9.54,9.54,0,0,0,9.53,9.52H409.34a9.54,9.54,0,0,0,9.53-9.52Zm-92.64-28.71c-26.61,0-48.19,20.9-48.19,46.71S299.62,431,326.23,431s48.21-20.92,48.21-46.7-21.59-46.71-48.21-46.71Zm0,0" transform="translate(-206 -264.78)" style="fill:#535353"/></svg>
