<svg xmlns="http://www.w3.org/2000/svg" xmlns:xlink="http://www.w3.org/1999/xlink" width="55px" height="51px" viewBox="0 0 55 51" version="1.1" class="svg  replaced-svg">
    <!-- Generator: Sketch 49.3 (51167) - http://www.bohemiancoding.com/sketch -->
    <title>Page 1</title>
    <desc>Created with Sketch.</desc>
    <defs>
        <polygon id="path-1" points="0 51 55 51 55 0 0 0"></polygon>
    </defs>
    <g id="desktop" stroke="none" stroke-width="1" fill="none" fill-rule="evenodd">
        <g id="landing-page-other-partners" transform="translate(-893.000000, -855.000000)">
            <g id="Group-18" transform="translate(217.000000, 808.000000)">
                <g id="Page-1" transform="translate(676.000000, 47.000000)">
                    <path d="M54.0833333,51 L0.916666667,51 C0.410666667,51 0,50.5943315 0,50.09449 L0,11.90551 C0,11.4056685 0.410666667,11 0.916666667,11 L21.0833333,11 L21.0833333,12.8110201 L1.83333333,12.8110201 L1.83333333,49.1889799 L53.1666667,49.1889799 L53.1666667,12.8110201 L33.9166667,12.8110201 L33.9166667,11 L54.0833333,11 C54.5893333,11 55,11.4056685 55,11.90551 L55,50.09449 C55,50.5943315 54.5893333,51 54.0833333,51" id="Fill-1" fill="#FF9502"></path>
                    <path d="M15.5,27.8333333 C13.4778333,27.8333333 11.8333333,29.4778333 11.8333333,31.5 C11.8333333,33.5221667 13.4778333,35.1666667 15.5,35.1666667 C17.5221667,35.1666667 19.1666667,33.5221667 19.1666667,31.5 C19.1666667,29.4778333 17.5221667,27.8333333 15.5,27.8333333 M15.5,37 C12.46675,37 10,34.53325 10,31.5 C10,28.46675 12.46675,26 15.5,26 C18.53325,26 21,28.46675 21,31.5 C21,34.53325 18.53325,37 15.5,37" id="Fill-3" fill="#FF9502"></path>
                    <path d="M8.83377778,42.2222222 L21.1662222,42.2222222 C20.9111111,40.2613333 19.6666667,37.7777778 15,37.7777778 C10.3324444,37.7777778 9.088,40.2613333 8.83377778,42.2222222 Z M23,44 L7,44 L7,43.1111111 C7,41.4426667 7.576,36 15,36 C22.4231111,36 23,41.4426667 23,43.1111111 L23,44 Z" id="Fill-5" fill="#FF9502"></path>
                    <path d="M21.875,14.2265573 L33.125,14.2265573 L33.125,6.47749945 C33.125,4.20571935 30.8646875,1.7734427 27.5,1.7734427 C24.1353125,1.7734427 21.875,4.20571935 21.875,6.47749945 L21.875,14.2265573 Z M34.0625,16 L20.9375,16 C20.42,16 20,15.6027488 20,15.1132787 L20,6.47749945 C20,2.96608291 23.435,0 27.5,0 C31.565,0 35,2.96608291 35,6.47749945 L35,15.1132787 C35,15.6027488 34.58,16 34.0625,16 Z" id="Fill-7" fill="#FF9502"></path>
                    <path d="M28,5.66666667 C27.449,5.66666667 27,6.04083333 27,6.5 C27,6.95916667 27.449,7.33333333 28,7.33333333 C28.551,7.33333333 29,6.95916667 29,6.5 C29,6.04083333 28.551,5.66666667 28,5.66666667 M28,9 C26.346,9 25,7.87833333 25,6.5 C25,5.12166667 26.346,4 28,4 C29.654,4 31,5.12166667 31,6.5 C31,7.87833333 29.654,9 28,9" id="Fill-9" fill="#FF9502"></path>
                    <mask id="mask-2" fill="white">
                        <use xlink:href="#path-1"></use>
                    </mask>
                    <g id="Clip-12"></g>
                    <polygon id="Fill-11" fill="#FF9502" mask="url(#mask-2)" points="1 22 54 22 54 20 1 20"></polygon>
                    <polygon id="Fill-13" fill="#FF9502" mask="url(#mask-2)" points="30 44 48 44 48 42 30 42"></polygon>
                    <polygon id="Fill-14" fill="#FF9502" mask="url(#mask-2)" points="30 38 48 38 48 36 30 36"></polygon>
                    <polygon id="Fill-15" fill="#FF9502" mask="url(#mask-2)" points="30 33 48 33 48 31 30 31"></polygon>
                    <polygon id="Fill-16" fill="#FF9502" mask="url(#mask-2)" points="30 28 39 28 39 26 30 26"></polygon>
                </g>
            </g>
        </g>
    </g>
</svg>