<?xml version="1.0" encoding="UTF-8"?>
<svg width="42px" height="52px" viewBox="0 0 42 52" version="1.1" xmlns="http://www.w3.org/2000/svg" xmlns:xlink="http://www.w3.org/1999/xlink">
    <!-- Generator: Sketch 49.3 (51167) - http://www.bohemiancoding.com/sketch -->
    <title>Page 1</title>
    <desc>Created with Sketch.</desc>
    <defs></defs>
    <g id="desktop" stroke="none" stroke-width="1" fill="none" fill-rule="evenodd">
        <g id="landing-page-other-partners" transform="translate(-732.000000, -1350.000000)" fill="#000000">
            <g id="Group-11" transform="translate(163.000000, 1346.000000)">
                <g id="Group-14" transform="translate(79.000000, 0.000000)">
                    <g id="Page-1" transform="translate(490.000000, 4.000000)">
                        <path d="M7.2,52 L2.4,52 C1.0768,52 0,50.8534074 0,49.4444444 L0,8.55555556 C0,7.14659259 1.0768,6 2.4,6 L7.2,6 C7.6424,6 8,6.38162963 8,6.85185185 C8,7.32207407 7.6424,7.7037037 7.2,7.7037037 L2.4,7.7037037 C1.9584,7.7037037 1.6,8.08618519 1.6,8.55555556 L1.6,49.4444444 C1.6,49.9138148 1.9584,50.2962963 2.4,50.2962963 L7.2,50.2962963 C7.6424,50.2962963 8,50.6779259 8,51.1481481 C8,51.6183704 7.6424,52 7.2,52" id="Fill-1"></path>
                        <path d="M30.5,19.9333333 C30.7346667,19.9333333 30.9693333,20.0182667 31.1480833,20.1872667 L34.1666667,23.0412 L34.1666667,1.73333333 L26.8333333,1.73333333 L26.8333333,23.0412 L29.8519167,20.1872667 C30.0306667,20.0182667 30.2653333,19.9333333 30.5,19.9333333 M35.0833333,26 C34.845,26 34.6103333,25.9116 34.43525,25.7460667 L30.5,22.0254667 L26.56475,25.7460667 C26.3016667,25.9948 25.9075,26.0676 25.5655833,25.9341333 C25.22275,25.7998 25,25.4834667 25,25.1333333 L25,0.866666667 C25,0.388266667 25.40975,0 25.9166667,0 L35.0833333,0 C35.59025,0 36,0.388266667 36,0.866666667 L36,25.1333333 C36,25.4834667 35.77725,25.7998 35.4344167,25.9341333 C35.32075,25.9783333 35.2015833,26 35.0833333,26" id="Fill-3"></path>
                        <path d="M41.125,52 L7.875,52 C7.391125,52 7,51.6183704 7,51.1481481 L7,6.85185185 C7,6.38162963 7.391125,6 7.875,6 L25.375,6 C25.858875,6 26.25,6.38162963 26.25,6.85185185 C26.25,7.32207407 25.858875,7.7037037 25.375,7.7037037 L8.75,7.7037037 L8.75,50.2962963 L40.25,50.2962963 L40.25,7.7037037 L34.125,7.7037037 C33.641125,7.7037037 33.25,7.32207407 33.25,6.85185185 C33.25,6.38162963 33.641125,6 34.125,6 L41.125,6 C41.608875,6 42,6.38162963 42,6.85185185 L42,51.1481481 C42,51.6183704 41.608875,52 41.125,52" id="Fill-5"></path>
                    </g>
                </g>
            </g>
        </g>
    </g>
</svg>