<?xml version="1.0" encoding="UTF-8"?>
<svg width="42px" height="54px" viewBox="0 0 42 54" version="1.1" xmlns="http://www.w3.org/2000/svg" xmlns:xlink="http://www.w3.org/1999/xlink">
    <!-- Generator: Sketch 49.3 (51167) - http://www.bohemiancoding.com/sketch -->
    <title>Page 1</title>
    <desc>Created with Sketch.</desc>
    <defs></defs>
    <g id="desktop" stroke="none" stroke-width="1" fill="none" fill-rule="evenodd">
        <g id="landing-page-other-partners" transform="translate(-242.000000, -1349.000000)" fill="#000000">
            <g id="Group-11" transform="translate(163.000000, 1346.000000)">
                <g id="Group-14" transform="translate(79.000000, 0.000000)">
                    <g id="Page-1" transform="translate(0.000000, 3.000000)">
                        <path d="M21,1.8 C10.6068261,1.8 1.82608696,10.4553 1.82608696,20.7 C1.82608696,36.4077 17.8372174,49.5297 21,51.9678 C24.1618696,49.5279 40.173913,36.3942 40.173913,20.7 C40.173913,10.4553 31.3931739,1.8 21,1.8 M21,54 C20.811913,54 20.622913,53.9433 20.4631304,53.829 C20.2549565,53.6787 15.2943913,50.0976 10.2589565,44.2314 C3.54808696,36.4122 0,28.2753 0,20.7 C0,9.4797 9.61617391,0 21,0 C32.3838261,0 42,9.4797 42,20.7 C42,28.2753 38.451913,36.4122 31.7410435,44.2314 C26.7056087,50.0976 21.7450435,53.6787 21.5368696,53.829 C21.377087,53.9433 21.188087,54 21,54" id="Fill-1"></path>
                        <path d="M21,9.9334638 C14.9738036,9.9334638 10.0714286,14.768683 10.0714286,20.7123288 C10.0714286,26.6559746 14.9738036,31.4911937 21,31.4911937 C27.0261964,31.4911937 31.9285714,26.6559746 31.9285714,20.7123288 C31.9285714,14.768683 27.0261964,9.9334638 21,9.9334638 M21,33.2876712 C13.9692857,33.2876712 8.25,27.6467319 8.25,20.7123288 C8.25,13.7788239 13.9692857,8.1369863 21,8.1369863 C28.0307143,8.1369863 33.75,13.7788239 33.75,20.7123288 C33.75,27.6467319 28.0307143,33.2876712 21,33.2876712" id="Fill-3"></path>
                    </g>
                </g>
            </g>
        </g>
    </g>
</svg>