<svg id="Layer_1" xmlns="http://www.w3.org/2000/svg" viewBox="0 0 165.7 36.2"><defs><style>.cls-1{fill:#f9a31a;}.cls-2{fill:none;stroke:#000;stroke-linecap:round;stroke-linejoin:round;}</style></defs><title>Logo-design</title><path class="cls-1" d="M134.3,24.82a1.62,1.62,0,0,0,3.24,0A1.62,1.62,0,0,0,134.3,24.82Z" transform="translate(-0.3 -0.7)"/><rect class="cls-1" x="141.3" width="3.09" height="25.76"/><path class="cls-1" d="M162.38,24.51l.16-.14v1.72h3v-18h-3V18a5.16,5.16,0,0,1-5.18,5.41h-.08c-3.34,0-5.18-1.82-5.18-5.11V8.05h-3V18.34c0,4.87,3.22,8,8.21,8v0A7.64,7.64,0,0,0,162.38,24.51Zm-5.1,1.76Z" transform="translate(-0.3 -0.7)"/><polygon points="59.55 22.42 54.38 7.37 52.78 7.37 47.58 22.42 42.45 7.37 39.99 7.37 46.44 25.48 48.71 25.48 51.63 17.64 53.59 11.52 55.5 17.62 58.41 25.48 60.69 25.48 67.1 7.37 64.64 7.37 59.55 22.42"/><path d="M77.84,7.78a9.07,9.07,0,0,0-9.2,9.34c0,5.48,3.79,9.3,9.2,9.3a9.85,9.85,0,0,0,7.79-3.48l.15-.2-1.64-1.31-.16.21c-1.34,1.77-4,2.57-6.14,2.57a6.62,6.62,0,0,1-6.88-6h15.8l0-.22a9.35,9.35,0,0,0-2-7.44A9.13,9.13,0,0,0,77.84,7.78Zm6.87,8.38H71a6.76,6.76,0,0,1,6.88-6.27C82,9.89,84.57,12.23,84.71,16.16Z" transform="translate(-0.3 -0.7)"/><path d="M106,11.23a8.17,8.17,0,0,0-7-3.45c-5.44,0-9.09,3.76-9.09,9.34s3.64,9.34,9,9.34A8.62,8.62,0,0,0,106,22.92v3.25h2.22V.73H106Zm-7,13c-4.22,0-6.94-2.8-6.94-7.13C92.06,11.84,95.64,10,99,10a6.81,6.81,0,0,1,7,7.13A6.83,6.83,0,0,1,99,24.25Z" transform="translate(-0.3 -0.7)"/><path d="M121.09,7.75a9,9,0,0,0-9.2,9.41,9.2,9.2,0,1,0,18.39,0C130.28,11.71,126.42,7.75,121.09,7.75Zm0,16.46a6.71,6.71,0,0,1-7-7,7,7,0,1,1,14,0A6.71,6.71,0,0,1,121.09,24.21Z" transform="translate(-0.3 -0.7)"/><path d="M47.28,31.09v4.06h2v.48H46.76V31.09Z" transform="translate(-0.3 -0.7)"/><path d="M53,34.11H50.19a1.21,1.21,0,0,0,1.24,1.12,1.45,1.45,0,0,0,1.06-.44l.27.29a1.79,1.79,0,0,1-1.37.57,1.73,1.73,0,0,1,0-3.45C52.49,32.2,53,33,53,34.11Zm-.45-.4a1.09,1.09,0,0,0-1.14-1.09,1.16,1.16,0,0,0-1.2,1.09Z" transform="translate(-0.3 -0.7)"/><path d="M59.11,33.93a1.6,1.6,0,0,1-1.62,1.72,1.43,1.43,0,0,1-1.33-.75v2h-.5V32.22h.5V33a1.43,1.43,0,0,1,1.32-.75A1.61,1.61,0,0,1,59.11,33.93Zm-.51,0a1.22,1.22,0,1,0-1.22,1.28A1.2,1.2,0,0,0,58.6,33.92Z" transform="translate(-0.3 -0.7)"/><path d="M63.12,33.92a1.73,1.73,0,1,1-1.73-1.72A1.66,1.66,0,0,1,63.12,33.92Zm-3,0a1.23,1.23,0,1,0,2.45,0,1.23,1.23,0,1,0-2.45,0Z" transform="translate(-0.3 -0.7)"/><path d="M65.74,32.2v.49a1.15,1.15,0,0,0-1.23,1.12v1.82H64V32.22h.5V33A1.29,1.29,0,0,1,65.74,32.2Z" transform="translate(-0.3 -0.7)"/><path d="M68.18,35.39a1.32,1.32,0,0,1-.77.26c-.5,0-.87-.29-.87-1v-2h-.49v-.39h.49v-.9H67v.9h1.08v.39H67V34.6c0,.41.16.58.45.58A1.21,1.21,0,0,0,68,35Z" transform="translate(-0.3 -0.7)"/><path d="M71.06,35.63V35.1a1.46,1.46,0,0,1-1.25.55,1.06,1.06,0,0,1-1.16-1c0-.6.47-1,1.28-1h1.12v-.21c0-.5-.31-.81-.91-.81a1.9,1.9,0,0,0-1.09.4l-.21-.36a2.3,2.3,0,0,1,1.39-.46,1.15,1.15,0,0,1,1.32,1.17v2.26Zm0-1.17V34H70c-.57,0-.87.18-.87.56s.31.63.79.63A1.09,1.09,0,0,0,71.05,34.46Z" transform="translate(-0.3 -0.7)"/><path d="M73.26,31.24a.33.33,0,1,1-.66,0,.33.33,0,1,1,.66,0Zm-.08,1v3.41h-.5V32.22Z" transform="translate(-0.3 -0.7)"/><path d="M75,30.82v4.81h-.51V30.82Z" transform="translate(-0.3 -0.7)"/><path d="M81.12,30.82v4.81h-.5V34.9a1.44,1.44,0,0,1-1.33.75,1.73,1.73,0,0,1,0-3.45,1.43,1.43,0,0,1,1.34.76V30.82Zm-.5,3.11a1.24,1.24,0,1,0-1.23,1.29A1.21,1.21,0,0,0,80.62,33.93Z" transform="translate(-0.3 -0.7)"/><path d="M85.33,34.11H82.54a1.21,1.21,0,0,0,1.24,1.12,1.41,1.41,0,0,0,1-.44l.28.29a1.79,1.79,0,0,1-1.37.57,1.73,1.73,0,0,1,0-3.45C84.83,32.2,85.38,33,85.33,34.11Zm-.46-.4a1.07,1.07,0,0,0-1.14-1.09,1.15,1.15,0,0,0-1.19,1.09Z" transform="translate(-0.3 -0.7)"/><path d="M87.07,32.62c-.38,0-.67.14-.67.46,0,.77,1.9.38,1.9,1.6,0,.67-.59,1-1.25,1a2,2,0,0,1-1.31-.48l.2-.37a1.73,1.73,0,0,0,1.13.43c.4,0,.73-.15.73-.5,0-.82-1.89-.4-1.88-1.61,0-.65.56-.92,1.18-.92a2,2,0,0,1,1.09.31L88,32.9A1.81,1.81,0,0,0,87.07,32.62Z" transform="translate(-0.3 -0.7)"/><path d="M93,35.63V35.1a1.46,1.46,0,0,1-1.25.55,1,1,0,0,1-1.15-1c0-.6.47-1,1.27-1H93v-.21c0-.5-.31-.81-.91-.81A1.85,1.85,0,0,0,91,33l-.22-.36a2.3,2.3,0,0,1,1.39-.46c.85,0,1.31.45,1.32,1.17v2.26Zm0-1.17V34H92c-.57,0-.87.18-.87.56s.3.63.78.63A1.1,1.1,0,0,0,93,34.46Z" transform="translate(-0.3 -0.7)"/><path d="M96.37,32.2v.49a1.14,1.14,0,0,0-1.22,1.12v1.82h-.51V32.22h.51V33A1.28,1.28,0,0,1,96.37,32.2Z" transform="translate(-0.3 -0.7)"/><path d="M98.82,35.39a1.32,1.32,0,0,1-.77.26c-.5,0-.87-.29-.87-1v-2h-.49v-.39h.49v-.9h.5v.9h1.08v.39H97.68V34.6c0,.41.16.58.45.58a1.17,1.17,0,0,0,.54-.17Z" transform="translate(-0.3 -0.7)"/><path d="M100.16,31.24a.33.33,0,1,1-.66,0,.33.33,0,1,1,.66,0Zm-.08,1v3.41h-.5V32.22Z" transform="translate(-0.3 -0.7)"/><path d="M102.19,32.62c-.39,0-.68.14-.68.46,0,.77,1.91.38,1.91,1.6,0,.67-.6,1-1.25,1a1.92,1.92,0,0,1-1.31-.48l.19-.37a1.73,1.73,0,0,0,1.14.43c.4,0,.72-.15.73-.5,0-.82-1.89-.4-1.89-1.61,0-.65.57-.92,1.19-.92a2,2,0,0,1,1.09.31l-.2.39A1.77,1.77,0,0,0,102.19,32.62Z" transform="translate(-0.3 -0.7)"/><path d="M106.36,35.63V35.1a1.46,1.46,0,0,1-1.25.55,1.06,1.06,0,0,1-1.16-1c0-.6.48-1,1.28-1h1.12v-.21c0-.5-.31-.81-.91-.81a1.85,1.85,0,0,0-1.08.4l-.22-.36a2.3,2.3,0,0,1,1.39-.46c.85,0,1.31.45,1.32,1.17v2.26Zm0-1.17V34H105.3c-.57,0-.87.18-.87.56s.3.63.78.63A1.1,1.1,0,0,0,106.36,34.46Z" transform="translate(-0.3 -0.7)"/><path d="M111.11,33.53v2.1h-.51v-2a.89.89,0,0,0-1-1,1.11,1.11,0,0,0-1.15,1.11v1.83H108V32.22h.51V33a1.35,1.35,0,0,1,1.32-.77A1.21,1.21,0,0,1,111.11,33.53Z" transform="translate(-0.3 -0.7)"/><path d="M113.11,32.62c-.38,0-.67.14-.67.46,0,.77,1.9.38,1.9,1.6,0,.67-.6,1-1.25,1a1.92,1.92,0,0,1-1.31-.48l.2-.37a1.73,1.73,0,0,0,1.13.43c.4,0,.72-.15.73-.5,0-.82-1.89-.4-1.88-1.61,0-.65.56-.92,1.18-.92a2,2,0,0,1,1.09.31l-.2.39A1.75,1.75,0,0,0,113.11,32.62Z" transform="translate(-0.3 -0.7)"/><path d="M119.06,35.63V35.1a1.46,1.46,0,0,1-1.25.55,1.06,1.06,0,0,1-1.16-1c0-.6.48-1,1.28-1h1.12v-.21c0-.5-.31-.81-.91-.81a1.9,1.9,0,0,0-1.09.4l-.21-.36a2.3,2.3,0,0,1,1.39-.46,1.15,1.15,0,0,1,1.32,1.17v2.26Zm0-1.17V34H118c-.57,0-.86.18-.86.56s.3.63.78.63A1.1,1.1,0,0,0,119.06,34.46Z" transform="translate(-0.3 -0.7)"/><path d="M123.64,32.22v3.41h-.5v-.77a1.31,1.31,0,0,1-1.3.79,1.2,1.2,0,0,1-1.27-1.33v-2.1h.5v2a.88.88,0,0,0,1,1,1.14,1.14,0,0,0,1.12-1.27V32.22Z" transform="translate(-0.3 -0.7)"/><path d="M127.24,31.09v4.06h2v.48h-2.51V31.09Z" transform="translate(-0.3 -0.7)"/><path d="M133,32.22v3.41h-.51v-.77a1.3,1.3,0,0,1-1.29.79,1.21,1.21,0,0,1-1.28-1.33v-2.1h.51v2a.88.88,0,0,0,.94,1,1.13,1.13,0,0,0,1.12-1.27V32.22Z" transform="translate(-0.3 -0.7)"/><path d="M134.38,32.22l.9,1.3.92-1.3h.56l-1.14,1.65,1.23,1.76h-.59l-1-1.4-1,1.4h-.57L135,33.87l-1.15-1.65Z" transform="translate(-0.3 -0.7)"/><path d="M140.41,34.11h-2.79a1.21,1.21,0,0,0,1.24,1.12,1.45,1.45,0,0,0,1.06-.44l.28.29a1.83,1.83,0,0,1-1.38.57,1.73,1.73,0,0,1,0-3.45C139.92,32.2,140.46,33,140.41,34.11Zm-.45-.4a1.09,1.09,0,0,0-1.14-1.09,1.16,1.16,0,0,0-1.2,1.09Z" transform="translate(-0.3 -0.7)"/><path d="M146.92,33.53v2.1h-.51v-2a.88.88,0,0,0-.94-1A1.14,1.14,0,0,0,144.35,34v1.68h-.51v-2a.88.88,0,0,0-.94-1A1.14,1.14,0,0,0,141.78,34v1.68h-.5V32.22h.5V33a1.3,1.3,0,0,1,1.3-.79,1.16,1.16,0,0,1,1.22.89,1.33,1.33,0,0,1,1.35-.89A1.19,1.19,0,0,1,146.92,33.53Z" transform="translate(-0.3 -0.7)"/><path d="M151.53,33.93a1.6,1.6,0,0,1-1.62,1.72,1.43,1.43,0,0,1-1.33-.75v.73h-.51V30.82h.51V33a1.42,1.42,0,0,1,1.31-.75A1.61,1.61,0,0,1,151.53,33.93Zm-.51,0a1.22,1.22,0,1,0-1.22,1.28A1.2,1.2,0,0,0,151,33.92Z" transform="translate(-0.3 -0.7)"/><path d="M155.54,33.92a1.73,1.73,0,1,1-1.73-1.72A1.66,1.66,0,0,1,155.54,33.92Zm-3,0a1.23,1.23,0,1,0,2.45,0,1.23,1.23,0,1,0-2.45,0Z" transform="translate(-0.3 -0.7)"/><path d="M159.39,32.22v3.41h-.51v-.77a1.31,1.31,0,0,1-1.29.79,1.21,1.21,0,0,1-1.28-1.33v-2.1h.5v2a.88.88,0,0,0,.95,1,1.13,1.13,0,0,0,1.12-1.27V32.22Z" transform="translate(-0.3 -0.7)"/><path d="M162.35,32.2v.49a1.15,1.15,0,0,0-1.23,1.12v1.82h-.5V32.22h.5V33A1.29,1.29,0,0,1,162.35,32.2Z" transform="translate(-0.3 -0.7)"/><path d="M166,32.22v3.05a1.57,1.57,0,0,1-1.72,1.63,2.25,2.25,0,0,1-1.39-.5l.23-.37a1.7,1.7,0,0,0,1.14.43,1.13,1.13,0,0,0,1.23-1.18v-.51a1.32,1.32,0,0,1-1.25.71,1.64,1.64,0,0,1,0-3.28,1.35,1.35,0,0,1,1.26.71v-.69Zm-.51,1.63a1.17,1.17,0,1,0-1.16,1.21A1.15,1.15,0,0,0,165.49,33.85Z" transform="translate(-0.3 -0.7)"/><path class="cls-1" d="M2.16,34.22,13.94,22.43a11.7,11.7,0,1,0-1.53-1.54L.62,32.68a1.09,1.09,0,1,0,1.54,1.54Zm9.76-20.71a9.41,9.41,0,1,1,9.4,9.41A9.41,9.41,0,0,1,11.92,13.51Z" transform="translate(-0.3 -0.7)"/><path class="cls-2" d="M16.24,13.58a5.15,5.15,0,0,1,5.15-5.15" transform="translate(-0.3 -0.7)"/></svg>
