<?xml version="1.0" encoding="UTF-8"?>
<svg width="16px" height="16px" viewBox="0 0 16 16" version="1.1" xmlns="http://www.w3.org/2000/svg" xmlns:xlink="http://www.w3.org/1999/xlink">
    <!-- Generator: Sketch 49.1 (51147) - http://www.bohemiancoding.com/sketch -->
    <title>Page 1</title>
    <desc>Created with Sketch.</desc>
    <defs>
        <polygon id="path-1" points="0 0 16 0 16 16 0 16"></polygon>
    </defs>
    <g id="desktop" stroke="none" stroke-width="1" fill="none" fill-rule="evenodd">
        <g id="results" transform="translate(-784.000000, -308.000000)">
            <g id="Group-12" transform="translate(784.000000, 262.000000)">
                <g id="Group-9" transform="translate(0.000000, 40.000000)">
                    <g id="Page-1" transform="translate(0.000000, 6.000000)">
                        <mask id="mask-2" fill="white">
                            <use xlink:href="#path-1"></use>
                        </mask>
                        <g id="Clip-2"></g>
                        <path d="M3.07962467,0.55176219 C2.71925178,0.55176219 2.38040193,0.691909787 2.12543673,0.946823919 L1.18090655,1.89144079 C0.458781086,2.61342162 0.344267495,3.75667287 0.908281423,4.6099731 C3.63811987,8.73605076 7.26281995,12.3597489 11.3902761,15.0893165 C11.7454062,15.3240913 12.1579311,15.4482378 12.583149,15.4482378 C13.1604079,15.4482378 13.7020709,15.2242224 14.1085252,14.8170219 L15.0541591,13.8721291 C15.5798179,13.3462997 15.5798179,12.4907925 15.0541591,11.965239 L13.3309365,10.2423615 C13.0762473,9.98799917 12.7376734,9.84785158 12.3773005,9.84785158 C12.0172035,9.84785158 11.6783536,9.98799917 11.4233884,10.2426374 L10.8491649,10.816746 C10.749,10.9171667 10.5889569,10.9248914 10.4791342,10.8349541 C8.56634334,9.26739775 6.72833121,7.42975378 5.16404797,5.52010483 C5.07409271,5.41058004 5.08209487,5.250569 5.18225977,5.15014829 L5.75648334,4.57603973 C6.28214211,4.05048624 6.28214211,3.19525485 5.75648334,2.66942548 L4.03326075,0.946548038 C3.77857148,0.691909787 3.43999756,0.55176219 3.07962467,0.55176219 M12.583149,16 C12.0492121,16 11.5315555,15.8441272 11.0856423,15.5494862 C6.89692833,12.7793641 3.21842066,9.10214498 0.448019568,4.91426995 C-0.260309079,3.84302366 -0.11599436,2.4078902 0.790732532,1.50134492 L1.73526271,0.556452169 C2.09453185,0.197530864 2.57190176,0 3.07962467,0 C3.58734758,0 4.06444156,0.197530864 4.42343477,0.556452169 L6.14665736,2.27932961 C6.88782243,3.02007035 6.88782243,4.22567074 6.14665736,4.9661356 L5.74986087,5.36312849 C7.2032177,7.11166287 8.88504984,8.79315815 10.6364179,10.2492586 L11.0332144,9.85226567 C11.3924836,9.49362025 11.8695776,9.29608939 12.3773005,9.29608939 C12.8852993,9.29608939 13.3623933,9.49362025 13.7211106,9.85226567 L15.4443331,11.5748672 C16.1852223,12.3161597 16.1852223,13.5214842 15.4443331,14.262225 L14.4989752,15.2071177 C13.988217,15.7183254 13.3077579,16 12.583149,16" id="Fill-1" fill="#525353" mask="url(#mask-2)"></path>
                    </g>
                </g>
            </g>
        </g>
    </g>
</svg>