<svg xmlns="http://www.w3.org/2000/svg" width="30" height="30" viewBox="38 12 35 35" class="svg  replaced-svg">
    <g xmlns="http://www.w3.org/2000/svg" id="ico_categ_mode" transform="translate(40 15)">
        <rect width="34" height="34" fill="none"></rect>
        <path d="M271.364,2191.23l-1.455-.67a6.182,6.182,0,0,0-5.676-3.75h-5.289a6.185,6.185,0,0,0-5.865,4.25l-.816.28a4.4,4.4,0,0,0-3.013,4.18v17.73h1.762v-2.98l1.763.88v3.86h1.763v-2.98l1.762.88v3.98h1.763v-10.75a9.974,9.974,0,0,0,1.1.06h1.549a7.964,7.964,0,0,0,4.407-1.34v8.39h1.762v-2.98l1.763.88v3.86H270.4v-2.98l1.762.88v3.98h1.763v-21.66a4.423,4.423,0,0,0-2.561-4Zm-6.25.87a3.526,3.526,0,1,1-3.526-3.53,3.526,3.526,0,0,1,3.526,3.53Zm-7.051,3.93a5.278,5.278,0,0,0,7.051,0v.47a2.651,2.651,0,0,1-2.644,2.65h-1.763a2.651,2.651,0,0,1-2.644-2.65v-.47Zm-1.763,14.91-5.288-2.64v-6.37a10.02,10.02,0,0,0,5.288,3.85Zm4.407-6.51h-1.549a8.136,8.136,0,0,1-8.146-8.14v-.77a2.651,2.651,0,0,1,1.763-2.5v4.36h1.763v-4.4a4.41,4.41,0,0,1,2.3-3.87,4.337,4.337,0,0,0-.538,2.1v5.29a4.415,4.415,0,0,0,4.407,4.41h1.763a4.353,4.353,0,0,0,2.644-.89v2.56a6.177,6.177,0,0,1-4.407,1.85Zm6.169-13.22a4.345,4.345,0,0,0-.537-2.1,4.41,4.41,0,0,1,2.3,3.87v6.17H270.4s0-6.34-.006-6.42l.23.1a2.657,2.657,0,0,1,1.538,2.4v15.71l-5.288-2.64v-17.09Z" transform="translate(-244.5 -2184.62)" fill="#5c5c68" fill-rule="evenodd"></path>
    </g>
</svg>