<?xml version="1.0" encoding="iso-8859-1"?>
<!-- Generator: Adobe Illustrator 16.0.0, SVG Export Plug-In . SVG Version: 6.00 Build 0)  -->
<!DOCTYPE svg PUBLIC "-//W3C//DTD SVG 1.1//EN" "http://www.w3.org/Graphics/SVG/1.1/DTD/svg11.dtd">
<svg xmlns="http://www.w3.org/2000/svg" xmlns:xlink="http://www.w3.org/1999/xlink" version="1.1" id="Capa_1" x="0px" y="0px" width="512px" height="512px" viewBox="0 0 512 512" style="enable-background:new 0 0 512 512;" xml:space="preserve">
<g>
	<path d="M426.676,0H85.324C38.199,0,0,38.21,0,85.343v341.315C0,473.791,38.199,512,85.324,512h341.352   C473.801,512,512,473.791,512,426.658V85.343C512,38.21,473.801,0,426.676,0z M280.822,342.059   c-23.26-1.807-33.021-13.328-51.252-24.403c-10.03,52.59-22.281,103.01-58.569,129.345   c-11.202-79.482,16.447-139.184,29.285-202.557c-21.893-36.853,2.635-111.017,48.81-92.737   c56.812,22.474-49.2,137.004,21.966,151.31c74.309,14.934,104.643-128.931,58.57-175.714c-66.578-67.553-193.8-1.54-178.156,95.178   c3.807,23.646,28.236,30.819,9.762,63.452c-42.61-9.445-55.325-43.052-53.688-87.855c2.634-73.337,65.892-124.682,129.343-131.783   c80.243-8.982,155.553,29.454,165.954,104.938C414.553,256.423,366.623,348.693,280.822,342.059z" fill="#535353"/>
</g>
<g>
</g>
<g>
</g>
<g>
</g>
<g>
</g>
<g>
</g>
<g>
</g>
<g>
</g>
<g>
</g>
<g>
</g>
<g>
</g>
<g>
</g>
<g>
</g>
<g>
</g>
<g>
</g>
<g>
</g>
</svg>
