<svg xmlns="http://www.w3.org/2000/svg" xmlns:xlink="http://www.w3.org/1999/xlink" width="47px" height="61px" viewBox="0 0 47 61" version="1.1" class="svg  replaced-svg">
    <!-- Generator: Sketch 49.3 (51167) - http://www.bohemiancoding.com/sketch -->
    <title>Page 1</title>
    <desc>Created with Sketch.</desc>
    <defs></defs>
    <g id="desktop" stroke="none" stroke-width="1" fill="none" fill-rule="evenodd">
        <g id="landing-page-other-partners" transform="translate(-836.000000, -2077.000000)" fill="#101B24">
            <g id="Page-1" transform="translate(836.000000, 2077.000000)">
                <path d="M45.9782609,61 L1.02173913,61 C0.456717391,61 0,60.5444038 0,59.9807692 L0,9.01923077 C0,8.45559615 0.456717391,8 1.02173913,8 L13.2826087,8 C13.8476304,8 14.3043478,8.45559615 14.3043478,9.01923077 C14.3043478,9.58286538 13.8476304,10.0384615 13.2826087,10.0384615 L2.04347826,10.0384615 L2.04347826,58.9615385 L44.9565217,58.9615385 L44.9565217,10.0384615 L33.7173913,10.0384615 C33.1523696,10.0384615 32.6956522,9.58286538 32.6956522,9.01923077 C32.6956522,8.45559615 33.1523696,8 33.7173913,8 L45.9782609,8 C46.5432826,8 47,8.45559615 47,9.01923077 L47,59.9807692 C47,60.5444038 46.5432826,61 45.9782609,61" id="Fill-1"></path>
                <path d="M14.0909091,14 L32.9090909,14 L32.9090909,8 L29.7727273,8 C29.1945909,8 28.7272727,7.553 28.7272727,7 C28.7272727,3.564 26.0174545,2 23.5,2 C20.9825455,2 18.2727273,3.564 18.2727273,7 C18.2727273,7.553 17.8054091,8 17.2272727,8 L14.0909091,8 L14.0909091,14 Z M33.9545455,16 L13.0454545,16 C12.4673182,16 12,15.553 12,15 L12,7 C12,6.447 12.4673182,6 13.0454545,6 L16.2435,6 C16.7348636,2.057 20.1367727,0 23.5,0 C26.8632273,0 30.2651364,2.057 30.7565,6 L33.9545455,6 C34.5326818,6 35,6.447 35,7 L35,15 C35,15.553 34.5326818,16 33.9545455,16 Z" id="Fill-3"></path>
                <path d="M41.9736842,55 L5.02631579,55 C4.45876316,55 4,54.5423571 4,53.9761905 L4,13.0238095 C4,12.4576429 4.45876316,12 5.02631579,12 L13.2368421,12 C13.8043947,12 14.2631579,12.4576429 14.2631579,13.0238095 C14.2631579,13.5899762 13.8043947,14.047619 13.2368421,14.047619 L6.05263158,14.047619 L6.05263158,52.952381 L40.9473684,52.952381 L40.9473684,14.047619 L33.7631579,14.047619 C33.1956053,14.047619 32.7368421,13.5899762 32.7368421,13.0238095 C32.7368421,12.4576429 33.1956053,12 33.7631579,12 L41.9736842,12 C42.5412368,12 43,12.4576429 43,13.0238095 L43,53.9761905 C43,54.5423571 42.5412368,55 41.9736842,55" id="Fill-5"></path>
                <path d="M31,44 C30.977,44 30.953,43.9990001 30.929,43.9970002 C30.525,43.9690019 30.18,43.7000189 30.052,43.316043 L24.883,27.8130182 L19.918,39.3942897 C19.76,39.7652664 19.405,39.9922521 18.988,40.0002516 C18.583,39.9952519 18.222,39.7472675 18.071,39.3712912 L14.777,31.1378091 L11.832,35.5555312 C11.646,35.8335137 11.334,36.0005032 11,36.0005032 L5,36.0005032 L5,34.000629 L10.465,34.000629 L14.168,28.4459784 C14.374,28.1379978 14.73,27.9710083 15.104,28.007006 C15.473,28.0450036 15.791,28.2849885 15.929,28.6299668 L19.031,36.3874789 L24.081,24.6072199 C24.245,24.2262439 24.6,23.9732598 25.042,24.0022579 C25.456,24.0202568 25.817,24.2912398 25.947,24.685215 L31.186,40.3942268 L34.105,34.5535942 C34.275,34.2146155 34.621,34.000629 35,34.000629 L41,34.000629 L41,36.0005032 L35.618,36.0005032 L31.895,43.4470348 C31.725,43.7880133 31.377,44 31,44" id="Fill-7"></path>
            </g>
        </g>
    </g>
</svg>