<?xml version="1.0" encoding="UTF-8"?>
<svg width="58px" height="58px" viewBox="0 0 58 58" version="1.1" xmlns="http://www.w3.org/2000/svg" xmlns:xlink="http://www.w3.org/1999/xlink">
    <!-- Generator: Sketch 49.3 (51167) - http://www.bohemiancoding.com/sketch -->
    <title>Page 1</title>
    <desc>Created with Sketch.</desc>
    <defs>
        <polygon id="path-1" points="0 0 40.8972411 0 40.8972411 52.0512821 0 52.0512821"></polygon>
        <polygon id="path-3" points="0.362304318 0.362304318 10.4102564 0.362304318 10.4102564 10.4102564 0.362304318 10.4102564"></polygon>
    </defs>
    <g id="desktop" stroke="none" stroke-width="1" fill="none" fill-rule="evenodd">
        <g id="landing-page-other-partners" transform="translate(-967.000000, -1346.000000)">
            <g id="Group-11" transform="translate(163.000000, 1346.000000)">
                <g id="Group-14" transform="translate(79.000000, 0.000000)">
                    <g id="Page-1" transform="translate(725.000000, 0.000000)">
                        <g id="Group-3">
                            <mask id="mask-2" fill="white">
                                <use xlink:href="#path-1"></use>
                            </mask>
                            <g id="Clip-2"></g>
                            <path d="M25.528569,52.0512821 L0.973553724,52.0512821 C0.436044567,52.0512821 -0.000194749695,51.6204131 -0.000194749695,51.0873694 L-0.000194749695,0.963912631 C-0.000194749695,0.430868946 0.436044567,0 0.973553724,0 L28.238511,0 C28.4965543,0 28.7448602,0.101210826 28.9269512,0.282426401 L40.6119328,11.849378 C40.7949976,12.0296296 40.8972411,12.2744634 40.8972411,12.5308642 L40.8972411,22.8399098 L38.9497442,22.8399098 L38.9497442,12.929924 L27.8353791,1.92782526 L1.9473022,1.92782526 L1.9473022,50.1234568 L25.528569,50.1234568 L25.528569,52.0512821 Z" id="Fill-1" fill="#231F20" mask="url(#mask-2)"></path>
                        </g>
                        <path d="M39.9413919,13.3846154 L28.4688645,13.3846154 C27.9411282,13.3846154 27.5128205,12.9572637 27.5128205,12.4285714 L27.5128205,0.956043956 C27.5128205,0.427351648 27.9411282,0 28.4688645,0 C28.9966007,0 29.4249084,0.427351648 29.4249084,0.956043956 L29.4249084,11.4725275 L39.9413919,11.4725275 C40.4691282,11.4725275 40.8974359,11.8998791 40.8974359,12.4285714 C40.8974359,12.9572637 40.4691282,13.3846154 39.9413919,13.3846154" id="Fill-4" fill="#231F20"></path>
                        <path d="M42.7583706,31.7038736 C37.8927249,31.7038736 33.9347319,35.6616867 33.9347319,40.5261311 C33.9347319,45.3905755 37.8927249,49.3474085 42.7583706,49.3474085 C47.6210758,49.3474085 51.5780886,45.3905755 51.5780886,40.5261311 C51.5780886,35.6616867 47.6210758,31.7038736 42.7583706,31.7038736 M42.7583706,51.3076923 C36.8125594,51.3076923 31.974359,46.4706919 31.974359,40.5261311 C31.974359,34.5805902 36.8125594,29.7435897 42.7583706,29.7435897 C48.7022214,29.7435897 53.5384615,34.5805902 53.5384615,40.5261311 C53.5384615,46.4706919 48.7022214,51.3076923 42.7583706,51.3076923" id="Fill-6" fill="#231F20"></path>
                        <g id="Group-10" transform="translate(47.589744, 47.589744)">
                            <mask id="mask-4" fill="white">
                                <use xlink:href="#path-3"></use>
                            </mask>
                            <g id="Clip-9"></g>
                            <path d="M9.49707602,10.4102564 C9.26330184,10.4102564 9.02952767,10.3207647 8.85145749,10.1426946 L0.630094467,1.92133153 C0.273040936,1.564278 0.273040936,0.987147998 0.630094467,0.630094467 C0.987147998,0.273040936 1.564278,0.273040936 1.92133153,0.630094467 L10.1426946,8.85145749 C10.4997481,9.20851102 10.4997481,9.78564103 10.1426946,10.1426946 C9.96462438,10.3207647 9.7308502,10.4102564 9.49707602,10.4102564" id="Fill-8" fill="#231F20" mask="url(#mask-4)"></path>
                        </g>
                    </g>
                </g>
            </g>
        </g>
    </g>
</svg>