<?xml version="1.0" encoding="UTF-8"?>
<svg width="72px" height="72px" viewBox="0 0 72 72" version="1.1" xmlns="http://www.w3.org/2000/svg" xmlns:xlink="http://www.w3.org/1999/xlink">
    <!-- Generator: Sketch 49.3 (51167) - http://www.bohemiancoding.com/sketch -->
    <title>Page 1</title>
    <desc>Created with Sketch.</desc>
    <defs></defs>
    <g id="desktop" stroke="none" stroke-width="1" fill="none" fill-rule="evenodd">
        <g id="results-item-claim-success" transform="translate(-598.000000, -302.000000)" fill="#525353">
            <g id="Page-1" transform="translate(598.000000, 302.000000)">
                <path d="M28.8563857,48 C28.5459969,48 28.2356082,47.8803166 27.9991792,47.6421709 L20.3546434,39.9421287 C19.8817855,39.4658374 19.8817855,38.6927801 20.3546434,38.2152675 C20.8287138,37.7389763 21.5961985,37.7389763 22.0690564,38.2152675 L28.8854847,45.0799681 L50.9606732,24.3271026 C51.449293,23.8691302 52.2179902,23.8947766 52.6738737,24.3869443 C53.1309696,24.8803332 53.1042956,25.6533906 52.6144633,26.1138055 L29.6832808,47.6714811 C29.4504892,47.8900866 29.1534375,48 28.8563857,48" id="Fill-1"></path>
                <path d="M36,2.4 C17.4732,2.4 2.4,17.4732 2.4,36 C2.4,54.5268 17.4732,69.6 36,69.6 C54.5268,69.6 69.6,54.5268 69.6,36 C69.6,17.4732 54.5268,2.4 36,2.4 M36,72 C16.1496,72 0,55.8516 0,36 C0,16.1508 16.1496,0 36,0 C55.8504,0 72,16.1508 72,36 C72,55.8516 55.8504,72 36,72" id="Fill-3"></path>
            </g>
        </g>
    </g>
</svg>