<svg id="Layer_1" xmlns="http://www.w3.org/2000/svg" viewBox="0 0 60 72"><title>Youtube</title><path d="M270.75,266.66h-4l0-2.29a1.86,1.86,0,0,1,1.86-1.85h.25a1.87,1.87,0,0,1,1.86,1.85Zm-14.82-4.92a1.69,1.69,0,0,0-1.82,1.5v11.16a1.86,1.86,0,0,0,3.65,0V263.25a1.69,1.69,0,0,0-1.83-1.5ZM280,255.5v21.23c0,5.09-4.42,9.26-9.82,9.26H229.82c-5.4,0-9.82-4.17-9.82-9.26V255.5c0-5.09,4.41-9.26,9.82-9.26h40.37c5.4,0,9.82,4.17,9.82,9.26ZM232.51,279V256.68h5v-3.31l-13.34,0v3.26h4.16V279Zm15-19h-4.17V272a21.8,21.8,0,0,1,0,2.9c-.34.92-1.86,1.91-2.46.1a24.2,24.2,0,0,1,0-2.91V260h-4.15v11.84c0,1.82,0,3.17,0,3.78.1,1.09.06,2.35,1.07,3.07,1.88,1.35,5.48-.2,6.38-2.14V279h3.35V260Zm13.35,13.68v-9.95c0-3.78-2.84-6.05-6.69-3l0-7.39H250l0,25.51,3.43-.05.31-1.59c4.38,4,7.13,1.27,7.13-3.55Zm13.06-1.32-3.13,0c0,.12,0,.26,0,.42v1.75a1.71,1.71,0,0,1-1.71,1.69h-.61a1.71,1.71,0,0,1-1.71-1.69V270h7.16v-2.7a43.37,43.37,0,0,0-.21-5.07c-.51-3.56-5.51-4.13-8-2.3a4.7,4.7,0,0,0-1.75,2.36,13.25,13.25,0,0,0-.53,4.2v5.93c0,9.86,12,8.46,10.54,0Zm-16-32.18a2.83,2.83,0,0,0,1,1.26,2.88,2.88,0,0,0,1.71.47,2.65,2.65,0,0,0,1.6-.5,3.85,3.85,0,0,0,1.17-1.5l-.08,1.64h4.65V221.79h-3.66v15.39a1.53,1.53,0,0,1-3.05,0V221.79h-3.82v13.34c0,1.7,0,2.83.08,3.41a5.73,5.73,0,0,0,.4,1.65ZM243.77,229a16.56,16.56,0,0,1,.47-4.45,4.76,4.76,0,0,1,4.86-3.54,5.76,5.76,0,0,1,2.77.63,4.56,4.56,0,0,1,1.79,1.62,6.46,6.46,0,0,1,.86,2.06,16.71,16.71,0,0,1,.23,3.24v5a27.42,27.42,0,0,1-.22,4,6.35,6.35,0,0,1-.92,2.4,4.32,4.32,0,0,1-1.79,1.64,5.65,5.65,0,0,1-2.52.53,6.93,6.93,0,0,1-2.69-.45,3.66,3.66,0,0,1-1.71-1.37,6.12,6.12,0,0,1-.88-2.22,21.34,21.34,0,0,1-.26-3.9Zm3.64,7.86a1.86,1.86,0,1,0,3.7,0V226.34a1.86,1.86,0,1,0-3.7,0Zm-12.87,5.32h4.39V227l5.18-13h-4.8l-2.76,9.65L233.77,214H229l5.52,13Zm0,0" transform="translate(-220 -214)" style="fill:#535353"/></svg>
