<svg xmlns="http://www.w3.org/2000/svg" width="40" height="40" viewBox="0 0 40 40">
    <g id="ico_share_default" transform="translate(-1255 -447)">
        <rect id="bg_ico_share" width="40" height="40" transform="translate(1255 447)" fill="none"></rect>
        <path id="ico_share" d="M97.645,132.873v-3.665a1.2,1.2,0,0,1,.691-1.108,1.066,1.066,0,0,1,1.221.26l7.84,8.4a1.26,1.26,0,0,1,0,1.7l-7.84,8.4a1.065,1.065,0,0,1-1.221.262,1.2,1.2,0,0,1-.691-1.11v-3.715c-.318-.024-.633-.035-.944-.035a11.912,11.912,0,0,0-9.365,4.476,1.073,1.073,0,0,1-1.247.412,1.2,1.2,0,0,1-.764-1.138C85.325,135.059,94.381,133.191,97.645,132.873Zm-1.238,7.282a14.266,14.266,0,0,1,2.1.182,1.209,1.209,0,0,1,1.053,1.153l-.266,3.093,6.181-6.975-6.181-6.824.266,3.285c0,.662-.848,1.255-1.466,1.255-1.019,0-8.979-.195-11.129,9.259C88.814,143.122,92.4,140.155,96.407,140.155Z" transform="translate(1178.557 329.151)" fill="#b9b9b9"></path>
    </g>
</svg>