<svg xmlns="http://www.w3.org/2000/svg" width="34" height="34" viewBox="0 0 34 34" wtx-context="CF83722A-D5F6-4C75-8CF6-A365B036FFA8">
  <g id="ico_description" transform="translate(-140 -1087)">
    <rect id="Rectangle_3112" data-name="Rectangle 3112" width="34" height="34" transform="translate(140 1087)" fill="none"/>
    <path id="xiangqingjieshao" d="M79.548,6.123H66.426a.787.787,0,0,0,0,1.575H79.548a.787.787,0,0,0,0-1.575Zm0,5.424H66.426a.787.787,0,0,0,0,1.575H79.548a.787.787,0,0,0,0-1.575ZM82.872,0H63.1A1.707,1.707,0,0,0,61.44,1.837V24.406A1.707,1.707,0,0,0,63.1,26.243h11.46a1.656,1.656,0,0,0,1.4-.787.086.086,0,0,0,.087-.087l7.873-7.96a1.468,1.468,0,0,0,.525-1.225V1.837A1.643,1.643,0,0,0,82.872,0ZM76.224,23.182V19.508a1.59,1.59,0,0,1,1.662-1.575h3.587Zm6.823-7a.188.188,0,0,1-.175.175h-4.9a3.118,3.118,0,0,0-3.149,3.062v5.161a.188.188,0,0,1-.175.175H63.1a.611.611,0,0,1-.175-.35V1.837a.379.379,0,0,1,.175-.35h19.77a.611.611,0,0,1,.175.35Z" transform="translate(83.656 1090.602)" fill="#5c5c68"/>
  </g>
</svg>