<svg xmlns="http://www.w3.org/2000/svg" width="34" height="34" viewBox="0 0 34 34" wtx-context="61600430-B309-4817-87EA-71E98FF7E56C">
  <g id="ico_apply" transform="translate(-140 -1087)">
    <rect id="Rectangle_3112" data-name="Rectangle 3112" width="34" height="34" transform="translate(140 1087)" fill="none"/>
    <g id="方案申请" transform="translate(108.867 1055.867)">
      <path id="Path_5285" data-name="Path 5285" d="M59.265,43.449l-1.844-.582V36.074a1.946,1.946,0,0,0-1.941-1.941H39.955a1.946,1.946,0,0,0-1.941,1.941v6.792l-1.844.582a2.827,2.827,0,0,0-2.038,2.814V58.392A2.859,2.859,0,0,0,37.044,61.3H58.392A2.859,2.859,0,0,0,61.3,58.392V46.263A3.038,3.038,0,0,0,59.265,43.449Zm-.582,1.844c.1,0,.1.1.194.1l-1.456.679V44.9Zm-3.2-9.218V46.942l-7.375,3.4a1.063,1.063,0,0,1-.776,0l-7.375-3.4V36.074ZM38.015,44.9v1.164l-1.456-.679c.1,0,.1-.1.194-.1ZM58.392,59.362H37.044a.917.917,0,0,1-.97-.97V47.33l10.383,4.852a2.879,2.879,0,0,0,2.523,0L59.362,47.33V58.392A.917.917,0,0,1,58.392,59.362Z" fill="#5c5c68"/>
      <path id="Path_5286" data-name="Path 5286" d="M308.17,206.741h9.7a.97.97,0,0,0,0-1.941h-9.7a.97.97,0,1,0,0,1.941Zm0,3.881h9.7a.97.97,0,0,0,0-1.941h-9.7a.97.97,0,1,0,0,1.941Z" transform="translate(-265.304 -165.815)" fill="#5c5c68"/>
    </g>
  </g>
</svg>