<svg xmlns="http://www.w3.org/2000/svg" width="34" height="34" viewBox="0 0 34 34" wtx-context="ACDEC771-E966-4B3D-A51A-85C46F64E781">
  <g id="ico_info" transform="translate(-140 -1087)">
    <rect id="Rectangle_3112" data-name="Rectangle 3112" width="34" height="34" transform="translate(140 1087)" fill="none"/>
    <g id="fl-xinxi" transform="translate(49.91 989.412)">
      <path id="Path_5192" data-name="Path 5192" d="M107.319,101.77a13.048,13.048,0,1,0,13.048,13.048A13.048,13.048,0,0,0,107.319,101.77Zm0,24.016a10.968,10.968,0,1,1,10.968-10.968A10.968,10.968,0,0,1,107.319,125.786Z" transform="translate(0)" fill="#5c5c68"/>
      <path id="Path_5193" data-name="Path 5193" d="M463.838,272.6m-1.336,0a1.336,1.336,0,1,0,1.336-1.336A1.336,1.336,0,0,0,462.5,272.6Z" transform="translate(-356.519 -164.1)" fill="#5c5c68"/>
      <path id="Path_5194" data-name="Path 5194" d="M465.174,407.29a1.272,1.272,0,0,1-1.272,1.272h-.127a1.272,1.272,0,0,1-1.272-1.272v-8.762a1.272,1.272,0,0,1,1.272-1.272h.127a1.272,1.272,0,0,1,1.272,1.272Z" transform="translate(-356.519 -286.086)" fill="#5c5c68"/>
    </g>
  </g>
</svg>