<svg xmlns="http://www.w3.org/2000/svg" width="34" height="34" viewBox="0 0 34 34" wtx-context="77023020-B9FD-4A37-831F-74DFCF9D4921">
  <g id="ico_employer" transform="translate(-140 -1087)">
    <rect id="Rectangle_3112" data-name="Rectangle 3112" width="34" height="34" transform="translate(140 1087)" fill="none"/>
    <path id="lianxiren_1" d="M.721,6.887h4.2a.721.721,0,1,0,0-1.443H.721a.721.721,0,1,0,0,1.443ZM0,12.5m.721,0h4.2a.638.638,0,0,1,.721.721h0a.638.638,0,0,1-.721.721H.721A.638.638,0,0,1,0,13.217H0A.638.638,0,0,1,.721,12.5Zm4.919,7.756a.721.721,0,0,0-.721-.721H.721a.721.721,0,1,0,0,1.443h4.2A.721.721,0,0,0,5.641,20.251Zm12.626-8.1a3.722,3.722,0,0,0,.951-2.492,3.87,3.87,0,0,0-7.74,0,3.788,3.788,0,0,0,.984,2.492,8.428,8.428,0,0,0-4.05,6.444,1.869,1.869,0,0,0,.459,1.492,1.509,1.509,0,0,0,1.115.525H20.743a1.541,1.541,0,0,0,1.131-.525,1.918,1.918,0,0,0,.443-1.492,8.379,8.379,0,0,0-4.05-6.444Zm-2.9-4.69a2.2,2.2,0,0,1,.935,4.181l-.935.426-.918-.426a2.18,2.18,0,0,1,.918-4.181Zm5.3,11.478H10.084a.328.328,0,0,1,0-.2A6.3,6.3,0,0,1,14.3,13.118l1.066-.279,1.033.279a6.313,6.313,0,0,1,4.263,5.591.328.328,0,0,1,0,.262ZM23.432,0H5.395a2.82,2.82,0,0,0-2.87,2.738V4.92H5.05A1.23,1.23,0,0,1,6.28,6.133a1.3,1.3,0,0,1-.361.885,1.23,1.23,0,0,1-.869.361H2.525v4.608H5.018a1.394,1.394,0,0,1,.885.361,1.23,1.23,0,0,1-.853,2.1H2.525v4.526H5.034a1.23,1.23,0,1,1,0,2.46H2.525v2.033a2.82,2.82,0,0,0,2.87,2.771H23.432a2.8,2.8,0,0,0,2.8-2.771V2.739A2.8,2.8,0,0,0,23.432,0ZM24.6,23.465a1.181,1.181,0,0,1-1.23,1.1H5.329a1.181,1.181,0,0,1-1.23-1.1v-.394h.869a2.87,2.87,0,1,0,0-5.739h-.8V16.07h.918A2.87,2.87,0,0,0,7.9,13.118a2.8,2.8,0,0,0-.853-1.968A3,3,0,0,0,5,10.314H4.165V9.084H5.05A2.87,2.87,0,0,0,7.084,8.2,2.87,2.87,0,0,0,5.05,3.28H4.165V2.739a1.181,1.181,0,0,1,1.23-1.1H23.432a1.181,1.181,0,0,1,1.23,1.1Z" transform="translate(143.865 1090.882)" fill="#5c5c68"/>
  </g>
</svg>