<svg xmlns="http://www.w3.org/2000/svg" width="34" height="34" viewBox="0 0 34 34" wtx-context="9671BB88-FD74-4E6E-8263-F6EA643AFBC2">
    <g id="ico__enterprise" data-name="ico_ enterprise" transform="translate(-140 -644)">
        <rect id="矩形_3111" data-name="矩形 3111" width="34" height="34" transform="translate(140 644)" fill="none"/>
        <path id="gongwenbao" d="M32.157,129.637H26.729v-.165A3.023,3.023,0,0,0,24,126.227H17.861a3.024,3.024,0,0,0-2.727,3.245v.165H9.707a3.023,3.023,0,0,0-2.727,3.244v15.457a3.023,3.023,0,0,0,2.727,3.245H32.157a3.023,3.023,0,0,0,2.728-3.245V132.881A3.023,3.023,0,0,0,32.157,129.637Zm-15.274-.165a1.086,1.086,0,0,1,.979-1.165H24a1.085,1.085,0,0,1,.979,1.165v.165h-8.1v-.165Zm-7.175,2.245H32.157a1.086,1.086,0,0,1,.979,1.165v2.188a.811.811,0,0,0-.035.231,1.781,1.781,0,0,1-1.326,1.761l-6.728,2.026a2,2,0,0,0-1.906-1.895H18.724a2,2,0,0,0-1.907,1.909l-6.776-2.04c-1-.429-1.26-1-1.313-1.511v-2.668a1.086,1.086,0,0,1,.979-1.165ZM23.89,139.3v1.358a.744.744,0,0,1-.75.716H18.724a.744.744,0,0,1-.751-.716V139.3a.744.744,0,0,1,.751-.717h4.415a.744.744,0,0,1,.75.717ZM32.157,149.5H9.707a1.086,1.086,0,0,1-.979-1.165v-.26a2.11,2.11,0,0,0,1.2.388H29.111c.322,0,.322-1.387,0-1.387H9.933a1.3,1.3,0,0,1-1.2-1.147v-8.1a4.149,4.149,0,0,0,.95.545l.051.018,7.08,2.132v.125a2.018,2.018,0,0,0,1.916,2.1h4.415a2.018,2.018,0,0,0,1.916-2.1v-.139l7.031-2.118.05-.018a4.086,4.086,0,0,0,1-.585v8.138a1.3,1.3,0,0,1-1.2,1.147H29.111a.7.7,0,0,0,0,1.387h2.819a2.109,2.109,0,0,0,1.2-.388v.26a1.086,1.086,0,0,1-.979,1.165Z" transform="translate(136.089 521.868)" fill="#5c5c68"/>
    </g>
</svg>