<svg xmlns="http://www.w3.org/2000/svg" width="34" height="34" viewBox="0 0 34 34" wtx-context="E52826E4-5DF8-43D6-A00B-4077DCE54B60">
  <g id="ico_map" transform="translate(-140 -1087)">
    <rect id="Rectangle_3112" data-name="Rectangle 3112" width="34" height="34" transform="translate(140 1087)" fill="none"/>
    <path id="ditu" d="M91.653,99.851a1.031,1.031,0,0,0-.845-.225l-7.277,1.333-1.914-.636a1.034,1.034,0,1,0-.653,1.962l2.163.719a1.053,1.053,0,0,0,.153.038v8.393L79,110.118a.689.689,0,1,0-.405,1.317l4.683,1.442v8.653l-8.96-2.517v-3.9a.689.689,0,0,0-1.379,0v3.913l-5.635,1.077V100.639a1.034,1.034,0,1,0-2.068,0v20.678a1.034,1.034,0,0,0,1.194,1.021L73.741,121l9.606,2.7a1.032,1.032,0,0,0,.464.022l7.363-1.38a1.034,1.034,0,0,0,.849-1.017V100.644A1.033,1.033,0,0,0,91.653,99.851Zm-1.7,10.738-5.3.96v-8.69l5.3-.981Zm-5.3,10.873v-8.514l5.3-.96v8.47Zm-16.074-15.44c.338.67,3.444,5.048,4.389,6.374a1.034,1.034,0,0,0,.842.434h0a1.034,1.034,0,0,0,.843-.439c.941-1.337,4.036-5.747,4.354-6.358a5.859,5.859,0,1,0-10.43-.012ZM73.8,99.608a3.757,3.757,0,0,1,3.378,5.469c-.18.334-1.745,2.6-3.37,4.925-1.492-2.111-3.183-4.539-3.38-4.913a3.751,3.751,0,0,1-.419-1.691A3.8,3.8,0,0,1,73.8,99.608Zm0,3.792-1.723,0a1.723,1.723,0,1,0,1.723-1.723A1.723,1.723,0,0,0,72.08,103.4Z" transform="translate(79.268 993.286)" fill="#5c5c68"/>
  </g>
</svg>