<?xml version="1.0" encoding="UTF-8"?>
<svg width="53px" height="53px" viewBox="0 0 53 53" version="1.1" xmlns="http://www.w3.org/2000/svg" xmlns:xlink="http://www.w3.org/1999/xlink">
    <!-- Generator: Sketch 49.3 (51167) - http://www.bohemiancoding.com/sketch -->
    <title>Page 1</title>
    <desc>Created with Sketch.</desc>
    <defs></defs>
    <g id="desktop" stroke="none" stroke-width="1" fill="none" fill-rule="evenodd">
        <g id="landing-page-other-partners" transform="translate(-469.000000, -1349.000000)" fill="#231F20">
            <g id="Group-11" transform="translate(163.000000, 1346.000000)">
                <g id="Group-14" transform="translate(79.000000, 0.000000)">
                    <g id="Page-1" transform="translate(227.000000, 3.000000)">
                        <path d="M26.5,1.76666667 C12.8622167,1.76666667 1.76666667,12.8622167 1.76666667,26.5 C1.76666667,40.1377833 12.8622167,51.2333333 26.5,51.2333333 C40.1377833,51.2333333 51.2333333,40.1377833 51.2333333,26.5 C51.2333333,12.8622167 40.1377833,1.76666667 26.5,1.76666667 M26.5,53 C11.8879,53 0,41.1129833 0,26.5 C0,11.8887833 11.8879,0 26.5,0 C41.1121,0 53,11.8887833 53,26.5 C53,41.1129833 41.1121,53 26.5,53" id="Fill-1"></path>
                        <path d="M40.9155139,41.8028169 C40.6884211,41.8028169 40.4613283,41.7158586 40.2874604,41.5428294 L29.3728126,30.6269036 C29.0259639,30.2808452 29.0259639,29.7191657 29.3728126,29.3722199 C29.7187743,29.0261614 30.2802968,29.0261614 30.6271455,29.3722199 L41.5426803,40.2881457 C41.8895291,40.6350915 41.8895291,41.1958836 41.5426803,41.5428294 C41.3696995,41.7158586 41.1426067,41.8028169 40.9155139,41.8028169" id="Fill-3"></path>
                        <path d="M25.7535211,23.2901408 C24.3953775,23.2901408 23.2901408,24.3953775 23.2901408,25.7535211 C23.2901408,27.1116648 24.3953775,28.2169014 25.7535211,28.2169014 C27.1116648,28.2169014 28.2169014,27.1116648 28.2169014,25.7535211 C28.2169014,24.3953775 27.1116648,23.2901408 25.7535211,23.2901408 M25.7535211,29.8591549 C23.4896746,29.8591549 21.6478873,28.0173676 21.6478873,25.7535211 C21.6478873,23.4896746 23.4896746,21.6478873 25.7535211,21.6478873 C28.0173676,21.6478873 29.8591549,23.4896746 29.8591549,25.7535211 C29.8591549,28.0173676 28.0173676,29.8591549 25.7535211,29.8591549" id="Fill-5"></path>
                        <path d="M24.6338028,23.8873239 C24.2217465,23.8873239 23.8873239,23.4979054 23.8873239,23.0161415 L23.8873239,14.3078021 C23.8873239,13.8260383 24.2217465,13.4366197 24.6338028,13.4366197 C25.0458592,13.4366197 25.3802817,13.8260383 25.3802817,14.3078021 L25.3802817,23.0161415 C25.3802817,23.4979054 25.0458592,23.8873239 24.6338028,23.8873239" id="Fill-7"></path>
                    </g>
                </g>
            </g>
        </g>
    </g>
</svg>