<svg xmlns="http://www.w3.org/2000/svg" xmlns:xlink="http://www.w3.org/1999/xlink" width="70px" height="69px" viewBox="0 0 70 69" version="1.1" class="svg  replaced-svg">
    <!-- Generator: Sketch 49.3 (51167) - http://www.bohemiancoding.com/sketch -->
    <title>Page 1</title>
    <desc>Created with Sketch.</desc>
    <defs></defs>
    <g id="desktop" stroke="none" stroke-width="1" fill="none" fill-rule="evenodd">
        <g id="landing-page-other-partners" transform="translate(-378.000000, -2318.000000)" fill="#231F20">
            <g id="Page-1" transform="translate(378.000000, 2318.000000)">
                <path d="M2.317807,48 C1.9886784,48 1.66766214,47.8583415 1.44283486,47.5972683 C1.12297749,47.2249756 1.06735012,46.6922927 1.30492534,46.2614634 L6.63472253,36.5678049 C2.34793849,32.7559024 0,27.4946341 0,21.6433171 C0,9.71004878 11.6632048,0 26,0 C40.3356363,0 52,9.71004878 52,21.6433171 L49.682193,21.6433171 C49.682193,11.0001951 39.0585246,2.34146341 26,2.34146341 C12.9414754,2.34146341 2.317807,11.0001951 2.317807,21.6433171 C2.317807,27.102439 4.63329619,31.980878 8.83663918,35.3783415 C9.27818141,35.7354146 9.39986628,36.3629268 9.12520615,36.8604878 L4.88130154,44.579122 L16.9675061,39.8821463 C17.2085581,39.7896585 17.473947,39.7802927 17.7219523,39.8563902 C18.7811901,40.1818537 20.7536439,40.7894634 22.1767774,40.9861463 L21.8615556,43.3065366 C20.4245153,43.1075122 18.5992423,42.5713171 17.4275908,42.2130732 L2.73385335,47.9227317 C2.59826164,47.9754146 2.45803432,48 2.317807,48" id="Fill-1"></path>
                <path d="M55.8464013,61.8088349 C55.9950141,61.8088349 56.1436269,61.8375995 56.2851628,61.8939303 L65.1394183,65.494307 L61.8239378,58.9719202 C61.5656346,58.4649431 61.695376,57.8429073 62.1341375,57.4869446 C65.7374079,54.5565448 67.6410669,50.6984847 67.6410669,46.332249 C67.6410669,37.1515281 58.6464549,29.397055 48.0005897,29.397055 C37.3535451,29.397055 28.3589331,37.1515281 28.3589331,46.332249 C28.3589331,55.7155209 37.0692937,63.642582 47.3790109,63.642582 L47.3801903,63.642582 C50.1377831,63.642582 52.824608,63.0600976 55.3675379,61.9119082 C55.519689,61.8435922 55.6824554,61.8088349 55.8464013,61.8088349 M67.6410669,69 C67.4936336,69 67.3450208,68.9724339 67.2023053,68.9149045 L55.8629138,64.3053677 C53.1536791,65.4571526 50.3029085,66.039637 47.3801903,66.039637 L47.3790109,66.039637 C35.7907519,66.039637 26,57.0147248 26,46.332249 C26,35.8523243 36.0750034,27 48.0005897,27 C59.9249966,27 70,35.8523243 70,46.332249 C70,51.1407414 68.0515212,55.4051023 64.3515346,58.7226265 L68.6884332,67.2513483 C68.9148908,67.6960021 68.8453022,68.236538 68.5138721,68.6080815 C68.2862351,68.8621693 67.9665997,69 67.6410669,69" id="Fill-3"></path>
            </g>
        </g>
    </g>
</svg>