<svg xmlns="http://www.w3.org/2000/svg" xmlns:xlink="http://www.w3.org/1999/xlink" width="41px" height="53px" viewBox="0 0 41 53" version="1.1" class="svg  replaced-svg">
    <!-- Generator: Sketch 49.3 (51167) - http://www.bohemiancoding.com/sketch -->
    <title>Page 1</title>
    <desc>Created with Sketch.</desc>
    <defs>
        <polygon id="path-1" points="0 53 41 53 41 0 0 0"></polygon>
    </defs>
    <g id="desktop" stroke="none" stroke-width="1" fill="none" fill-rule="evenodd">
        <g id="landing-page-other-partners" transform="translate(-329.000000, -854.000000)">
            <g id="Group-18" transform="translate(217.000000, 808.000000)">
                <g id="Page-1" transform="translate(112.000000, 46.000000)">
                    <path d="M1.7826087,51.2333333 L39.2173913,51.2333333 L39.2173913,13.6510333 L25.5126957,1.76666667 L1.7826087,1.76666667 L1.7826087,51.2333333 Z M40.1086957,53 L0.891304348,53 C0.399304348,53 0,52.60515 0,52.1166667 L0,0.883333333 C0,0.39485 0.399304348,0 0.891304348,0 L25.8478261,0 C26.0635217,0 26.272087,0.0777333333 26.4351957,0.218183333 L40.6960652,12.58485 C40.888587,12.7526833 41,12.9956 41,13.25 L41,52.1166667 C41,52.60515 40.6006957,53 40.1086957,53 Z" id="Fill-1" fill="#FF9502"></path>
                    <path d="M40,14 L25.8823529,14 C25.3952941,14 25,13.6126 25,13.1333333 L25,1 L26.7647059,1 L26.7647059,12.2666667 L40,12.2666667 L40,14 Z" id="Fill-3" fill="#FF9502"></path>
                    <mask id="mask-2" fill="white">
                        <use xlink:href="#path-1"></use>
                    </mask>
                    <g id="Clip-6"></g>
                    <path d="M8.8,46.2352941 L32.2,46.2352941 L32.2,19.7647059 L8.8,19.7647059 L8.8,46.2352941 Z M7,48 L34,48 L34,18 L7,18 L7,48 Z" id="Fill-5" fill="#FF9502" mask="url(#mask-2)"></path>
                    <path d="M33.1,27 L7.9,27 C7.4032,27 7,26.553 7,26 C7,25.447 7.4032,25 7.9,25 L33.1,25 C33.5968,25 34,25.447 34,26 C34,26.553 33.5968,27 33.1,27" id="Fill-7" fill="#FF9502" mask="url(#mask-2)"></path>
                    <path d="M33.1,34 L7.9,34 C7.4032,34 7,33.553 7,33 C7,32.447 7.4032,32 7.9,32 L33.1,32 C33.5968,32 34,32.447 34,33 C34,33.553 33.5968,34 33.1,34" id="Fill-8" fill="#FF9502" mask="url(#mask-2)"></path>
                    <path d="M33.1,41 L7.9,41 C7.4032,41 7,40.553 7,40 C7,39.447 7.4032,39 7.9,39 L33.1,39 C33.5968,39 34,39.447 34,40 C34,40.553 33.5968,41 33.1,41" id="Fill-9" fill="#FF9502" mask="url(#mask-2)"></path>
                    <path d="M17,48 C16.448,48 16,47.6055882 16,47.1176471 L16,18.8823529 C16,18.3944118 16.448,18 17,18 C17.552,18 18,18.3944118 18,18.8823529 L18,47.1176471 C18,47.6055882 17.552,48 17,48" id="Fill-10" fill="#FF9502" mask="url(#mask-2)"></path>
                </g>
            </g>
        </g>
    </g>
</svg>