<svg xmlns="http://www.w3.org/2000/svg" width="34" height="34" viewBox="0 0 34 34" class="svg  replaced-svg">
  <g id="ico_categ_partenaires" transform="translate(-140 -644)">
    <rect id="矩形_3111" data-name="矩形 3111" width="34" height="34" transform="translate(140 644)" fill="none"></rect>
    <path id="hezuohuobanguanli" d="M15.032,12.791a3.92,3.92,0,1,0-3.209,0,6.411,6.411,0,0,1,1.605-.225A6.372,6.372,0,0,1,15.032,12.791ZM10.8,9.222a2.631,2.631,0,1,1,2.632,2.632A2.631,2.631,0,0,1,10.8,9.222ZM14.626,18.4H8.273a5.184,5.184,0,0,1,8.671-3.164,8.06,8.06,0,0,1,.85-.556l.272-.14a6.479,6.479,0,0,0-3.035-1.755,3.852,3.852,0,0,1-1.6.354,3.9,3.9,0,0,1-1.605-.352,6.478,6.478,0,0,0-4.88,6.259.646.646,0,0,0,.644.646l6.195.116S14.549,18.57,14.626,18.4Zm.418-5.6a1.83,1.83,0,0,0-1.512-.463,2.208,2.208,0,0,0-1.7.463,3.513,3.513,0,0,0,3.209,0Zm7.523,8.079A1.843,1.843,0,0,0,20.955,24.2a1.743,1.743,0,0,0,.517.135,1.835,1.835,0,0,0,1.094-3.451Zm5.041,2.372q.908-.228,1.5-.436a7.345,7.345,0,0,0-.064-1.229c0-.036-.007-.071-.011-.107-.408-.1-.914-.187-1.532-.272a6.1,6.1,0,0,0-.33-1.013c.446-.433.8-.806,1.073-1.124a7.666,7.666,0,0,0-.732-1.118c-.4.12-.89.3-1.465.532a5.719,5.719,0,0,0-.792-.712c.17-.6.292-1.1.369-1.514a7.908,7.908,0,0,0-1.191-.605c-.043.049-.1.111-.144.161-.255.283-.536.614-.86,1.03-.109-.032-.225-.043-.335-.069a6.038,6.038,0,0,0-.7-.15c-.154-.6-.3-1.1-.438-1.491a7.286,7.286,0,0,0-1.225.06c-.043,0-.077.009-.112.015-.092.4-.189.914-.27,1.532a5.614,5.614,0,0,0-.939.307.673.673,0,0,0-.073.022c-.433-.448-.806-.806-1.124-1.073a7.14,7.14,0,0,0-.667.435c-.148.1-.311.184-.451.3.12.4.3.886.532,1.463a6.207,6.207,0,0,0-.68.759H16.78c-.538-.15-1.006-.264-1.384-.333-.066.1-.109.225-.169.333a7.56,7.56,0,0,0-.436.86c.154.144.328.3.526.465s.42.345.665.534a6.271,6.271,0,0,0-.215,1.045c-.6.15-1.1.3-1.495.436a7.538,7.538,0,0,0,.058,1.227l.017.109c.4.1.914.185,1.532.272.041.176.112.339.167.51s.094.341.161.5c-.259.253-.481.481-.684.695-.144.152-.279.3-.392.429a7.468,7.468,0,0,0,.732,1.124c.4-.12.89-.3,1.465-.536a5.828,5.828,0,0,0,.792.712,15.245,15.245,0,0,0-.369,1.512,7.254,7.254,0,0,0,1.191.6,15.193,15.193,0,0,0,1-1.19,5.9,5.9,0,0,0,1.043.219c.152.6.3,1.1.436,1.493a7.574,7.574,0,0,0,1.229-.06c.036,0,.071-.007.109-.013.1-.407.185-.916.268-1.534a5.862,5.862,0,0,0,1.012-.33c.433.448.809.806,1.126,1.075a7.278,7.278,0,0,0,1.118-.732,14.46,14.46,0,0,0-.532-1.465,6.168,6.168,0,0,0,.71-.791c.6.17,1.1.292,1.514.369a7.225,7.225,0,0,0,.605-1.2c-.305-.285-.7-.618-1.193-1A5.438,5.438,0,0,0,27.607,23.251ZM22.244,26.8a4.286,4.286,0,1,1,.849-8.282,4.367,4.367,0,0,1,1.193.624A4.284,4.284,0,0,1,22.244,26.8ZM11.053,22.479H4.532A2.623,2.623,0,0,1,1.91,19.857V4.5A2.623,2.623,0,0,1,4.532,1.873H19.893A2.623,2.623,0,0,1,22.516,4.5V11.41c0,.069,1.364.178,1.873.326V3.747A3.746,3.746,0,0,0,20.643,0H3.783A3.746,3.746,0,0,0,.037,3.747V20.606a3.746,3.746,0,0,0,3.747,3.747h7.555C11.207,23.841,11.106,22.479,11.053,22.479ZM9.682,11.569s-6.487-.35-6.483,7.124H4.488a5.4,5.4,0,0,1,5.2-5.833Zm0-5.961A3.368,3.368,0,0,0,6.245,9.046a3.483,3.483,0,0,0,3.439,3.437V11.313A2.435,2.435,0,0,1,7.505,9.046,2.26,2.26,0,0,1,9.684,6.688Z" transform="translate(142.524 646.14)" fill="#5c5c68"></path>
  </g>
</svg>
